<svg xmlns="http://www.w3.org/2000/svg" width="243.438" height="263.913" viewBox="0 0 243.438 263.913">
  <g id="Group_7146" data-name="Group 7146" transform="translate(1618.153 -429.587)">
    <g id="Group_7108" data-name="Group 7108" transform="translate(-1674.5 438.193)">
      <g id="Group_7107" data-name="Group 7107" transform="translate(58.968 93.035)" opacity="0.66">
        <g id="Group_7106" data-name="Group 7106">
          <g id="Group_7105" data-name="Group 7105" opacity="0.47">
            <path id="Path_4334" data-name="Path 4334" d="M233.869,306.714c-1.074-13.095-6.235-26.209-15.175-35.582-13.929-14.6-35-18.286-53.466-14.91-7.734,1.414-15.4,3.919-23.326,3.131-11.551-1.151-21.725-9.034-32.243-14.812-14.318-7.866-30.727-12.1-45.947-8.677a42.623,42.623,0,0,0-33.094,37.992c-.766,8.813,7.008,24.338,4.554,32.69-2.488,8.471-20.655,34.419-20.207,54.156.446,19.664,4.63,25.778,10.543,35.771H218.583c3.681-10.125,6.567-18.224,2.255-31.521-3.444-10.624,5.915-19.375,9.535-29.264C233.593,326.889,234.655,316.3,233.869,306.714Z" transform="translate(-14.957 -234.667)" fill="#9f9f9f"/>
          </g>
        </g>
      </g>
    </g>
    <g id="Group_7113" data-name="Group 7113" transform="translate(-1451.781 445.419)">
      <g id="Group_7112" data-name="Group 7112">
        <path id="Path_4335" data-name="Path 4335" d="M99.054,254.98h3.153a5.216,5.216,0,0,1,5.214,5.395l-.231,6.9a2.356,2.356,0,0,0,3.964,1.8l13.59-12.694a5.219,5.219,0,0,1,3.562-1.4h17.547a6.967,6.967,0,0,0,6.968-6.968v-46.8a6.966,6.966,0,0,0-6.968-6.966h-46.8a6.966,6.966,0,0,0-6.966,6.966v46.8A6.966,6.966,0,0,0,99.054,254.98Z" transform="translate(-92.088 -194.249)" fill="#1d80e6"/>
      </g>
    </g>
    <rect id="Rectangle_17324" data-name="Rectangle 17324" width="38.717" height="38.717" rx="2.412" transform="translate(-1413.433 500.188)" fill="#1d80e6"/>
    <path id="Path_4336" data-name="Path 4336" d="M124.076,243.058a9.087,9.087,0,1,1,9.089-9.087A9.1,9.1,0,0,1,124.076,243.058Zm0-16.636a7.548,7.548,0,1,0,7.549,7.55A7.558,7.558,0,0,0,124.076,226.422Z" transform="translate(-1518.15 285.576)" fill="#fff"/>
    <path id="Path_4337" data-name="Path 4337" d="M121.538,237.416a.912.912,0,0,1-.654-.274l-3.592-3.59a.769.769,0,0,1,1.089-1.087l3.155,3.155,11.479-11.477a.769.769,0,1,1,1.089,1.087l-12.142,12.142Zm-.437-1.361,0,.006Z" transform="translate(-1515.817 284.488)" fill="#fff"/>
    <rect id="Rectangle_17325" data-name="Rectangle 17325" width="7.626" height="7.627" transform="translate(-1439.755 468.274)" fill="#fff"/>
    <rect id="Rectangle_17326" data-name="Rectangle 17326" width="7.627" height="7.627" transform="translate(-1409.249 468.274)" fill="#fff"/>
    <rect id="Rectangle_17327" data-name="Rectangle 17327" width="7.627" height="7.627" transform="translate(-1432.129 475.901)" fill="#fff"/>
    <rect id="Rectangle_17328" data-name="Rectangle 17328" width="7.627" height="7.627" transform="translate(-1424.502 468.274)" fill="#fff"/>
    <rect id="Rectangle_17329" data-name="Rectangle 17329" width="7.627" height="7.627" transform="translate(-1416.876 475.901)" fill="#fff"/>
    <path id="Path_4338" data-name="Path 4338" d="M227.666,355.711l.019,0s-16.033-72.775-16.035-72.788c-3.053-20.262-20.8-35.174-40.463-38.3-34.68-5.511-72.077-9.363-105.748,3.157-9.32,3.465-18.09,8.906-23.882,17.154-6.142,8.747-8.318,19.368-10.4,29.646-3.894,19.173-8.694,38.223-13.657,57.148q-1.551,6.245-3.1,12.49a22.6,22.6,0,0,0,3.794,18.935,20.853,20.853,0,0,0,18.827,8.314c.259-.025,9.785-.427,22.5-.957l-.028,1.064,123.244-.452-1.518-36.639.8.021c.106.552.208,1.076.3,1.533l.013.068c.206,1.049.359,1.836.448,2.3l.093.473c2.739,14.067,18.107,22.324,31.771,19.385C224.832,376.07,230.492,365.36,227.666,355.711Z" transform="translate(-1631.876 301.923)" fill="#1560e9"/>
    <path id="Path_4339" data-name="Path 4339" d="M89.436,271.778,88.1,271.72,98.033,334.4l-.352-16.161.741-.293-8.987-46.165" transform="translate(-1548.35 338.173)" fill="#353535" opacity="0.45"/>
    <path id="Path_4340" data-name="Path 4340" d="M45.526,267.294l-3.571,42.829,38.105,2.816-44.849,2.31Z" transform="translate(-1607.743 333.203)" fill="#353535" opacity="0.45"/>
    <path id="Path_4341" data-name="Path 4341" d="M83.836,301.242l.756,8.962L35.211,321.117l.138,1.055,51.288-8.737Z" transform="translate(-1607.743 371.328)" fill="#353535" opacity="0.45"/>
    <path id="Path_4342" data-name="Path 4342" d="M100.263,265.049l20.745,34.864-2.268,1.508Z" transform="translate(-1534.688 330.681)" fill="#353535" opacity="0.45"/>
    <g id="Group_7121" data-name="Group 7121" transform="translate(-1517.805 618.754)">
      <rect id="Rectangle_17330" data-name="Rectangle 17330" width="35.936" height="4.867" rx="1.027" transform="translate(3.316)" fill="#ff5f25"/>
      <path id="Path_4343" data-name="Path 4343" d="M93.753,333.107H68.831a3.231,3.231,0,0,1-3.223-3l-3.535-48.758a3.229,3.229,0,0,1,3.221-3.463H97.288a3.229,3.229,0,0,1,3.221,3.463l-3.535,48.758A3.231,3.231,0,0,1,93.753,333.107Z" transform="translate(-59.781 -273.651)" fill="#ffc34e"/>
      <path id="Path_4344" data-name="Path 4344" d="M62.551,286.173l1.378,19H97.562l1.377-19Z" transform="translate(-59.235 -264.349)" fill="#353535"/>
      <rect id="Rectangle_17331" data-name="Rectangle 17331" width="42.863" height="7.772" rx="1.176" transform="translate(0 2.591)" fill="#353535"/>
    </g>
    <path id="Path_4345" data-name="Path 4345" d="M55.786,293.969l10.182-8.43a8.158,8.158,0,0,1,10.687,1.979l22.986,3.422a2.325,2.325,0,0,1,1.983,2.3v1.526a5.057,5.057,0,0,1,2.357,4.276v2.6c0,.219.556.567.692.745a2.506,2.506,0,0,1,.643,1.756,4.824,4.824,0,0,1-1.845,3.526l-1.847,1.408-11.25,6.335c-5.855,3.3-12.5,5.934-19.2,6.5l-9.658,1.732Z" transform="translate(-1584.637 352.359)" fill="#efbbab"/>
    <g id="Group_7122" data-name="Group 7122" transform="translate(-1499.04 646.167)">
      <path id="Path_4346" data-name="Path 4346" d="M85.181,290.835H70.905a.952.952,0,1,1,0-1.9H85.181a.952.952,0,1,1,0,1.9Z" transform="translate(-69.689 -288.666)" fill="#ff8970"/>
      <path id="Path_4347" data-name="Path 4347" d="M85.32,291.241H71.044a1.218,1.218,0,0,1,0-2.435H85.32a1.218,1.218,0,1,1,0,2.435Zm-14.275-1.9a.687.687,0,0,0,0,1.374H85.32a.687.687,0,1,0,0-1.374Z" transform="translate(-69.828 -288.806)" fill="#efbbab"/>
    </g>
    <g id="Group_7123" data-name="Group 7123" transform="translate(-1497.477 652.788)">
      <path id="Path_4348" data-name="Path 4348" d="M71.64,296.633a.953.953,0,0,1-.161-1.892l15.6-2.679a.952.952,0,1,1,.323,1.877l-15.6,2.679A1.054,1.054,0,0,1,71.64,296.633Z" transform="translate(-70.423 -291.785)" fill="#ff8970"/>
      <path id="Path_4349" data-name="Path 4349" d="M71.781,297.038a1.213,1.213,0,0,1-1.2-1.015,1.214,1.214,0,0,1,.989-1.4l15.606-2.679a1.221,1.221,0,0,1,1.405,1,1.214,1.214,0,0,1-.994,1.4l-15.6,2.681A1.246,1.246,0,0,1,71.781,297.038Zm15.606-4.584a.79.79,0,0,0-.121.008l-15.6,2.679a.688.688,0,1,0,.24,1.354l15.6-2.679a.683.683,0,0,0,.446-.28.686.686,0,0,0-.558-1.083Z" transform="translate(-70.564 -291.925)" fill="#efbbab"/>
    </g>
    <g id="Group_7124" data-name="Group 7124" transform="translate(-1498.568 659.222)">
      <path id="Path_4350" data-name="Path 4350" d="M71.128,302.106a.953.953,0,0,1-.3-1.856l15.195-5.121a.953.953,0,0,1,.609,1.807l-15.195,5.119A.961.961,0,0,1,71.128,302.106Z" transform="translate(-69.909 -294.814)" fill="#ff8970"/>
      <path id="Path_4351" data-name="Path 4351" d="M71.269,302.513a1.217,1.217,0,0,1-.389-2.371l15.195-5.121a1.218,1.218,0,1,1,.779,2.308l-15.195,5.121A1.252,1.252,0,0,1,71.269,302.513Zm15.195-7.025a.713.713,0,0,0-.219.034L71.05,300.643a.705.705,0,0,0-.4.346.69.69,0,0,0,.841.957l15.192-5.121a.68.68,0,0,0,.4-.346.672.672,0,0,0,.034-.524A.692.692,0,0,0,86.463,295.488Z" transform="translate(-70.05 -294.955)" fill="#efbbab"/>
    </g>
    <g id="Group_7126" data-name="Group 7126" transform="translate(-1486.622 553.52)">
      <path id="Path_4352" data-name="Path 4352" d="M103.6,301.608,80.324,300.6a4.861,4.861,0,0,1-4.643-5.063l1.981-45.722a4.856,4.856,0,0,1,5.063-4.643L106,246.178a4.861,4.861,0,0,1,4.643,5.063l-1.981,45.722C108.546,299.644,103.5,301.36,103.6,301.608Z" transform="translate(-75.677 -245.167)" fill="#353535"/>
    </g>
    <g id="Group_7130" data-name="Group 7130" transform="translate(-1491.879 562.519)">
      <g id="Group_7127" data-name="Group 7127">
        <path id="Path_4353" data-name="Path 4353" d="M130.655,282.617c-2.828-5.163-5.189-9.471-5.191-9.477a32.117,32.117,0,0,0-5.021-10.511c-.463-.639-.924-1.276-1.393-1.921l.346-7.991a3.173,3.173,0,0,0-3.044-3.308,3.251,3.251,0,0,0-3.187,3.214l-.117,2.686a10.562,10.562,0,0,1-11,10.1l-9.08-.38L79.6,263.295a3.442,3.442,0,0,0-3.817,2.34,3.246,3.246,0,0,0,1.832,3.811c-.123.03-.246.066-.369.1l-.223-.03a3.332,3.332,0,0,0-3.337,1.467,3.271,3.271,0,0,0,2.354,4.964,3.218,3.218,0,0,0-1.123,1.968,3.259,3.259,0,0,0,2.711,3.713l1.429.223c.066.051.125.1.191.153,0,0,.034.07.093.189a2.88,2.88,0,0,0,.361,5.537l4.707,1c.257.2.52.395.792.571,2.089,1.346,11.224,5.017,20.738,6.6a.063.063,0,0,1,.053.053l.2,1.045c.032.159.312.091.325.085C112.6,293.605,125.226,286.3,130.655,282.617Z" transform="translate(-73.201 -249.406)" fill="#efbbab"/>
      </g>
      <g id="Group_7129" data-name="Group 7129" transform="translate(3.746 19.4)">
        <g id="Group_7128" data-name="Group 7128">
          <path id="Path_4354" data-name="Path 4354" d="M89.394,261.283l-.042,0-13.974-1.8a.47.47,0,0,1-.406-.524.481.481,0,0,1,.524-.4l13.974,1.8a.468.468,0,0,1-.076.932Z" transform="translate(-74.961 -258.544)" fill="#fb8e77"/>
          <path id="Path_4355" data-name="Path 4355" d="M89.389,264.371l-.042,0-13.974-1.8a.467.467,0,0,1-.4-.524.474.474,0,0,1,.524-.4l13.974,1.8a.468.468,0,0,1-.079.932Z" transform="translate(-74.965 -255.076)" fill="#fb8e77"/>
          <path id="Path_4356" data-name="Path 4356" d="M90.317,267.717l-.057-.006-13.914-2.225a.468.468,0,0,1,.149-.924l13.914,2.225a.468.468,0,0,1-.091.93Z" transform="translate(-73.856 -251.794)" fill="#fb8e77"/>
        </g>
      </g>
    </g>
    <path id="Path_4357" data-name="Path 4357" d="M69.985,259.664a1.716,1.716,0,1,1,1.713-1.715A1.718,1.718,0,0,1,69.985,259.664Zm0-2.371a.655.655,0,1,0,.652.656A.658.658,0,0,0,69.985,257.293Z" transform="translate(-1570.621 320.778)" fill="#fff"/>
    <path id="Path_4358" data-name="Path 4358" d="M68.361,264.886a1.715,1.715,0,1,1,1.715-1.715A1.717,1.717,0,0,1,68.361,264.886Zm0-2.369a.654.654,0,1,0,.654.654A.656.656,0,0,0,68.361,262.517Z" transform="translate(-1572.445 326.645)" fill="#fff"/>
    <path id="Path_4359" data-name="Path 4359" d="M104.169,244.527a30.519,30.519,0,0,0-.529-5.671c-.306-1.611-50.692-1.405-50.983.2a30.489,30.489,0,0,0-.493,5.471c0,11.165,6.025,20.782,14.734,25.33h-.068L78.168,292.23,89.5,269.857h-.068C98.144,265.31,104.169,255.692,104.169,244.527Z" transform="translate(-1588.704 300.019)" fill="#fff"/>
    <g id="Group_7135" data-name="Group 7135" transform="translate(-1551.576 458.472)">
      <g id="Group_7134" data-name="Group 7134">
        <path id="Path_4360" data-name="Path 4360" d="M121.857,223.02a8.344,8.344,0,0,0-3.883-.987h-3.8v-5.507a25.365,25.365,0,0,0-1.066-7.257,14.111,14.111,0,0,1-15.443-3.6,11.509,11.509,0,0,1-19.6-.367,13.951,13.951,0,0,1-14.97-4.9,25.3,25.3,0,0,0-5.779,16.129v5.507h-3.8a8.518,8.518,0,0,0-8.443,8.443v3.792a8.442,8.442,0,0,0,8.443,8.443h3.8v11.016a25.337,25.337,0,0,0,9.034,19.411V287.7a19.395,19.395,0,0,0,38.79,0V273.138a25.337,25.337,0,0,0,9.034-19.411V242.711h3.8a8.442,8.442,0,0,0,8.443-8.443v-3.792A8.411,8.411,0,0,0,121.857,223.02Z" transform="translate(-45.082 -200.397)" fill="#efbbab"/>
      </g>
      <path id="Path_4361" data-name="Path 4361" d="M82.3,248.3H76.249a25.4,25.4,0,0,1-25.4-25.4v5.554a25.383,25.383,0,0,0,13.774,22.568,14.685,14.685,0,0,0,29.308,0A25.383,25.383,0,0,0,107.7,228.455V222.9A25.4,25.4,0,0,1,82.3,248.3Z" transform="translate(-38.608 -175.124)" fill="#ff8571" opacity="0.29"/>
    </g>
    <g id="Group_7145" data-name="Group 7145" transform="translate(-1546.665 476.786)">
      <path id="Path_4362" data-name="Path 4362" d="M49.2,221.13a.8.8,0,0,1-.527-1.395l1.887-1.662-2.966-3.393a.8.8,0,1,1,1.2-1.049l4.013,4.588-3.078,2.711A.8.8,0,0,1,49.2,221.13Z" transform="translate(-47.395 -204.154)" fill="#ff8970"/>
      <path id="Path_4363" data-name="Path 4363" d="M81.987,221.568a.8.8,0,0,1-.529-.2l-3.078-2.709,4.015-4.59a.8.8,0,0,1,1.2,1.049l-2.968,3.395,1.89,1.66a.8.8,0,0,1,.07,1.123A.788.788,0,0,1,81.987,221.568Z" transform="translate(-12.598 -203.659)" fill="#ff8970"/>
      <g id="Group_7144" data-name="Group 7144" transform="translate(17.757)">
        <g id="Group_7139" data-name="Group 7139">
          <g id="Group_7138" data-name="Group 7138">
            <g id="Group_7136" data-name="Group 7136" transform="translate(0 1.552)">
              <path id="Path_4364" data-name="Path 4364" d="M56.651,215.208a6.2,6.2,0,0,0,2.6-.3c.9-.229,1.817-.437,2.618-.59s1.726-.3,2.652-.418a6.157,6.157,0,0,0,2.524-.682c.633-.427.756-1.327-.251-2.212a7.127,7.127,0,0,0-5.811-1.085,7.005,7.005,0,0,0-4.957,3.146C55.438,214.259,55.9,215.047,56.651,215.208Z" transform="translate(-55.759 -209.754)" fill="#353535"/>
            </g>
            <g id="Group_7137" data-name="Group 7137" transform="translate(27.753)">
              <path id="Path_4365" data-name="Path 4365" d="M80.614,213.874a6.488,6.488,0,0,1-2.756.087c-.974-.1-1.957-.176-2.813-.212s-1.845-.045-2.826-.025a6.505,6.505,0,0,1-2.732-.321c-.724-.348-.985-1.265-.068-2.344a7.526,7.526,0,0,1,5.889-2.028c2.836.127,4.894,1.4,5.635,2.516C81.734,212.7,81.371,213.589,80.614,213.874Z" transform="translate(-68.831 -209.023)" fill="#353535"/>
            </g>
          </g>
        </g>
        <g id="Group_7140" data-name="Group 7140" transform="translate(15.606 4.244)">
          <path id="Path_4366" data-name="Path 4366" d="M63.485,230.672l3.594-.019a4.7,4.7,0,0,0,4.673-4.726l0-.331a2.158,2.158,0,0,0-2.17-2.146h0a3.706,3.706,0,0,1-3.726-3.686V211.4" transform="translate(-62.689 -210.601)" fill="#efbbab"/>
          <path id="Path_4367" data-name="Path 4367" d="M63.906,231.889a.8.8,0,0,1,0-1.592l3.594-.019a3.907,3.907,0,0,0,3.881-3.926l0-.331a1.359,1.359,0,0,0-1.361-1.354h-.032a4.5,4.5,0,0,1-4.5-4.477v-8.371a.8.8,0,0,1,1.592,0v8.367a2.907,2.907,0,0,0,2.911,2.889.18.18,0,0,1,.034,0,2.954,2.954,0,0,1,2.951,2.938l0,.331A5.5,5.5,0,0,1,67.5,231.87l-3.594.019Z" transform="translate(-63.11 -211.022)" fill="#ff8970"/>
        </g>
        <g id="Group_7141" data-name="Group 7141" transform="translate(15.467 42.28)">
          <path id="Path_4368" data-name="Path 4368" d="M63.419,230.518s2.851-2.709,4.993,0" transform="translate(-62.624 -228.516)" fill="#efbbab"/>
          <path id="Path_4369" data-name="Path 4369" d="M68.833,231.734a.792.792,0,0,1-.624-.3,2.075,2.075,0,0,0-1.482-.9,3.591,3.591,0,0,0-2.34.981.8.8,0,0,1-1.1-1.157,5.285,5.285,0,0,1,3.541-1.414,3.624,3.624,0,0,1,2.624,1.5.792.792,0,0,1-.132,1.117A.778.778,0,0,1,68.833,231.734Z" transform="translate(-63.044 -228.938)" fill="#ff8970"/>
        </g>
        <g id="Group_7143" data-name="Group 7143" transform="translate(5.888 28.016)">
          <g id="Group_7142" data-name="Group 7142">
            <path id="Path_4370" data-name="Path 4370" d="M60.962,222.221a49.122,49.122,0,0,0,12.12,1.448c5.908-.183,3.444,9.312-5.467,10.025S56.069,222.081,60.962,222.221Z" transform="translate(-58.532 -222.219)" fill="#fff"/>
          </g>
        </g>
      </g>
      <path id="Path_4371" data-name="Path 4371" d="M62.964,215.862a2.284,2.284,0,1,1-3.042-1.089A2.282,2.282,0,0,1,62.964,215.862Z" transform="translate(-34.796 -202.812)" fill="#353535"/>
      <path id="Path_4372" data-name="Path 4372" d="M63.869,218.5a.811.811,0,0,1-.361-.085,4.176,4.176,0,0,0-4.106-.051.8.8,0,1,1-.9-1.318,5.76,5.76,0,0,1,5.724-.051.8.8,0,0,1-.361,1.505Z" transform="translate(-35.309 -200.888)" fill="#ff8970"/>
      <path id="Path_4373" data-name="Path 4373" d="M74.681,215.862a2.284,2.284,0,1,1-3.042-1.089A2.283,2.283,0,0,1,74.681,215.862Z" transform="translate(-21.637 -202.812)" fill="#353535"/>
      <path id="Path_4374" data-name="Path 4374" d="M75.586,218.5a.811.811,0,0,1-.361-.085,4.184,4.184,0,0,0-4.108-.051.8.8,0,0,1-.894-1.318,5.759,5.759,0,0,1,5.724-.051.8.8,0,0,1-.361,1.505Z" transform="translate(-22.15 -200.888)" fill="#ff8970"/>
    </g>
    <path id="Path_4375" data-name="Path 4375" d="M54.9,237.312h3.8v-5.507a25.3,25.3,0,0,1,5.779-16.129,13.951,13.951,0,0,0,14.97,4.9,11.509,11.509,0,0,0,19.6.367,14.111,14.111,0,0,0,15.443,3.6,25.365,25.365,0,0,1,1.066,7.257v5.507h3.8a8.344,8.344,0,0,1,3.883.987,11.957,11.957,0,0,0,1.361-18.884c1.813-1.79,2.384-4.637,2.312-8.121-.11-5.191-3.165-9.5-8.169-10.545-4.556-8.367-11.295-14.3-21.114-13.942l-20.882.771A23.625,23.625,0,0,0,54,210.938a11.756,11.756,0,0,0-5.378,21.09,11.606,11.606,0,0,0-1.331,10.125A8.425,8.425,0,0,1,54.9,237.312Z" transform="translate(-1598.03 242.795)" fill="#353535"/>
  </g>
</svg>
