<svg xmlns="http://www.w3.org/2000/svg" xmlns:xlink="http://www.w3.org/1999/xlink" width="183.758" height="303.268" viewBox="0 0 183.758 303.268">
  <defs>
    <clipPath id="clip-path">
      <rect x="10" width="183.758" height="303.268" fill="none"/>
    </clipPath>
  </defs>
  <g id="Group_2163" data-name="Group 2163" transform="translate(-60.687 -66.332)">
    <g id="Scroll_Group_1" data-name="Scroll Group 1" transform="translate(50.687 66.332)" clip-path="url(#clip-path)" style="mix-blend-mode: normal;isolation: isolate">
      <g id="Group_2162" data-name="Group 2162">
        <path id="Path_129" data-name="Path 129" d="M214.5,363.454a99.124,99.124,0,0,0-19.1-58.221l-27.079-37.549a31.459,31.459,0,0,1,.384-37.9l25.511-34.029a99.15,99.15,0,0,0,20.28-59.815V124.627h21.4A23.029,23.029,0,0,0,212.871,101.6H55.167A23.029,23.029,0,0,0,32.14,124.627H53.534v11.312a99.192,99.192,0,0,0,20.28,59.815l25.515,34.029a31.465,31.465,0,0,1,.38,37.9L72.638,305.234a99.1,99.1,0,0,0-19.1,58.221v18.386H32.14a23.026,23.026,0,0,0,23.027,23.027h157.7A23.026,23.026,0,0,0,235.9,381.841H214.5Zm-146.453,0a84.681,84.681,0,0,1,16.364-49.734l27.075-37.549a45.733,45.733,0,0,0-.555-55.1L85.42,187.051a84.786,84.786,0,0,1-17.373-51.111V124.627H199.991v11.312a84.749,84.749,0,0,1-17.373,51.107L157.1,221.076a45.739,45.739,0,0,0-.555,55.1l27.083,37.549a84.66,84.66,0,0,1,16.361,49.734v18.188h-15.22l-35.686-46.691a49.354,49.354,0,0,1-9.48-21.887c-4.707-28.515-5.417-82.575,3.178-93.177L164.092,193.6c7.769-9.593,11.878-20.726,11.878-32.2v-1.149H92.064V161.4c0,11.475,4.11,22.608,11.886,32.2l21.3,26.295c8.557,10.559,9.434,59.52,6.127,87.934a52.851,52.851,0,0,1-10.575,26.1l-36.47,47.72H68.047Z" transform="translate(-32.14 -101.6)" fill="#1d80e6"/>
      </g>
    </g>
  </g>
</svg>
