<svg xmlns="http://www.w3.org/2000/svg" width="294.557" height="296.397" viewBox="0 0 294.557 296.397">
  <g id="Group_2160" data-name="Group 2160" transform="translate(-57.843 -145.139)">
    <g id="Group_2154" data-name="Group 2154" transform="translate(57.843 145.139)">
      <g id="Group_2153" data-name="Group 2153" transform="translate(0)">
        <path id="Path_113" data-name="Path 113" d="M206.519,226.587c0,49.508-89.648,180.449-89.648,180.449S27.223,276.1,27.223,226.587a89.648,89.648,0,1,1,179.3,0Z" transform="translate(-8.664 -118.378)" fill="#094f8e"/>
        <path id="Path_114" data-name="Path 114" d="M116.871,136.935a89.65,89.65,0,0,0-89.648,89.652,60.1,60.1,0,0,0,1.145,10.839c25.126,13.695,55.611,21.744,88.5,21.744s63.377-8.049,88.5-21.744a60.1,60.1,0,0,0,1.145-10.839A89.65,89.65,0,0,0,116.871,136.935Z" transform="translate(-8.664 -118.378)" fill="#545454" style="mix-blend-mode: screen;isolation: isolate"/>
        <circle id="Ellipse_6" data-name="Ellipse 6" cx="76.514" cy="76.514" r="76.514" transform="translate(0 108.207) rotate(-45)" fill="#e0dfdb"/>
        <circle id="Ellipse_7" data-name="Ellipse 7" cx="72.867" cy="72.867" r="72.867" transform="translate(5.158 108.207) rotate(-45)" fill="#fff"/>
        <g id="Group_2152" data-name="Group 2152" transform="translate(78.303 58.755)">
          <path id="Path_115" data-name="Path 115" d="M65.508,212.9v32.919H42.662V147.323H77.408a57.344,57.344,0,0,1,17.882,2.469,34.357,34.357,0,0,1,12.3,6.791,26.487,26.487,0,0,1,7.132,10.212,34.587,34.587,0,0,1,2.3,12.708,37.393,37.393,0,0,1-2.364,13.517,27.111,27.111,0,0,1-7.236,10.549,34.057,34.057,0,0,1-12.336,6.861A56.544,56.544,0,0,1,77.408,212.9Zm0-17.239h11.9q8.921,0,12.843-4.26t3.92-11.9a17.754,17.754,0,0,0-1.014-6.153,12.479,12.479,0,0,0-3.072-4.764,13.871,13.871,0,0,0-5.209-3.08,23.049,23.049,0,0,0-7.468-1.08h-11.9Z" transform="translate(-42.662 -147.323)" fill="#1c1b1b"/>
        </g>
      </g>
    </g>
    <g id="Group_2159" data-name="Group 2159" transform="translate(166.05 302.716)">
      <path id="Path_116" data-name="Path 116" d="M103.591,194.257h10.6a7.168,7.168,0,0,1,7.174,7.17V246.11a7.168,7.168,0,0,1-7.174,7.17h-10.6a7.174,7.174,0,0,1-7.178-7.17V201.427A7.174,7.174,0,0,1,103.591,194.257Z" transform="translate(60.765 -114.461)" fill="#4a484b"/>
      <path id="Path_117" data-name="Path 117" d="M64.051,194.257H74.642a7.168,7.168,0,0,1,7.174,7.17V246.11a7.168,7.168,0,0,1-7.174,7.17H64.051a7.178,7.178,0,0,1-7.186-7.17V201.427A7.178,7.178,0,0,1,64.051,194.257Z" transform="translate(-52.724 -114.461)" fill="#4a484b"/>
      <path id="Path_118" data-name="Path 118" d="M230.619,203.2c-8.684-2.171-7.379,6.513-7.379,6.513l-2.132.1c-4.249-7.948-10.835-20.292-13.7-25.652-1.258-2.349-3.87-4.044-6.88-5.193-3.239-3.007-23.8-5.332-51.536-5.332-24.448,0-42.814,1.811-49.59,4.3-3.692,1.045-7.047,3.034-8.761,6.226L76.893,209.813l-2.194-.1s1.3-8.684-7.379-6.513-12.58,7.379-11.28,11.284c1.056,3.173,12.758,2.624,17.115,2.306l-.135.248S59.046,223.481,59.046,242.4v38.309H238.934V242.4c0-18.6-13.973-25.354-13.973-25.354s-.043-.089-.128-.248c4.38.317,16.009.859,17.065-2.306C243.2,210.583,239.3,205.375,230.619,203.2Z" transform="translate(-55.795 -173.636)" fill="#1d80e6"/>
      <path id="Path_119" data-name="Path 119" d="M61.888,209.173l13.184-27.1c2.105-3.738,7.859-7.02,12.313-7.02h90.387c4.458,0,10.212,3.281,12.321,7.02l13.18,27.1c1.022,2.1-.116,3.8-2.542,3.8H64.434C62.008,212.973,60.866,211.274,61.888,209.173Z" transform="translate(-39.385 -169.567)" fill="#303030"/>
      <path id="Path_120" data-name="Path 120" d="M62.8,209.327a1.212,1.212,0,0,1-.716-.151,1.152,1.152,0,0,1,.166-.677l13.18-27.1c1.656-2.929,6.7-5.8,10.32-5.8h90.387c3.626,0,8.668,2.875,10.378,5.917L199.647,208.5c.205.418.182.646.155.685a1.228,1.228,0,0,1-.7.143Z" transform="translate(-37.755 -168.014)"/>
      <path id="Path_121" data-name="Path 121" d="M200.6,198.806l-5.58,4.466H97.2l-5.584-4.466H56.635c0,2.79.151,10.742.151,10.742,0,3.471,6.691,6.284,14.937,6.284h149.86c8.25,0,14.941-2.813,14.941-6.284s-.054-8.057-.054-10.742Z" transform="translate(-53.384 -101.407)" fill="#262529"/>
      <g id="Group_2155" data-name="Group 2155" transform="translate(48.843 91.796)">
        <path id="Path_122" data-name="Path 122" d="M152.063,208.971H73.475c-3.742,0-3.92-2.6-4.853-5.808s1.362-5.8,5.1-5.8h78.086c3.738,0,6.025,2.6,5.1,5.8S155.8,208.971,152.063,208.971Z" transform="translate(-68.417 -197.358)" fill="#262529"/>
      </g>
      <g id="Group_2156" data-name="Group 2156" transform="translate(133.84 63.222)">
        <path id="Path_123" data-name="Path 123" d="M115.848,208.893c-1.734-1.846-5.185-2.21-10.618-2.771-1.687-.174-3.525-.364-5.433-.619-3.839-.515-7.263-3.595-9.415-6.017,9.6-2.36,35.461-8.66,41.25-9.457a5.852,5.852,0,0,1,.793-.054c.789,0,1.292.193,1.486.577.608,1.219.062,5.073-2.155,9.817-1.753,3.75-12,8.525-15.815,8.525Z" transform="translate(-90.382 -189.974)" fill="#fff"/>
      </g>
      <g id="Group_2157" data-name="Group 2157" transform="translate(8.788 63.222)">
        <path id="Path_124" data-name="Path 124" d="M76.358,208.893c1.734-1.846,5.185-2.21,10.618-2.771,1.691-.174,3.521-.364,5.433-.619,3.843-.515,7.263-3.595,9.415-6.017-9.6-2.36-35.461-8.66-41.247-9.457a5.893,5.893,0,0,0-.793-.054c-.793,0-1.3.193-1.486.577-.611,1.219-.062,5.073,2.152,9.817,1.753,3.75,12.011,8.525,15.819,8.525Z" transform="translate(-58.066 -189.974)" fill="#fff"/>
      </g>
      <g id="Group_2158" data-name="Group 2158" transform="translate(65.594 65.892)" style="mix-blend-mode: multiply;isolation: isolate">
        <path id="Path_125" data-name="Path 125" d="M82.51,204.924c-4.694,0-9.132-3.4-9.7-7.422A5.426,5.426,0,0,1,74.1,193.04a7.612,7.612,0,0,1,5.812-2.376h40.879a7.6,7.6,0,0,1,5.808,2.376,5.453,5.453,0,0,1,1.289,4.462c-.565,4.024-5.007,7.422-9.7,7.422Z" transform="translate(-72.746 -190.664)" fill="#b0afac"/>
      </g>
      <path id="Path_126" data-name="Path 126" d="M108.2,197.316h-4.675a2.171,2.171,0,0,0,0,4.342H108.2Z" transform="translate(74.941 -105.683)" fill="#ff8000"/>
      <path id="Path_127" data-name="Path 127" d="M56.635,197.316h4.678a2.171,2.171,0,0,1,0,4.342H56.635Z" transform="translate(-53.384 -105.683)" fill="#ff8000"/>
    </g>
  </g>
</svg>
