<svg width="30" height="35" viewBox="0 0 30 35" fill="none" xmlns="http://www.w3.org/2000/svg">
<g clip-path="url(#clip0_81_1020)">
<path d="M14.793 8.46801C16.7124 8.46801 18.3963 7.71319 19.8445 6.20351C21.2927 4.69383 22.0168 2.93834 22.0168 0.937042C22.0168 0.717242 21.9995 0.404895 21.9651 0C21.7122 0.0347053 21.5225 0.0636263 21.3961 0.0867632C19.6261 0.341268 18.0687 1.21468 16.7239 2.70697C15.3792 4.1993 14.7068 5.79574 14.7068 7.4963C14.7068 7.69293 14.7355 8.01688 14.793 8.46801ZM21.672 35C23.0397 35 24.5511 34.0572 26.2062 32.1716C27.8613 30.2859 29.1256 28.0706 29.9991 25.5255C26.7464 23.8365 25.1201 21.413 25.1201 18.2548C25.1201 15.6173 26.4361 13.3615 29.0682 11.4874C27.2407 9.18525 24.827 8.03419 21.8271 8.03419C20.5628 8.03419 19.4077 8.22507 18.3618 8.60683L17.7067 8.84977L16.8274 9.19682C16.2527 9.41662 15.7297 9.52656 15.2585 9.52656C14.8907 9.52656 14.4079 9.39927 13.8103 9.14476L13.1379 8.86712L12.5 8.60683C11.569 8.2135 10.5691 8.01684 9.50016 8.01684C6.63823 8.01684 4.3395 8.98859 2.60393 10.9321C0.868373 12.8755 0.000610352 15.4379 0.000610352 18.6192C0.000610352 23.0962 1.39134 27.2319 4.17282 31.0263C6.10378 33.6754 7.86806 35 9.46566 35C10.1438 35 10.8162 34.867 11.4828 34.6009L12.3276 34.2538L13 34.0109C13.9425 33.6754 14.8102 33.5077 15.6033 33.5077C16.4423 33.5077 17.4078 33.7217 18.4997 34.1497L19.0342 34.358C20.149 34.786 21.0283 35 21.672 35Z" fill="black"/>
</g>
<defs>
<clipPath id="clip0_81_1020">
<rect width="30" height="35" fill="white"/>
</clipPath>
</defs>
</svg>
