<svg xmlns="http://www.w3.org/2000/svg" width="45" height="30.5" viewBox="0 0 45 30.5">
  <g id="Path_149" data-name="Path 149" fill="#fff">
    <path d="M 41.23467636108398 29.62873649597168 C 40.69876861572266 29.19196891784668 39.84846496582031 28.52027320861816 38.88833999633789 27.84169006347656 C 36.68984985351562 26.28786087036133 35.04518127441406 25.5 34 25.5 L 11 25.5 C 5.210279941558838 25.5 0.5 20.78972053527832 0.5 15 L 0.5 11 C 0.5 5.210279941558838 5.210279941558838 0.5 11 0.5 L 34 0.5 C 39.78971862792969 0.5 44.5 5.210279941558838 44.5 11 L 44.5 15 C 44.5 18.15148544311523 41.99197387695312 27.02224731445312 41.23467636108398 29.62873649597168 Z" stroke="none"/>
    <path d="M 11 1 C 5.485980987548828 1 1 5.485979080200195 1 11 L 1 15 C 1 20.51401901245117 5.485980987548828 25 11 25 L 34 25 C 35.16679000854492 25 36.86016845703125 25.79595947265625 39.17691802978516 27.43337059020996 C 39.84733581542969 27.90720176696777 40.46510314941406 28.3779411315918 40.96210861206055 28.76968193054199 C 41.88363265991211 25.55042839050293 44 17.84683227539062 44 15 L 44 11 C 44 5.485979080200195 39.51401901245117 1 34 1 L 11 1 M 11 0 L 34 0 C 40.07513046264648 0 45 4.924869537353516 45 11 L 45 15 C 45 18.80910873413086 41.5 30.5 41.5 30.5 C 41.5 30.5 36.26602172851562 26 34 26 L 11 26 C 4.924869537353516 26 0 21.07513046264648 0 15 L 0 11 C 0 4.924869537353516 4.924869537353516 0 11 0 Z" stroke="none" fill="#1d80e6"/>
  </g>
</svg>
