<svg xmlns="http://www.w3.org/2000/svg" width="23.081" height="27.213" viewBox="0 0 23.081 27.213">
  <g id="Group_7151" data-name="Group 7151" transform="translate(-1187.459 -999)">
    <path id="Vector" d="M0,2.409A2.158,2.158,0,0,1,2.393,0H20.7a2.154,2.154,0,0,1,2.383,2.357v22.51a2.131,2.131,0,0,1-2.33,2.346H2.341A2.143,2.143,0,0,1,.01,24.856Q-.005,19.247,0,13.607ZM20.94,25.087V2.137H2.131v22.95Z" transform="translate(1187.459 999)" fill="#cacaca" style="mix-blend-mode: normal;isolation: isolate"/>
    <path id="Vector-2" data-name="Vector" d="M1.207,2.095C.452,2.095-.01,1.686,0,1.037A1.047,1.047,0,0,1,1.186,0H9.415c.756,0,1.228.419,1.218,1.068-.01.628-.451,1.027-1.2,1.027H1.207Z" transform="translate(1193.61 1004.237)" fill="#cacaca" style="mix-blend-mode: normal;isolation: isolate"/>
    <path id="Vector-3" data-name="Vector" d="M1.2,2.105C.462,2.105.011,1.718,0,1.079-.01.419.441.01,1.2,0H8.324c.787,0,1.239.388,1.26,1.027.01.67-.451,1.068-1.26,1.068-1.176.01-2.372.01-3.558.01Z" transform="translate(1191.511 1013.654)" fill="#cacaca" style="mix-blend-mode: normal;isolation: isolate"/>
    <path id="Vector-4" data-name="Vector" d="M1.186,2.105A1.047,1.047,0,0,1,0,1.068,1.043,1.043,0,0,1,1.155,0H8.387a1.056,1.056,0,0,1,1.2,1.037c.01.66-.441,1.058-1.218,1.058-1.2.01-2.4.01-3.611.01Z" transform="translate(1191.511 1010.512)" fill="#cacaca" style="mix-blend-mode: normal;isolation: isolate"/>
    <path id="Vector-5" data-name="Vector" d="M1.186,2.095A1.047,1.047,0,0,1,0,1.058,1.03,1.03,0,0,1,1.155,0H8.387a1.05,1.05,0,0,1,1.2,1.037c.01.66-.451,1.058-1.218,1.058H1.186Z" transform="translate(1191.511 1016.807)" fill="#cacaca" style="mix-blend-mode: normal;isolation: isolate"/>
    <path id="Vector-6" data-name="Vector" d="M1.008,2.108A1.036,1.036,0,0,1,0,1.061,1.026,1.026,0,0,1,.966.024a9.735,9.735,0,0,1,1.354,0,1.029,1.029,0,0,1,.987,1.068A1.023,1.023,0,0,1,2.267,2.108h-.63C1.427,2.108,1.218,2.119,1.008,2.108Z" transform="translate(1203.036 1010.509)" fill="#cacaca" style="mix-blend-mode: normal;isolation: isolate"/>
    <path id="Vector-7" data-name="Vector" d="M1.029,2.111A1.045,1.045,0,0,1,0,1.074,1.016,1.016,0,0,1,1,.016c.43-.021.871-.021,1.3,0A1.031,1.031,0,0,1,3.306,1.074,1.031,1.031,0,0,1,2.278,2.111c-.2,0-.409-.01-.619,0S1.239,2.121,1.029,2.111Z" transform="translate(1203.036 1013.649)" fill="#cacaca" style="mix-blend-mode: normal;isolation: isolate"/>
    <path id="Vector-8" data-name="Vector" d="M.966,2.1A1.026,1.026,0,0,1,0,1.067,1.02,1.02,0,0,1,.955.02a11.678,11.678,0,0,1,1.354,0,1.016,1.016,0,0,1,1,1.058A1.033,1.033,0,0,1,2.33,2.1c-.231.021-.462,0-.682,0S1.2,2.115.966,2.1Z" transform="translate(1203.046 1016.787)" fill="#cacaca" style="mix-blend-mode: normal;isolation: isolate"/>
  </g>
</svg>
