<svg xmlns="http://www.w3.org/2000/svg" xmlns:xlink="http://www.w3.org/1999/xlink" width="44" height="44" viewBox="0 0 44 44">
  <defs>
    <clipPath id="clip-path">
      <rect id="Rectangle_100" data-name="Rectangle 100" width="26.883" height="24.362" fill="none" stroke="#fff" stroke-width="1"/>
    </clipPath>
  </defs>
  <g id="Group_2157" data-name="Group 2157" transform="translate(0.006 0.136)">
    <g id="Group_2151" data-name="Group 2151" transform="translate(8.328 9.842)">
      <g id="Group_2150" data-name="Group 2150" transform="translate(0 0)" clip-path="url(#clip-path)">
        <path id="Path_114" data-name="Path 114" d="M29.071,10.264h-13.8a1.711,1.711,0,0,1-1.711-1.711V3.211A1.711,1.711,0,0,1,15.275,1.5H31.116Z" transform="translate(-7.465 -0.826)" fill="none" stroke="#fff" stroke-linejoin="round" stroke-width="3"/>
        <path id="Path_115" data-name="Path 115" d="M50.2,5.882h1.224a1.026,1.026,0,0,1,1.026,1.026V9.679A1.026,1.026,0,0,1,51.419,10.7H49.07" transform="translate(-27.005 -3.237)" fill="none" stroke="#fff" stroke-linejoin="round" stroke-width="3"/>
        <line id="Line_11" data-name="Line 11" x2="2.557" transform="translate(23.652 0.674)" fill="none" stroke="#fff" stroke-linecap="round" stroke-linejoin="round" stroke-width="3"/>
        <path id="Path_116" data-name="Path 116" d="M18.723,20.991v6.236a1.521,1.521,0,0,1-1.521,1.52H9.3" transform="translate(-5.117 -11.552)" fill="none" stroke="#fff" stroke-linecap="round" stroke-linejoin="round" stroke-width="3"/>
        <path id="Path_117" data-name="Path 117" d="M1.5,37.209H3.814a1.192,1.192,0,0,0,1.192-1.192V29.2A1.192,1.192,0,0,0,3.814,28H1.5Z" transform="translate(-0.826 -15.412)" fill="none" stroke="#fff" stroke-linecap="round" stroke-linejoin="round" stroke-width="3"/>
        <line id="Line_12" data-name="Line 12" y2="12.986" transform="translate(0.674 10.702)" fill="none" stroke="#fff" stroke-linecap="round" stroke-linejoin="round" stroke-width="3"/>
        <line id="Line_13" data-name="Line 13" x2="13.26" transform="translate(6.099 3.743)" fill="none" stroke="#fff" stroke-linecap="round" stroke-linejoin="round" stroke-width="3"/>
      </g>
    </g>
    <g id="Ellipse_9" data-name="Ellipse 9" transform="translate(-0.006 -0.136)" fill="none" stroke="#fff" stroke-width="3">
      <circle cx="22" cy="22" r="22" stroke="none"/>
      <circle cx="22" cy="22" r="20.5" fill="none"/>
    </g>
  </g>
</svg>
