<svg xmlns="http://www.w3.org/2000/svg" width="367.599" height="488.477" viewBox="0 0 367.599 488.477">
  <g id="Group_7259" data-name="Group 7259" transform="translate(-90.372 -54.488)">
    <path id="Path_5019" data-name="Path 5019" d="M195.243,181.323a7.328,7.328,0,0,0,6.818-7.212c-.1-4.237-6.963-6.511-9.852-3.648C188.67,173.968,189.194,181.524,195.243,181.323Z" transform="translate(27.522 31.732)" fill="#e69784" opacity="0.15" style="mix-blend-mode: multiply;isolation: isolate"/>
    <g id="Group_7251" data-name="Group 7251" transform="translate(90.634 222.528)">
      <path id="Path_5020" data-name="Path 5020" d="M369.131,321.765c29.058,23.317,74.06,48.865,78.5,52.912,3.6,3.27,10.652,7.987,9.918,19.171-.847,12.9-11.231,33.647-36.375,57.881-31.586,30.441-57.122,58.674-77.262,51.912-17.552-5.893-192.27-160.231-192.27-160.231-15.286-12.674-28.693-23.986-42.1-38.629-3.985-4.352-10.006-10.892-13.416-15.717-8.512-12.049-6.436-18.991,1.449-26.3,3.181-2.947,5.8,1.53,9.2-1.158,28.859-22.721,57.781-45.489,88.733-65.263,3.558-2.276,7.376-4.582,11.605-4.658,4.428-.06,8.475,2.352,12.155,4.81,5.97,3.985,36.275,30.526,73.58,60.041" transform="translate(-90.634 -184.565)" fill="#47549b"/>
      <path id="Path_5021" data-name="Path 5021" d="M369.082,321.765c29.058,23.317,73.919,49.026,78.5,52.912,15.192,12.876,17.549,29.9-26.457,77.052-26.622,28.523-60.816,58.25-77.262,51.912C326.6,496.969,151.6,343.409,151.6,343.409c-15.286-12.674-28.693-23.986-42.1-38.629-3.985-4.352-9.866-10.995-13.416-15.717-6.8-9.043-6.306-15.119-2.546-21.453,8.459-14.256,70.98-51.492,101.932-71.266,3.558-2.276,7.376-4.582,11.6-4.658,4.428-.06,8.475,2.352,12.155,4.81,5.97,3.985,36.275,30.526,73.58,60.041" transform="translate(-90.585 -184.565)" fill="none" stroke="#444c73" stroke-width="0.979"/>
      <path id="Path_5022" data-name="Path 5022" d="M367.939,316.188C397,339.5,437.32,368.355,441.764,372.4c3.87,3.519,11.9,11.641,10.286,23.519s-12.883,27.512-35.351,50.322c-27.379,27.8-57.53,58.158-73.976,51.82-17.27-6.672-192.27-160.232-192.27-160.232a434.04,434.04,0,0,1-43.092-41.045c-3.985-4.352-7.94-8.872-10.323-14.278-2.4-5.39-3.039-11.864-.351-17.118,1.97-3.863,5.5-6.673,8.9-9.36,28.859-22.722,57.781-45.489,88.733-65.264,3.558-2.276,7.376-4.582,11.6-4.657,4.428-.061,8.475,2.351,12.155,4.809,5.97,3.985,36.7,33.085,74.009,62.6" transform="translate(-89.442 -186.109)" fill="#1d80e6"/>
      <path id="Path_5023" data-name="Path 5023" d="M348.081,498.065c-17.27-6.673-192.272-160.233-192.272-160.233a434.318,434.318,0,0,1-43.092-41.045c-3.984-4.352-7.939-8.872-10.322-14.278-2.4-5.39-3.039-11.864-.351-17.118,1.969-3.864,5.5-6.673,8.9-9.36,28.859-22.722,57.781-45.489,88.733-65.264,2.849-1.822,5.869-3.643,9.13-4.344a12.8,12.8,0,0,0-2.883-.313c-4.229.075-8.047,2.382-11.6,4.657-30.952,19.775-59.874,42.542-88.733,65.264-3.406,2.687-6.933,5.5-8.9,9.36-2.687,5.253-2.047,11.728.351,17.118,2.383,5.405,6.338,9.926,10.323,14.278a434.039,434.039,0,0,0,43.092,41.045s175,153.559,192.27,160.233a15.314,15.314,0,0,0,7.792.637A12.794,12.794,0,0,1,348.081,498.065Z" transform="translate(-89.442 -186.109)" fill="#dfe4f2" opacity="0.2" style="mix-blend-mode: overlay;isolation: isolate"/>
      <path id="Path_5024" data-name="Path 5024" d="M359.14,317.465l69.418,55.449a10.8,10.8,0,0,1,3.4,12.173c-.645,1.742-1.463,3.869-2.5,6.465C423.387,406.7,360.187,482.7,339.3,475.8c-16.538-5.451-71.662-50.548-71.662-50.548L158.7,328.582c-15.216-16.351-36.06-29.11-48.515-48.063-2.3-2.689-2.227-6.781-.743-9.981,1.485-3.215,4.127-5.728,6.741-8.141,23.2-21.51,56.088-43.855,82.2-61.844,4.854-3.347,11.714-5.13,20.338,1.359l69.347,55.7" transform="translate(-85.719 -182.943)" fill="#dfe4f2"/>
      <path id="Path_5025" data-name="Path 5025" d="M351.089,302.568c29.06,23.317,86.232,65.788,90.676,69.834,4.273,3.886,13.1,12.882,9.655,27.172-2.8,11.6-14.823,26.465-34.72,46.669-27.377,27.8-57.53,58.158-73.976,51.82-17.27-6.672-192.27-160.232-192.27-160.232a434.04,434.04,0,0,1-43.092-41.045c-3.985-4.352-7.94-8.872-10.323-14.278-2.4-5.39-3.039-11.864-.351-17.118,1.97-3.863,5.5-6.673,8.9-9.36,28.859-22.722,57.781-45.489,88.733-65.264,3.558-2.276,7.376-4.582,11.6-4.657,4.428-.061,8.475,2.351,12.155,4.809,5.97,3.985,96.46,82.738,133.764,112.255" transform="translate(-89.442 -186.109)" fill="none" stroke="#444c73" stroke-width="0.979"/>
      <path id="Path_5026" data-name="Path 5026" d="M344.03,304.934l84.528,67.98a10.8,10.8,0,0,1,3.4,12.173c-.645,1.742-1.463,3.869-2.5,6.465C423.387,406.7,360.187,482.7,339.3,475.8c-16.538-5.451-71.662-50.548-71.662-50.548L158.7,328.582c-15.216-16.351-36.06-29.11-48.515-48.063-2.3-2.689-2.227-6.781-.743-9.981,1.485-3.215,4.127-5.728,6.741-8.141,23.2-21.51,56.088-43.855,82.2-61.844,4.854-3.347,11.714-5.13,20.338,1.359l69.347,55.7Z" transform="translate(-85.719 -182.943)" fill="none" stroke="#444c73" stroke-width="0.945"/>
      <path id="Path_5027" data-name="Path 5027" d="M375.38,325.626l-86.963-68.679L219.75,202.26c-7.737-5.772-15.58-6.257-22.681-1.4l-3.979,2.716c-25.3,17.27-56.8,38.763-79.129,59.293-3.017,2.761-5.643,5.322-7.226,8.725-1.972,4.211-1.6,8.865.944,11.9,7.852,11.811,18.963,21.292,29.71,30.462a241.493,241.493,0,0,1,19.352,17.755l110.051,96.842c2.281,1.85,56.053,45.378,72.866,50.873a10.778,10.778,0,0,0,3.376.5c25.317,0,84.361-72.215,89.861-85.827.96-2.371,1.816-4.563,2.544-6.512C437.351,382.458,435.733,376.716,375.38,325.626Zm56.558,60.654c-.715,1.918-1.558,4.077-2.5,6.418-2.922,7.228-20.422,30.058-39.473,49.8-22.715,23.534-41.08,36.023-49.142,33.377-16.161-5.281-71.12-49.775-71.617-50.176l-109.8-96.61a245.15,245.15,0,0,0-19.59-17.976c-10.578-9.027-21.517-18.36-29.084-29.777l-.142-.188c-1.882-2.18-1.592-5.574-.469-7.973,1.295-2.781,3.647-5.064,6.366-7.552,22.139-20.351,53.508-41.759,78.712-58.962l3.98-2.716c5.822-3.979,11.822-3.551,18.295,1.278l68.474,54.535h0L429.1,376.224A8.856,8.856,0,0,1,431.938,386.28Z" transform="translate(-86.523 -182.943)" fill="#4455b0" opacity="0.15" style="mix-blend-mode: multiply;isolation: isolate"/>
      <g id="Group_7242" data-name="Group 7242" transform="translate(53.673 32.455)">
        <g id="Group_7241" data-name="Group 7241" transform="translate(5.964)">
          <path id="Path_5028" data-name="Path 5028" d="M139.253,226.038a1.915,1.915,0,0,1-1.1-3.482l15.193-10.682a1.915,1.915,0,1,1,2.2,3.134l-15.192,10.682A1.91,1.91,0,0,1,139.253,226.038Z" transform="translate(-137.336 -211.525)" fill="#444c73"/>
        </g>
        <path id="Path_5029" data-name="Path 5029" d="M136.953,224.3a1.907,1.907,0,0,0-.492-.845l-.388-.3a1.907,1.907,0,0,0-.967-.262h-.524a1.968,1.968,0,0,0-1.915,1.915c.022.17.045.34.068.509a1.917,1.917,0,0,0,.493.845l.387.3a1.908,1.908,0,0,0,.968.262h.524a2.132,2.132,0,0,0,1.355-.561,2.132,2.132,0,0,0,.561-1.355Z" transform="translate(-132.666 -208.377)" fill="#444c73"/>
      </g>
      <path id="Path_5030" data-name="Path 5030" d="M424.661,392.92c1.036-2.6,1.852-4.735,2.494-6.482a10.861,10.861,0,0,0-3.392-12.2L345.033,311.8l-61.239-53.138-66.544-58.3c-8.594-6.5-15.419-3.756-22.808,1.108-15.523,10.217-32.87,22.683-49.478,35.227.055-.032-20.015,15.62-19.2,15.159,8.339-4.706,73.646-45.024,89.239-35.507C232.23,226.862,411.939,374.829,418.3,383.875c6.16,8.76-57.177,73.334-86.522,92.236a28.447,28.447,0,0,0,3.057,1.254C355.647,484.28,418.612,408.107,424.661,392.92Z" transform="translate(-80.91 -183.222)" fill="#6676de" opacity="0.15" style="mix-blend-mode: multiply;isolation: isolate"/>
      <path id="Path_5031" data-name="Path 5031" d="M197.236,270.595q12.535-10.788,25.065-21.576c3.6-3.1,7.314-6.263,11.818-7.924,13.768-5.075,33.109,11.717,43.249,19.166,14.373,10.559,27.63,22.44,41.5,33.6,8.381,6.742,17.474,12.6,25.446,19.812,1.995,1.806,3.976,3.831,4.656,6.392,1.325,4.993-6.294,11.023-9.257,14.426a387.925,387.925,0,0,1-40.978,40.634c-7.683,6.529-17.471,15.58-25.733,21.409-6.922,4.884-10.67,11.539-19.253,5.625-9.061-6.243-90.305-76.372-95.228-81-5.4-5.073-6.16-11.8,0-17.055C170.74,293.671,185.06,281.073,197.236,270.595Z" transform="translate(-73.034 -171.14)" fill="none" stroke="#444c73" stroke-linecap="round" stroke-width="0.728"/>
      <path id="Path_5032" data-name="Path 5032" d="M197.236,270.595q12.535-10.788,25.065-21.576c3.6-3.1,7.314-6.263,11.818-7.924,13.768-5.075,33.109,11.717,43.249,19.166,14.373,10.559,27.63,22.44,41.5,33.6,8.381,6.742,17.474,12.6,25.446,19.812,1.995,1.806,3.976,3.831,4.656,6.392,1.325,4.993-6.294,11.023-9.257,14.426a387.925,387.925,0,0,1-40.978,40.634c-7.683,6.529-17.471,15.58-25.733,21.409-6.922,4.884-10.67,11.539-19.253,5.625-9.061-6.243-90.305-76.372-95.228-81-5.4-5.073-6.16-11.8,0-17.055C170.74,293.671,185.06,281.073,197.236,270.595Z" transform="translate(-73.034 -171.14)" fill="#1d80e6" opacity="0.64"/>
      <g id="Group_7246" data-name="Group 7246" transform="translate(206.793 162.356)">
        <g id="Group_7245" data-name="Group 7245" transform="translate(0 28.557)">
          <g id="Group_7243" data-name="Group 7243" transform="translate(6.743)">
            <path id="Path_5033" data-name="Path 5033" d="M263.512,401.605a6.184,6.184,0,0,1-4.065-2.481c-2.148-2.8-2.117-6.8.07-8.925l54.8-53.289c2.186-2.126,5.7-1.577,7.849,1.223s2.117,6.8-.07,8.923l-54.8,53.29A4.533,4.533,0,0,1,263.512,401.605Z" transform="translate(-257.856 -335.616)" fill="#1d80e6" stroke="#444c73" stroke-linecap="round" stroke-width="0.447"/>
          </g>
          <g id="Group_7244" data-name="Group 7244" transform="translate(0 1.1)">
            <path id="Path_5034" data-name="Path 5034" d="M253.794,386.605a1.333,1.333,0,0,1-.876-.535,1.492,1.492,0,0,1,.015-1.924l48.735-47.389a1.125,1.125,0,0,1,1.693.263,1.492,1.492,0,0,1-.014,1.924l-48.736,47.389A.974.974,0,0,1,253.794,386.605Z" transform="translate(-252.575 -336.477)" fill="#1d80e6" stroke="#444c73" stroke-linecap="round" stroke-width="0.447"/>
          </g>
        </g>
        <path id="Path_5035" data-name="Path 5035" d="M317.632,313.5c-3.636.87-3.4,5.14-3.08,7.145a.651.651,0,0,1-.736.788c-1.825-.4-5.721-.748-6.6,3.21-2.568,11.618,13.778,8.216,16.493,7.575a.649.649,0,0,0,.472-.5C324.832,328.758,328.3,310.951,317.632,313.5Z" transform="translate(-237.516 -313.252)" fill="#1d80e6" stroke="#444c73" stroke-linecap="round" stroke-width="0.481"/>
      </g>
      <g id="Group_7250" data-name="Group 7250" transform="translate(53.764 56.367)">
        <g id="Group_7249" data-name="Group 7249">
          <g id="Group_7247" data-name="Group 7247" transform="translate(9.125)">
            <path id="Path_5036" data-name="Path 5036" d="M147.525,304.989a8.839,8.839,0,0,1-5.426-2.96c-2.9-3.283-2.961-7.888-.128-10.285L213,231.667c2.834-2.4,7.486-1.678,10.391,1.6s2.963,7.887.128,10.285L152.49,303.631A6.346,6.346,0,0,1,147.525,304.989Z" transform="translate(-139.884 -230.251)" fill="#1d80e6" stroke="#444c73" stroke-linecap="round" stroke-width="0.551"/>
          </g>
          <g id="Group_7248" data-name="Group 7248" transform="translate(0 0.861)">
            <path id="Path_5037" data-name="Path 5037" d="M134.385,287.511a1.906,1.906,0,0,1-1.17-.637,1.555,1.555,0,0,1-.028-2.218l63.161-53.425a1.642,1.642,0,0,1,2.241.345,1.555,1.555,0,0,1,.028,2.218l-63.161,53.425A1.37,1.37,0,0,1,134.385,287.511Z" transform="translate(-132.738 -230.925)" fill="#1d80e6" stroke="#444c73" stroke-linecap="round" stroke-width="0.551"/>
          </g>
        </g>
      </g>
    </g>
    <path id="Path_5038" data-name="Path 5038" d="M275.553,324.528c-.261,3.006,3.565,4.333,5.938,6.2,4.394,3.45,3.481,11.541-1.572,13.925-5.81,2.74-12.42-1.844-18.844-1.8-4.523.034-8.692,2.379-13.142,3.191a19.886,19.886,0,0,1-15.359-3.648c-8.192-6.189-11.611-18.684-21.545-21.273-3.492-.91-7.277-.359-10.689-1.534-6.244-2.148-9.337-10.182-6.9-16.321s9.375-9.847,15.963-9.386c0,0,26.778,20.807,39.521,22.675S275.553,324.528,275.553,324.528Z" transform="translate(28.242 66.257)" fill="#1d80e6" stroke="#444c73" stroke-linecap="round" stroke-width="0.447"/>
    <g id="Group_7258" data-name="Group 7258" transform="translate(221.277 54.615)">
      <path id="Path_5039" data-name="Path 5039" d="M249.122,183.614c.954-1.781,6.745-25.33,8.727-26.369,4.8-2.518,16.826,7.21,17.2,10.886.351,3.445-9.721,28.234-11.09,32.651l-10.212,5.127Z" transform="translate(-177.382 -26.304)" fill="#fff"/>
      <path id="Path_5040" data-name="Path 5040" d="M208.106,343.1s-5.9-5.327-5.719-8.543c-.475,1.91,13.292-25.33,17.2-41.243,2.937-11.954,2.36-17.837.621-26.374s-3.077-15.7-2.563-23.542-5.022-23.4-5.022-23.4L210.5,209.329s-2.664-14.92,3.226-17.179a6.829,6.829,0,0,1,8.663,2.974l4.721,5.622,4.579,13.852,5.878,9.1s23.765-38.124,25.422-41.128c.05-.091,6.069,11.666,6.069,11.666s12.383-6.6,17.761,3.352c3.172,5.869,1.729,7.863,1.729,7.863a59.51,59.51,0,0,1,16.036,11.337,18.883,18.883,0,0,1,2.873,7.265s20.107,6.662,24.7,11.678a75.159,75.159,0,0,1,1.226,9.215A59.988,59.988,0,0,1,330.27,265.7c-.2,3.56-9.128,19.361-9.128,19.361l-3.445,7.228a83.924,83.924,0,0,1-5.628,9.987l-4,6.094-7.523,9.793-16.717,19.291s-11.9,17.622-13.448,24.861-2.674,7.747-4.879,7.22-34.187-10.085-42.288-16.174" transform="translate(-190.329 -19.176)" fill="#fff"/>
      <g id="Group_7252" data-name="Group 7252" transform="translate(11.773 172.713)">
        <path id="Path_5041" data-name="Path 5041" d="M210.42,198.754c-1.113,12.347,6.173,24.917,7.162,37.276.347,4.334-.154,8.7.221,13.036.392,4.525,1.732,8.912,2.465,13.4,1.228,7.528,1,18.908.213,22.828-2.053,10.221-10.921,34.731-18.036,44.789-.69.974.006,1.892.682,2.877,13.066,19.038,62.837,33.816,64.5,31.753,1.961-2.434,2.435-5.863,3.529-8.724a97.041,97.041,0,0,1,4.675-10.351c6.28-11.984,15.569-21.924,24.343-32.087A147.9,147.9,0,0,0,318.5,285.984c3.463-6.524,7.334-12.853,10.129-19.71,3.945-9.677,5.616-21.987,4.873-32.431-.387-5.428-20.738-11.676-25.434-14.008s-8.273-1.95-10.978,1.637-15.261,13.99-13.661,17.865,3.73,4.008,10.64,3.74,13.792-9.789,13.792-9.789" transform="translate(-202.161 -187.407)" fill="none" stroke="#444c73" stroke-linecap="round" stroke-width="0.694"/>
        <path id="Path_5042" data-name="Path 5042" d="M211.2,190.92c-2.231,1.283-3.254,4.061-3.158,6.634s2.417,9.513,4.494,10.267a6.632,6.632,0,0,0,3.74-.006,5.843,5.843,0,0,0,2.982-1.447,6.423,6.423,0,0,0,1.319-4.282,38.951,38.951,0,0,0-.178-5.5c-.235-2.265.386-3.048-1.07-4.8C217.01,189.006,213.248,189.74,211.2,190.92Z" transform="translate(-200.535 -189.868)" fill="none" stroke="#444c73" stroke-linecap="round" stroke-width="0.694"/>
        <path id="Path_5043" data-name="Path 5043" d="M216.877,191.372c2.556,2.227,4.554,3.982,6.215,6.938,2.055,3.657,2.467,7.986,3.835,11.952,2.427,7.048,7.729,12.647,12.306,18.532,13.574,17.456,21.628,40,18.358,61.871" transform="translate(-198.085 -189.451)" fill="none" stroke="#444c73" stroke-linecap="round" stroke-width="0.694"/>
      </g>
      <g id="Group_7253" data-name="Group 7253" transform="translate(12.047 216.064)">
        <path id="Path_5044" data-name="Path 5044" d="M333.412,231.8a33.487,33.487,0,0,0-1.264-7.486c-.149-.163-.315-.327-.5-.493a107.871,107.871,0,0,1-35.775,62.7c-9.525,8.13-20.881,15.055-26.348,26.322-3.36,6.924-4.561,15.518-10.778,20.053-4.75,3.467-11.4,3.463-16.837,1.22s-9.84-6.423-13.685-10.872c-3.641-4.214-7.262-9-12.6-10.58a14.366,14.366,0,0,0-7.893.027c-2.882,6.173-5.156,10.511-5.348,10.536-.074,3.223,5.716,8.456,5.716,8.456l15.105,10.262c8.1,6.089,40.081,15.647,42.288,16.174s3.332.019,4.879-7.22,13.448-24.861,13.448-24.861l16.717-19.291,7.523-9.793,4-6.094a83.924,83.924,0,0,0,5.628-9.987l3.445-7.228s8.926-15.8,9.128-19.361C330.267,254.281,333.855,242.955,333.412,231.8Z" transform="translate(-202.373 -223.817)" fill="#4c5fce" opacity="0.15" style="mix-blend-mode: multiply;isolation: isolate"/>
        <path id="Path_5045" data-name="Path 5045" d="M202.39,301.683c0-.028-.006-.059,0-.087C202.37,301.662,202.374,301.685,202.39,301.683Z" transform="translate(-202.376 -202.275)" fill="#4c5fce" opacity="0.15" style="mix-blend-mode: multiply;isolation: isolate"/>
      </g>
      <path id="Path_5046" data-name="Path 5046" d="M253.3,264.049c2.148,9.432,3.7,18.057,1.73,27.529,5.533-18.672,9.337-36.607,7.8-56.02a39.805,39.805,0,0,0-3.507-14.541,52.988,52.988,0,0,0-4.4-6.979c-4.139-5.868-6.958-16.46-11.1-22.329-1.26,6.555-13.9,29.461-13.9,29.461.264,2.419,7.777,9.737,9.1,11.7C245.659,242.727,250.7,252.626,253.3,264.049Z" transform="translate(-182.697 -16.645)" fill="#4c5fce" opacity="0.15" style="mix-blend-mode: multiply;isolation: isolate"/>
      <path id="Path_5047" data-name="Path 5047" d="M208.365,166.69s6.644,25.2,21.343,45.1c13.054,17.673,10.586,16.982,10.586,16.982s28.789,40.769,39.879,45.5c-.3.38,2.319,3.217,4.746,2.522s11.421-11.42,11.421-11.42l8-8.217-5.917-6.95s-6.03,2.8-9.584,2.422-4.717-.051-6.343-2.384.277-5.345,1.73-7.436,7.111-8.046,7.111-8.046-5.008-7.769-5.283-7.742a40.562,40.562,0,0,1-6.976,3.379c-3.5,1.1-10.448,2.207-13.949.373s-3.028-4.119-2.918-6.166,3.5-7.76,3.5-7.76a21.6,21.6,0,0,1-4.921-2.891c-2-1.7-2.3-6.947.24-9.658a38.791,38.791,0,0,1,6.368-5.145s-8.982-16.683-10.838-30.756c-.147-1.449-29.177,5.6-39.243-3.574a30.329,30.329,0,0,1-5.827,1.546Z" transform="translate(-188.67 -24.093)" fill="#6676de"/>
      <path id="Path_5048" data-name="Path 5048" d="M248.886,184.195c.954-1.781,6.324-25,8.307-26.04,4.8-2.518,18.276,4.082,18.65,7.759.351,3.447-10.1,29.006-11.47,33.423" transform="translate(-177.447 -26.093)" fill="none" stroke="#444c73" stroke-linecap="round" stroke-width="0.694"/>
      <path id="Path_5049" data-name="Path 5049" d="M313.5,54.795s-4.136-.59-5.869,7.815-6.658,55.28-4.6,76.647c1.092,11.348,2.207,54.083,8.427,68.37,1.285,2.95,2.877,3.343,4.632,3.485,12,.971,11.565-52.217,11.565-52.217l-1.5-55.483q-.034-3.726-.393-7.429c-.6-6.187-.792-19-1.125-21.321C324.177,71.5,322.783,54.832,313.5,54.795Z" transform="translate(-162.59 -54.568)" fill="#5362b7"/>
      <path id="Path_5050" data-name="Path 5050" d="M208.365,166.748s9.239,24.753,22.063,45.908c7.362,12.145,10.244,16.29,10.244,16.29s27.905,38.979,39.065,45.432c.6.077,3.648,3.266,5.851,2.472,2.375-.857,10.045-10.387,10.045-10.387l8.307-8.98-5.186-6.833s-6.793,2.462-10.348,2.084-4.056.234-5.681-2.1-.273-5.2,1.18-7.289,7.438-8.522,7.438-8.522-5.008-7.769-5.283-7.742a52.85,52.85,0,0,1-7.414,3.424c-3.5,1.1-9.084,2.734-12.586.9a7.636,7.636,0,0,1-3.913-7.424c.111-2.047,3.869-6.836,3.869-6.836a20.06,20.06,0,0,1-4.852-2.811c-2-1.7-3.171-6.653-.627-9.365a54.733,54.733,0,0,1,6.861-5.757s-10.091-16.569-11.945-30.641c-.148-1.451-27.813,5.219-37.878-3.957-.155-.114-3.4,1.541-6.521,1.859C209.411,167.082,209.743,167.017,208.365,166.748Z" transform="translate(-188.67 -24.151)" fill="#1d80e6"/>
      <path id="Path_5051" data-name="Path 5051" d="M249.539,123.084l3.288,37.465,5.465,35.585a78.635,78.635,0,0,1,29.18,4.988c14.866,5.751,29.734,13.233,43.286,10.037.165-.083-4.84.985-7.012-12.909s-7-43.179-6.078-61.224.207-39.914,1.26-45.724,2.822-25.5,3.164-27.54,1.589-7.959,5.672-8.909-7.856.792-12.537,8.092c-6.8,10.6-16.651,28.721-26.074,36.771s-24.776,17.626-24.776,17.626Z" transform="translate(-177.266 -54.615)" fill="#1d80e6"/>
      <path id="Path_5052" data-name="Path 5052" d="M251.484,109.071s-45.12,3.621-43.57,32.971c1.761,33.339,9.525,38.74,13.139,40.218s14.067,3.438,23.175,2.811a80.4,80.4,0,0,0,16.349-2.862s-7.251-43.834-7.607-47.5S251.484,109.071,251.484,109.071Z" transform="translate(-188.805 -39.533)" fill="#1d80e6"/>
      <path id="Path_5053" data-name="Path 5053" d="M246.3,105.4s-5.868-.135-4.044,16.7c1.834,16.936,8.893,61.188,8.893,61.188s.52,3.458,4.928,3.024c6.6-.65,2.468-16.275,2.468-16.275l-6.9-60.956S250.791,103.952,246.3,105.4Z" transform="translate(-179.38 -40.62)" fill="#4c5fce"/>
      <path id="Path_5054" data-name="Path 5054" d="M244.371,123.023a28.906,28.906,0,0,1,7.837-.452c-.373-6.676-.724-13.5-.724-13.5s-45.079,4.02-43.57,32.971c.209,4.034.553,7.655.936,10.912a1.414,1.414,0,0,0,2.816-.092l.013-.155c.535-6.745,2.43-13.633,6.893-18.718C224.868,126.817,234.943,124.515,244.371,123.023Z" transform="translate(-188.805 -39.533)" fill="#dfe4f2" opacity="0.2" style="mix-blend-mode: overlay;isolation: isolate"/>
      <path id="Path_5055" data-name="Path 5055" d="M312.617,54.794l-.046-.005c1.825,5.824,3.974,12.9,5.055,17.257,2.093,8.423,3.168,113.423-2.991,120.453-2.919,3.332-6.2-1.605-8.93-7.712,1.144,9.383,2.692,17.848,4.865,22.838,1.285,2.95,2.877,3.343,4.632,3.485,12,.971,11.565-52.217,11.565-52.217l-1.5-55.483q-.034-3.726-.393-7.429c-.6-6.187-.792-19-1.126-21.321C323.3,71.5,321.9,54.831,312.617,54.794Z" transform="translate(-161.71 -54.567)" fill="#4c5fce" opacity="0.15" style="mix-blend-mode: multiply;isolation: isolate"/>
      <path id="Path_5056" data-name="Path 5056" d="M256.394,165.507c14.713-1.906,30.178,5.467,44.046,10.739,9.285,3.531,19.95,6.491,29.734,4.13" transform="translate(-175.368 -23.988)" fill="none" stroke="#444c73" stroke-linecap="round" stroke-width="0.694"/>
      <path id="Path_5057" data-name="Path 5057" d="M329.076,54.826a20.468,20.468,0,0,0-13.388,7.6c-3.268,4.278-5.524,9.222-8.166,13.911-12.168,21.586-34.457,40.4-58.386,46.838" transform="translate(-177.378 -54.556)" fill="none" stroke="#444c73" stroke-linecap="round" stroke-width="0.694"/>
      <path id="Path_5058" data-name="Path 5058" d="M260.57,182.209a74.669,74.669,0,0,1-26.293,2.771c-6.512-.582-15.094-1.941-19.142-7.738a28.572,28.572,0,0,1-3.75-8.922,105.6,105.6,0,0,1-3.468-25.022,28.022,28.022,0,0,1,4.028-15.811c8.007-12.989,26.259-17.914,39.532-18.415" transform="translate(-188.798 -39.533)" fill="none" stroke="#444c73" stroke-linecap="round" stroke-width="0.694"/>
      <path id="Path_5059" data-name="Path 5059" d="M211.494,129.266c-6.21,1.726-13.209,3.969-13.25,8.012s.95,8.015,1.937,11.934q2.117,8.413,4.232,16.823c1.1,4.363,2.954,9.5,7.354,10.442,2.73.584,5.468-.744,7.944-2.034" transform="translate(-191.473 -33.94)" fill="none" stroke="#444c73" stroke-linecap="round" stroke-width="0.694"/>
      <path id="Path_5060" data-name="Path 5060" d="M205.3,160.744l-4.721,1.168a3.195,3.195,0,0,1-4.745-2.613q-1.1-3.545-2.189-7.091c-.511-1.652-1.022-3.443-.457-5.077.485-1.4,5.908-3.911,7.376-4.137" transform="translate(-192.942 -30.138)" fill="none" stroke="#444c73" stroke-linecap="round" stroke-width="0.694"/>
      <path id="Path_5061" data-name="Path 5061" d="M279.636,225.025l-4.523-7.212a1.123,1.123,0,0,0-1.741-.245c-2.444,2.325-9.783,5.054-14.349,4.643-5.76-.518-9.793-3.025-7.938-9.458s9.123-10.25,14.849-12.242c10.788-3.756,28.692,13.953,28.157,18.721" transform="translate(-176.964 -14.352)" fill="none" stroke="#444c73" stroke-linecap="round" stroke-width="0.694"/>
      <path id="Path_5062" data-name="Path 5062" d="M283.06,224.338a42.8,42.8,0,0,0,7.533,4.337" transform="translate(-167.983 -7.609)" fill="none" stroke="#444c73" stroke-linecap="round" stroke-width="0.694"/>
      <path id="Path_5063" data-name="Path 5063" d="M275.963,203.318a13.25,13.25,0,0,0-3.771-10.461,10.853,10.853,0,0,0-7.521-2.573,18.7,18.7,0,0,0-5.246.732,18.362,18.362,0,0,0-2.961,1.091,15.662,15.662,0,0,0-4.623,3.177,18.288,18.288,0,0,0-2.878,3.641c-4.684,8.109,6.422,10.811,6.422,10.811" transform="translate(-177.745 -17.04)" fill="none" stroke="#444c73" stroke-linecap="round" stroke-width="0.694"/>
      <path id="Path_5064" data-name="Path 5064" d="M259.222,190.857a13.39,13.39,0,0,1,2.892,3.827,2.841,2.841,0,0,1,.181,1.715,2.212,2.212,0,0,1-.117.365,3.87,3.87,0,0,1-1.019,1.209,62.5,62.5,0,0,1-7.666,5.546.867.867,0,0,1-.6-.257c-1.327-1.055-2.784-3.324-4.13-4.5a1.845,1.845,0,0,0-.216-.189" transform="translate(-177.542 -16.881)" fill="none" stroke="#444c73" stroke-linecap="round" stroke-width="0.694"/>
      <path id="Path_5065" data-name="Path 5065" d="M270.635,223.649a12.064,12.064,0,0,1,3.153,3.057,1.208,1.208,0,0,1,.225.439,1.223,1.223,0,0,1-.189.778,15.565,15.565,0,0,1-6.815,6.8" transform="translate(-172.428 -7.799)" fill="none" stroke="#444c73" stroke-linecap="round" stroke-width="0.694"/>
      <path id="Path_5066" data-name="Path 5066" d="M246,167.13s5.059,24.211,10.963,31.386" transform="translate(-178.246 -23.453)" fill="none" stroke="#444c73" stroke-linecap="round" stroke-width="0.694"/>
      <path id="Path_5067" data-name="Path 5067" d="M231.772,211.9c-1.513,3.2-1.638,4.182-2.194,3.489" transform="translate(-182.795 -11.053)" fill="none" stroke="#444c73" stroke-linecap="round" stroke-width="0.694"/>
      <path id="Path_5068" data-name="Path 5068" d="M252.348,208.758l5.453,5.725,9.983-6.331s-3.166-6.4-5.717-6.7" transform="translate(-176.488 -13.948)" fill="none" stroke="#444c73" stroke-linecap="round" stroke-width="0.694"/>
      <path id="Path_5069" data-name="Path 5069" d="M303.192,104.046s28.115-3.255,30.482,19.949c2.966,29.061-29.2,25.653-29.2,25.653Z" transform="translate(-162.407 -40.968)" fill="#e69784"/>
      <path id="Path_5070" data-name="Path 5070" d="M333.457,121.694a21.95,21.95,0,0,0-3.077-9.5c-.368,4.8.3,9.817-1.41,14.325-1.693,4.454-5.638,7.671-9.959,9.309a30.54,30.54,0,0,1-15.034,1.661l.276,9.857S336.423,150.755,333.457,121.694Z" transform="translate(-162.189 -38.668)" fill="#dd4e2a" opacity="0.15" style="mix-blend-mode: multiply;isolation: isolate"/>
      <path id="Path_5071" data-name="Path 5071" d="M302.865,104.268c8.77-1.917,21.223,1.52,26.826,8.533s5.425,20.246.423,27.7c-5.518,8.224-14.969,8.594-24.8,9.766" transform="translate(-162.497 -41.009)" fill="none" stroke="#444c73" stroke-linecap="round" stroke-width="0.694"/>
      <path id="Path_5072" data-name="Path 5072" d="M254.28,152.016l2.7,17.57a78.645,78.645,0,0,1,29.18,4.987c14.866,5.753,29.733,13.234,43.286,10.038.165-.083-4.84.985-7.013-12.909-.337-2.156-.737-4.683-1.171-7.48a31.333,31.333,0,0,1-11.571.2c-11.488-1.9-21.295-9.412-32.532-12.466A44.014,44.014,0,0,0,254.28,152.016Z" transform="translate(-175.953 -28.067)" fill="#4c5fce" opacity="0.15" style="mix-blend-mode: multiply;isolation: isolate"/>
      <path id="Path_5073" data-name="Path 5073" d="M326.993,123.629c-1.951-47.895-2.652-68.727-12.773-68.8a6.032,6.032,0,0,0-5.146,2.909,15.9,15.9,0,0,0-1.725,5.969,424,424,0,0,0,2.324,138.256,16.369,16.369,0,0,0,2.06,6.238c1.222,1.836,3.435,3.195,5.6,2.747,2.429-.5,4.2-2.837,4.9-5.218,4.454-15.092,4.114-32.994,5.524-48.873" transform="translate(-162.522 -54.556)" fill="none" stroke="#444c73" stroke-linecap="round" stroke-width="0.694"/>
      <path id="Path_5074" data-name="Path 5074" d="M315.228,62.945c-6.8,10.6-16.651,28.721-26.074,36.771s-24.776,17.626-24.776,17.626l-14.84,5.742,2.226,25.358c6.911,1.9,14.891-.022,19.675-5.363,7.248-8.095,6.206-21.383,13.731-29.222,7.008-7.3,19.508-7.72,25.5-15.876,5.14-7,3.389-16.751,5.588-25.151a26.95,26.95,0,0,1,6.382-11.508c.72-2.533,2.185-5.786,5.124-6.469C331.85,53.9,319.91,55.644,315.228,62.945Z" transform="translate(-177.266 -54.615)" fill="#1d80e6" opacity="0.2" style="mix-blend-mode: overlay;isolation: isolate"/>
      <path id="Path_5075" data-name="Path 5075" d="M251.536,184.467c1.112,3.076,9.429,3.007,8.216-4.642-2.674-16.849-6.415-46.134-8.146-66.939-.244-2.94-.264-7.548-3.212-7.63-2.67-.075-4.564.733-5.6,2.76s-1.022,4.405-.956,6.68C242.481,137.06,250.779,182.373,251.536,184.467Z" transform="translate(-179.405 -40.591)" fill="none" stroke="#444c73" stroke-linecap="round" stroke-width="0.694"/>
      <path id="Path_5076" data-name="Path 5076" d="M237.8,162.752a33.365,33.365,0,0,1-23.432-7.958,18.892,18.892,0,0,0-4.358-2.945c3.131,14.344,7.834,17.492,10.454,18.563,3.614,1.479,14.067,3.436,23.176,2.811a80.4,80.4,0,0,0,16.349-2.862s-1.13-6.829-2.518-15.316c-2.035,1.277-4.008,2.675-6.11,3.841A31.885,31.885,0,0,1,237.8,162.752Z" transform="translate(-188.215 -27.685)" fill="#dd4e2a" opacity="0.15" style="mix-blend-mode: multiply;isolation: isolate"/>
      <g id="Group_7256" data-name="Group 7256" transform="translate(38.064 107.95)">
        <g id="Group_7255" data-name="Group 7255">
          <g id="Group_7254" data-name="Group 7254">
            <path id="Path_5077" data-name="Path 5077" d="M222.75,139.152" transform="translate(-222.75 -139.152)" fill="none" stroke="#dd4e2a" stroke-width="0.937"/>
          </g>
        </g>
      </g>
      <g id="Group_7257" data-name="Group 7257" transform="translate(23.663 140.726)" opacity="0.15" style="mix-blend-mode: multiply;isolation: isolate">
        <path id="Path_5078" data-name="Path 5078" d="M249.574,175.769a265.591,265.591,0,0,0,10.1,29.143,5.55,5.55,0,0,1,.493-.612,38.791,38.791,0,0,1,6.368-5.145S257.555,182.472,255.7,168.4c-.148-1.449-29.177,5.6-39.242-3.574A47.155,47.155,0,0,1,211.8,166.2c-.2.248-.331.4-.331.4s8.212,11.655,21.445,10.862S249.574,175.769,249.574,175.769Z" transform="translate(-211.472 -164.819)" fill="#4c5fce"/>
        <path id="Path_5079" data-name="Path 5079" d="M270.109,229.32c1.452-2.092,7.111-8.046,7.111-8.046s-5.008-7.769-5.283-7.742a40.564,40.564,0,0,1-6.976,3.379,32.307,32.307,0,0,1-5.61,1.153,140.176,140.176,0,0,0,9.142,13.915A19.746,19.746,0,0,1,270.109,229.32Z" transform="translate(-198.211 -151.327)" fill="#4c5fce"/>
        <path id="Path_5080" data-name="Path 5080" d="M286.967,238.639l-5.917-6.951s-6.03,2.8-9.584,2.422c-.132-.014-.238-.022-.361-.033a76.312,76.312,0,0,0,6.35,6.261,8.16,8.16,0,0,0,5.961,1.946Z" transform="translate(-194.956 -146.298)" fill="#4c5fce"/>
      </g>
      <path id="Path_5081" data-name="Path 5081" d="M285.44,263.166c-2.2-.409-4.7.765-6.594-.423-2.173-1.361-1.785-4.54-1.694-7.1.148-4.172-1.669-8.8-5.54-10.36-1.864-.752-3.941-.7-5.922-1.038A15.427,15.427,0,0,1,255.4,237.43c-3.766-5.894-3.057-13.44-3.392-20.426a62.393,62.393,0,0,0-3.212-16.982,28.331,28.331,0,0,0-4.107-8.277c-3.845-5.007-10.052-7.7-16.257-8.856a36.757,36.757,0,0,0-11.79-.315,14.643,14.643,0,0,0-1.919.314c3.047,7.056,6.394,13.237,12.883,23.534,11.714,18.587,10.922,17.526,10.922,17.526s29.265,39.487,39.882,45.5c-.3.381,2.318,3.217,4.745,2.522,1.139-.327,3.721-2.862,6.143-5.46A5.5,5.5,0,0,0,285.44,263.166Z" transform="translate(-186.908 -19.268)" fill="#1d80e6" opacity="0.2" style="mix-blend-mode: overlay;isolation: isolate"/>
      <path id="Path_5082" data-name="Path 5082" d="M208.834,166.237c5.626,32.158,56.954,99.229,71.512,107.964,3.979-5.181,15.2-17.156,20.342-21.191" transform="translate(-188.54 -23.7)" fill="none" stroke="#444c73" stroke-linecap="round" stroke-width="0.694"/>
    </g>
  </g>
</svg>
