<svg width="29" height="29" viewBox="0 0 29 29" fill="none" xmlns="http://www.w3.org/2000/svg">
<g clip-path="url(#clip0_85_759)">
<path d="M14.5 29C22.5081 29 29 22.5081 29 14.5C29 6.49187 22.5081 0 14.5 0C6.49187 0 0 6.49187 0 14.5C0 22.5081 6.49187 29 14.5 29Z" fill="#3C5A9A"/>
<path d="M19.2148 4.45312H16.0027C14.0965 4.45312 11.9763 5.25483 11.9763 8.01791C11.9856 8.98067 11.9763 9.90271 11.9763 10.9404H9.77112V14.4495H12.0445V24.5516H16.2221V14.3828H18.9794L19.2289 10.9306H16.1501C16.1501 10.9306 16.157 9.39484 16.1501 8.94886C16.1501 7.85696 17.2863 7.91949 17.3546 7.91949C17.8953 7.91949 18.9465 7.92106 19.2164 7.91949V4.45312H19.2148Z" fill="white"/>
</g>
<defs>
<clipPath id="clip0_85_759">
<rect width="29" height="29" fill="white"/>
</clipPath>
</defs>
</svg>
