<svg xmlns="http://www.w3.org/2000/svg" width="344.34" height="256.608" viewBox="0 0 344.34 256.608">
  <g id="Group_2242" data-name="Group 2242" transform="translate(0 -54.953)">
    <g id="Background_Complete" data-name="Background Complete" transform="translate(0 54.953)">
      <g id="Group_2223" data-name="Group 2223">
        <rect id="Rectangle_503" data-name="Rectangle 503" width="344.34" height="0.172" transform="translate(0 225.505)" fill="#ebebeb"/>
        <rect id="Rectangle_504" data-name="Rectangle 504" width="17.533" height="0.172" transform="translate(199.861 230.195)" fill="#ebebeb"/>
        <rect id="Rectangle_505" data-name="Rectangle 505" width="41.55" height="0.172" transform="translate(272.105 233.922)" fill="#ebebeb"/>
        <rect id="Rectangle_506" data-name="Rectangle 506" width="42.928" height="0.172" transform="translate(153.203 230.281)" fill="#ebebeb"/>
        <rect id="Rectangle_507" data-name="Rectangle 507" width="8.981" height="0.172" transform="translate(116.387 235.433)" fill="#ebebeb"/>
        <rect id="Rectangle_508" data-name="Rectangle 508" width="40.891" height="0.172" transform="translate(134.091 235.433)" fill="#ebebeb"/>
        <rect id="Rectangle_509" data-name="Rectangle 509" width="26.482" height="0.172" transform="translate(36.128 232.526)" fill="#ebebeb"/>
        <path id="Path_203" data-name="Path 203" d="M175.122,249.744H42.138a3.936,3.936,0,0,1-3.931-3.931V58.883a3.935,3.935,0,0,1,3.931-3.93H175.122a3.935,3.935,0,0,1,3.93,3.93v186.93A3.936,3.936,0,0,1,175.122,249.744ZM42.138,55.125a3.763,3.763,0,0,0-3.759,3.758v186.93a3.763,3.763,0,0,0,3.759,3.759H175.122a3.763,3.763,0,0,0,3.758-3.759V58.883a3.762,3.762,0,0,0-3.758-3.758Z" transform="translate(-11.895 -54.953)" fill="#ebebeb"/>
        <path id="Path_204" data-name="Path 204" d="M391.418,249.744H258.435a3.935,3.935,0,0,1-3.93-3.931V58.883a3.935,3.935,0,0,1,3.93-3.93H391.418a3.935,3.935,0,0,1,3.932,3.93v186.93A3.936,3.936,0,0,1,391.418,249.744ZM258.435,55.125a3.762,3.762,0,0,0-3.758,3.758v186.93a3.763,3.763,0,0,0,3.758,3.759H391.418a3.763,3.763,0,0,0,3.76-3.759V58.883a3.763,3.763,0,0,0-3.76-3.758Z" transform="translate(-79.232 -54.953)" fill="#ebebeb"/>
      </g>
      <g id="Group_2232" data-name="Group 2232" transform="translate(37.419 16.846)">
        <g id="Group_2226" data-name="Group 2226" transform="translate(15.856 116.906)">
          <g id="Group_2224" data-name="Group 2224" transform="translate(33.176)">
            <path id="Path_205" data-name="Path 205" d="M174.035,281.19H128.306l-2.776-32.024h45.729Z" transform="translate(-125.53 -249.167)" fill="#e6e6e6"/>
            <path id="Path_206" data-name="Path 206" d="M177.475,281.19H131.746l-2.776-32.024H174.7Z" transform="translate(-126.601 -249.167)" fill="#f0f0f0"/>
            <path id="Path_207" data-name="Path 207" d="M141.388,277.422l-1.524-18.27h31.975l1.524,18.27Z" transform="translate(-129.992 -252.275)" fill="#fff"/>
          </g>
          <g id="Group_2225" data-name="Group 2225" transform="translate(0 32.024)">
            <rect id="Rectangle_510" data-name="Rectangle 510" width="5.365" height="59.729" transform="translate(86.596)" fill="#e6e6e6"/>
            <rect id="Rectangle_511" data-name="Rectangle 511" width="3.726" height="59.729" transform="translate(89.928)" fill="#f0f0f0"/>
            <rect id="Rectangle_512" data-name="Rectangle 512" width="51.933" height="6.592" transform="translate(93.655 6.592) rotate(180)" fill="#f0f0f0"/>
            <rect id="Rectangle_513" data-name="Rectangle 513" width="5.366" height="53.137" transform="translate(38.192 6.592)" fill="#e6e6e6"/>
            <rect id="Rectangle_514" data-name="Rectangle 514" width="3.726" height="53.137" transform="translate(41.525 6.592)" fill="#f0f0f0"/>
            <rect id="Rectangle_515" data-name="Rectangle 515" width="5.366" height="53.137" transform="translate(0 6.592)" fill="#e6e6e6"/>
            <rect id="Rectangle_516" data-name="Rectangle 516" width="3.726" height="53.137" transform="translate(3.332 6.592)" fill="#f0f0f0"/>
            <rect id="Rectangle_517" data-name="Rectangle 517" width="5.366" height="53.137" transform="translate(52.642 6.592)" fill="#e6e6e6"/>
            <rect id="Rectangle_518" data-name="Rectangle 518" width="3.726" height="53.137" transform="translate(55.974 6.592)" fill="#f0f0f0"/>
            <rect id="Rectangle_519" data-name="Rectangle 519" width="41.722" height="6.592" fill="#e6e6e6"/>
          </g>
        </g>
        <g id="Group_2228" data-name="Group 2228" transform="translate(51.771)">
          <g id="Group_2227" data-name="Group 2227">
            <rect id="Rectangle_520" data-name="Rectangle 520" width="161.379" height="89.842" fill="#e0e0e0"/>
            <rect id="Rectangle_521" data-name="Rectangle 521" width="169.426" height="89.842" transform="translate(0.814)" fill="#f5f5f5"/>
            <rect id="Rectangle_522" data-name="Rectangle 522" width="84.306" height="163.889" transform="translate(167.472 2.768) rotate(90)" fill="#fff"/>
            <path id="Path_208" data-name="Path 208" d="M207.981,167.739l30.942-84.306H187.858l-30.942,84.306Z" transform="translate(-138.041 -80.665)" fill="#f5f5f5"/>
            <path id="Path_209" data-name="Path 209" d="M285.027,167.739l30.942-84.306H277.447L246.5,167.739Z" transform="translate(-165.932 -80.665)" fill="#f5f5f5"/>
          </g>
        </g>
        <g id="Group_2230" data-name="Group 2230" transform="translate(124.101 122.854)">
          <g id="Group_2229" data-name="Group 2229">
            <rect id="Rectangle_523" data-name="Rectangle 523" width="13.718" height="85.806" transform="translate(126.481)" fill="#e6e6e6"/>
            <path id="Path_210" data-name="Path 210" d="M431.164,379.412h3.607V372.8h-7.389Z" transform="translate(-294.572 -293.605)" fill="#fafafa"/>
            <rect id="Rectangle_524" data-name="Rectangle 524" width="13.718" height="85.806" fill="#e6e6e6"/>
            <rect id="Rectangle_525" data-name="Rectangle 525" width="129.629" height="84.024" transform="translate(10.57)" fill="#fafafa"/>
            <path id="Path_211" data-name="Path 211" d="M378.167,286.442H253.446V262.711H378.167Zm-124.033-.689H377.479V263.4H254.135Z" transform="translate(-240.422 -259.331)" fill="#e6e6e6"/>
            <path id="Path_212" data-name="Path 212" d="M362.778,275.576H284.391c-3.64,0-7.145-2.937-9.614-8.056l-.238-.494h98.092l-.238.494C369.924,272.639,366.419,275.576,362.778,275.576Zm-87.136-7.861c2.33,4.567,5.5,7.173,8.749,7.173h78.387c3.251,0,6.419-2.606,8.75-7.173Z" transform="translate(-246.989 -260.674)" fill="#e6e6e6"/>
            <path id="Path_213" data-name="Path 213" d="M253.49,379.412h-3.607V372.8h7.389Z" transform="translate(-239.313 -293.605)" fill="#fafafa"/>
            <path id="Path_214" data-name="Path 214" d="M378.167,325.308H253.446V301.577H378.167Zm-124.033-.689H377.479V302.266H254.135Z" transform="translate(-240.422 -271.431)" fill="#e6e6e6"/>
            <path id="Path_215" data-name="Path 215" d="M362.778,314.442H284.391c-3.64,0-7.145-2.936-9.614-8.056l-.238-.494h98.092l-.238.494C369.924,311.506,366.419,314.442,362.778,314.442Zm-87.136-7.861c2.33,4.567,5.5,7.173,8.749,7.173h78.387c3.251,0,6.419-2.606,8.75-7.173Z" transform="translate(-246.989 -272.774)" fill="#e6e6e6"/>
            <path id="Path_216" data-name="Path 216" d="M378.167,364.174H253.446V340.443H378.167Zm-124.033-.689H377.479V341.132H254.135Z" transform="translate(-240.422 -283.531)" fill="#e6e6e6"/>
            <path id="Path_217" data-name="Path 217" d="M362.778,353.308H284.391c-3.64,0-7.145-2.936-9.614-8.056l-.238-.494h98.092l-.238.494C369.924,350.372,366.419,353.308,362.778,353.308Zm-87.136-7.861c2.33,4.567,5.5,7.173,8.749,7.173h78.387c3.251,0,6.419-2.606,8.75-7.173Z" transform="translate(-246.989 -284.874)" fill="#e6e6e6"/>
          </g>
        </g>
        <g id="Group_2231" data-name="Group 2231" transform="translate(0 86.74)">
          <path id="Path_218" data-name="Path 218" d="M113.36,274.283v1.665h-1.066l-.88,13.061H98.443l-.879-13.061H96.5v-1.665Z" transform="translate(-67.46 -226.821)" fill="#e6e6e6"/>
          <path id="Path_219" data-name="Path 219" d="M95.965,220.41c-1.067-7.78-11.566-10-24.89-10.288-12.679-.271-16.74-4.757-16.74-4.757s.04,18.167,18.31,24.744C89.993,236.355,97.033,228.2,95.965,220.41Z" transform="translate(-54.334 -205.365)" fill="#e6e6e6"/>
          <path id="Path_220" data-name="Path 220" d="M105.365,248.719c.222-3.2,5.332-9.081,17.621-6.408,8.886,1.933,12.19-2.673,12.19-2.673s-.823,13-14.188,16.911C108.3,260.261,104.973,254.347,105.365,248.719Z" transform="translate(-70.212 -216.035)" fill="#e6e6e6"/>
          <path id="Path_221" data-name="Path 221" d="M107.871,263.7a.473.473,0,0,0,.362-.168c.891-1.053.162-3.574-.846-7.065-1.295-4.479-2.906-10.053-1.541-14.1a56.863,56.863,0,0,1,2.644-6.248c1.929-4.08,3.595-7.6,2.206-11.282a.474.474,0,0,0-.887.335c1.247,3.3-.263,6.5-2.176,10.542a58.405,58.405,0,0,0-2.685,6.35c-1.459,4.329.2,10.061,1.528,14.667.785,2.716,1.6,5.524,1.034,6.189a.474.474,0,0,0,.362.78Z" transform="translate(-69.914 -211.33)" fill="#e6e6e6"/>
        </g>
      </g>
    </g>
    <g id="Shadow" transform="translate(38.643 295.965)">
      <ellipse id="_Path_" data-name="&lt;Path&gt;" cx="133.528" cy="7.798" rx="133.528" ry="7.798" fill="#f5f5f5"/>
    </g>
    <g id="Login" transform="translate(68.997 103.602)">
      <g id="Group_2235" data-name="Group 2235" transform="translate(0 0)">
        <path id="Path_222" data-name="Path 222" d="M203.333,289.953H105.54l-5.353-157.272H197.98Z" transform="translate(-100.188 -127.8)" fill="#407bff"/>
        <g id="Group_2233" data-name="Group 2233" transform="translate(4.88)">
          <path id="Path_223" data-name="Path 223" d="M210.42,282.866H112.627l-5.353-157.272h97.793Z" transform="translate(-107.274 -125.594)" fill="#407bff"/>
          <path id="Path_224" data-name="Path 224" d="M210.42,282.866H112.627l-5.353-157.272h97.793Z" transform="translate(-107.274 -125.594)" fill="#fff" opacity="0.3"/>
        </g>
        <g id="Group_2234" data-name="Group 2234" transform="translate(16.4 6.207)">
          <ellipse id="Ellipse_13" data-name="Ellipse 13" cx="27.044" cy="27.98" rx="27.044" ry="27.98" transform="matrix(0.701, -0.713, 0.713, 0.701, 0, 38.569)" fill="#407bff"/>
          <path id="Path_225" data-name="Path 225" d="M192.937,180.826a22.035,22.035,0,0,1-2.376,10.814,21.764,21.764,0,0,1-19.554,11.889,23.615,23.615,0,0,1-20.364-11.889,23.123,23.123,0,0,1-3.111-10.814,21.793,21.793,0,0,1,21.93-22.7A23.659,23.659,0,0,1,192.937,180.826Z" transform="translate(-131.322 -141.928)" fill="#fff"/>
          <path id="Path_226" data-name="Path 226" d="M191.974,204.058a21.764,21.764,0,0,1-19.554,11.889,23.615,23.615,0,0,1-20.364-11.889,34.817,34.817,0,0,1,19.754-6.047A36.794,36.794,0,0,1,191.974,204.058Z" transform="translate(-132.735 -154.346)" fill="#407bff" opacity="0.6"/>
          <ellipse id="Ellipse_14" data-name="Ellipse 14" cx="9.942" cy="10.287" rx="9.942" ry="10.287" transform="matrix(0.701, -0.713, 0.713, 0.701, 24.342, 31.009)" fill="#407bff" opacity="0.6"/>
        </g>
        <path id="Path_227" data-name="Path 227" d="M200.133,265.657H137.749l-.422-12.4h62.384Z" transform="translate(-111.75 -165.339)" fill="#fff"/>
        <path id="Path_228" data-name="Path 228" d="M201.228,297.831H138.844l-.422-12.4h62.384Z" transform="translate(-112.091 -175.356)" fill="#fff"/>
        <path id="Path_229" data-name="Path 229" d="M187.443,287.9l-15.033,2.044a1.049,1.049,0,0,0-.907,1.244l1.974,10.074a1.207,1.207,0,0,0,1.335.94l15.033-2.045a1.047,1.047,0,0,0,.907-1.244l-1.974-10.074A1.209,1.209,0,0,0,187.443,287.9Zm-4.319,10.206-2.722.371-.274-3.252a1.916,1.916,0,0,1-1.117-1.374,1.711,1.711,0,0,1,1.483-2.035,1.97,1.97,0,0,1,2.179,1.537,1.676,1.676,0,0,1-.534,1.6Z" transform="translate(-122.383 -176.121)" fill="#407bff"/>
        <path id="Path_230" data-name="Path 230" d="M186.239,283.365h0a1.069,1.069,0,0,1-1.185-.834l-.194-.986a5.668,5.668,0,0,0-5.936-4.518,4.849,4.849,0,0,0-4.454,5.781l.222,1.132a.928.928,0,0,1-.805,1.1h0a1.068,1.068,0,0,1-1.185-.833l-.188-.961a6.783,6.783,0,0,1,5.492-8.089,7.709,7.709,0,0,1,8.814,5.967l.222,1.132A.929.929,0,0,1,186.239,283.365Z" transform="translate(-122.663 -172.123)" fill="#407bff"/>
        <path id="Path_231" data-name="Path 231" d="M196.186,324.991H155.579l-.275-8.069h40.607Z" transform="translate(-117.346 -185.158)" fill="#407bff"/>
        <path id="Path_232" data-name="Path 232" d="M184.167,261.236a2.177,2.177,0,0,1-2.19,2.267,2.364,2.364,0,0,1-2.345-2.267,2.177,2.177,0,0,1,2.191-2.267A2.363,2.363,0,0,1,184.167,261.236Z" transform="translate(-124.92 -167.116)" fill="#263238"/>
        <path id="Path_233" data-name="Path 233" d="M169.994,261.236a2.177,2.177,0,0,1-2.19,2.267,2.363,2.363,0,0,1-2.345-2.267,2.177,2.177,0,0,1,2.19-2.267A2.363,2.363,0,0,1,169.994,261.236Z" transform="translate(-120.507 -167.116)" fill="#263238"/>
        <path id="Path_234" data-name="Path 234" d="M155.821,261.236a2.177,2.177,0,0,1-2.191,2.267,2.363,2.363,0,0,1-2.344-2.267,2.177,2.177,0,0,1,2.19-2.267A2.363,2.363,0,0,1,155.821,261.236Z" transform="translate(-116.095 -167.116)" fill="#263238"/>
        <path id="Path_235" data-name="Path 235" d="M198.341,261.236a2.177,2.177,0,0,1-2.19,2.267,2.363,2.363,0,0,1-2.344-2.267,2.177,2.177,0,0,1,2.19-2.267A2.363,2.363,0,0,1,198.341,261.236Z" transform="translate(-129.332 -167.116)" fill="#263238"/>
        <path id="Path_236" data-name="Path 236" d="M212.514,261.236a2.177,2.177,0,0,1-2.191,2.267,2.363,2.363,0,0,1-2.344-2.267,2.177,2.177,0,0,1,2.19-2.267A2.364,2.364,0,0,1,212.514,261.236Z" transform="translate(-133.745 -167.116)" fill="#263238"/>
      </g>
    </g>
    <g id="Character" transform="translate(190.315 104.951)">
      <g id="Group_2240" data-name="Group 2240" transform="translate(0 0)">
        <path id="Path_237" data-name="Path 237" d="M331.069,174.28c.919,1.47,1.678,2.882,2.465,4.347s1.494,2.942,2.19,4.446a63.971,63.971,0,0,1,3.512,9.456c.123.408.216.84.318,1.264l.151.638.075.318.089.525a9.2,9.2,0,0,1-.215,3.547,20.088,20.088,0,0,1-2.142,5.135,40.989,40.989,0,0,1-6.12,8.039l-2.9-2.2a77.056,77.056,0,0,0,3.882-8.29,17.489,17.489,0,0,0,1.051-3.879,3.065,3.065,0,0,0-.056-1.217l-.273-.842c-.113-.346-.213-.689-.35-1.038a76.142,76.142,0,0,0-3.629-8.322c-1.355-2.742-2.856-5.533-4.334-8.138Z" transform="translate(-291.426 -142.099)" fill="#ff8b7b"/>
        <path id="Path_238" data-name="Path 238" d="M329.806,224.425l-3.162,1.679,3.636,4.256a5.637,5.637,0,0,0,2.371-3.879Z" transform="translate(-292.006 -157.71)" fill="#ff8b7b"/>
        <path id="Path_239" data-name="Path 239" d="M320.466,229.487l3.9,3.091,3.995-1.458-3.635-4.256Z" transform="translate(-290.082 -158.469)" fill="#ff8b7b"/>
        <path id="Path_240" data-name="Path 240" d="M300.732,141.207c-.078.383-.344.651-.594.6s-.39-.4-.312-.785.344-.652.594-.6S300.809,140.824,300.732,141.207Z" transform="translate(-283.65 -131.557)" fill="#263238"/>
        <path id="Path_241" data-name="Path 241" d="M299.575,142.522a13.983,13.983,0,0,1-2.5,2.9,2.252,2.252,0,0,0,1.76.715Z" transform="translate(-282.802 -132.212)" fill="#ff5652"/>
        <path id="Path_242" data-name="Path 242" d="M298.9,160.1l.03-4.514,5.978.722s-.1,3.881-3.441,5.023Z" transform="translate(-283.369 -136.279)" fill="#ff8b7b"/>
        <path id="Path_243" data-name="Path 243" d="M300.633,150.864l4.209,1.209.08,2.764-5.978-.722Z" transform="translate(-283.382 -134.809)" fill="#ff8b7b"/>
        <path id="Path_244" data-name="Path 244" d="M305.237,152.072l-4.208-1.212-.82,1.57a6.7,6.7,0,0,0,3.884,5.84,6.584,6.584,0,0,0,1.219-3.437Z" transform="translate(-283.776 -134.808)" opacity="0.2"/>
        <path id="Path_245" data-name="Path 245" d="M302.922,138.366a.226.226,0,0,0,.156-.061.229.229,0,0,0,.013-.324,2.277,2.277,0,0,0-1.952-.76.229.229,0,0,0,.076.452h0a1.82,1.82,0,0,1,1.539.618A.229.229,0,0,0,302.922,138.366Z" transform="translate(-284.006 -130.557)" fill="#263238"/>
        <path id="Path_246" data-name="Path 246" d="M311.778,151.683c-.695,3.544-1.114,8.454,1.365,10.818,0,0-.969,3.595-7.553,3.595-7.241,0-3.483-3.155-3.483-3.155,3.01-.935,2.983-4.363,2.3-7.116Z" transform="translate(-284.063 -135.064)" fill="#ff8b7b"/>
        <path id="Path_247" data-name="Path 247" d="M314.608,168.6c.645-.913.618-3.8-.07-4.307-1.112-.822-5.865-1.011-12.27.462a4.517,4.517,0,0,1-.787,4.259Z" transform="translate(-284.172 -138.793)" fill="#407bff"/>
        <path id="Path_248" data-name="Path 248" d="M351.185,407.774a1.56,1.56,0,0,1-1.206-.066.468.468,0,0,1-.111-.533.531.531,0,0,1,.3-.337c.654-.312,2.157.3,2.221.326a.116.116,0,0,1,.071.1.114.114,0,0,1-.065.107A6.1,6.1,0,0,1,351.185,407.774ZM350.4,407a.621.621,0,0,0-.135.045.307.307,0,0,0-.174.2c-.061.207.015.271.041.293.26.222,1.227.017,1.909-.256A3.783,3.783,0,0,0,350.4,407Z" transform="translate(-299.225 -214.471)" fill="#407bff"/>
        <path id="Path_249" data-name="Path 249" d="M352.7,406.786a.11.11,0,0,1-.056,0c-.548-.16-1.72-.992-1.734-1.541a.375.375,0,0,1,.294-.371.625.625,0,0,1,.508.041c.647.331,1.056,1.672,1.074,1.729a.116.116,0,0,1-.028.114A.119.119,0,0,1,352.7,406.786Zm-1.37-1.712a.458.458,0,0,0-.05.014c-.142.05-.14.119-.139.149.008.325.781.978,1.348,1.242a2.768,2.768,0,0,0-.88-1.363A.408.408,0,0,0,351.328,405.074Z" transform="translate(-299.56 -213.876)" fill="#407bff"/>
        <path id="Path_250" data-name="Path 250" d="M299.188,408.89c-.621,0-1.222-.085-1.423-.365a.434.434,0,0,1,.01-.5.57.57,0,0,1,.364-.268c.806-.22,2.5.745,2.571.786a.115.115,0,0,1-.035.212A8.534,8.534,0,0,1,299.188,408.89Zm-.768-.939a.856.856,0,0,0-.222.026.347.347,0,0,0-.225.16c-.081.143-.052.214-.023.254.226.313,1.45.32,2.35.193A5.179,5.179,0,0,0,298.42,407.95Z" transform="translate(-282.992 -214.775)" fill="#407bff"/>
        <path id="Path_251" data-name="Path 251" d="M301.218,408.231a.113.113,0,0,1-.047-.01c-.585-.262-1.743-1.31-1.654-1.857.021-.129.112-.289.427-.321a.836.836,0,0,1,.636.2,3.276,3.276,0,0,1,.752,1.866.114.114,0,0,1-.047.1A.119.119,0,0,1,301.218,408.231Zm-1.182-1.964a.575.575,0,0,0-.069,0c-.207.021-.22.1-.224.129-.053.328.734,1.152,1.331,1.51a2.689,2.689,0,0,0-.64-1.494A.61.61,0,0,0,300.036,406.267Z" transform="translate(-283.559 -214.25)" fill="#407bff"/>
        <path id="Path_252" data-name="Path 252" d="M307.316,403.985h-4.844l-.482-11.218h4.844Z" transform="translate(-284.33 -210.119)" fill="#ff8b7b"/>
        <path id="Path_253" data-name="Path 253" d="M357.06,401.077l-4.734,1.025-4.753-10.448,4.734-1.025Z" transform="translate(-298.521 -209.453)" fill="#ff8b7b"/>
        <path id="Path_254" data-name="Path 254" d="M350.7,406.073l5.319-1.151a.422.422,0,0,1,.473.236l1.846,4.005a.713.713,0,0,1-.511.992c-1.864.37-2.789.457-5.129.963-1.439.311-4.687,1.1-6.675,1.533-1.943.421-2.672-1.479-1.9-1.833,3.474-1.587,4.927-2.985,5.867-4.288A1.178,1.178,0,0,1,350.7,406.073Z" transform="translate(-297.355 -213.899)" fill="#263238"/>
        <path id="Path_255" data-name="Path 255" d="M297.448,408.242h5.29a.422.422,0,0,1,.412.331l.957,4.306a.7.7,0,0,1-.7.862c-1.908-.032-4.666-.144-7.064-.144-2.8,0-5.227.153-8.516.153-1.988,0-2.541-2.01-1.708-2.193,3.789-.828,6.883-.917,10.158-2.936A2.24,2.24,0,0,1,297.448,408.242Z" transform="translate(-279.274 -214.936)" fill="#263238"/>
        <g id="Group_2236" data-name="Group 2236" transform="translate(31.629 28.402)">
          <path id="Path_256" data-name="Path 256" d="M328.4,168.923c4.54,1.041,8.283,12.631,8.283,12.631l-9.117,6.949a19.893,19.893,0,0,1-4.835-8.952C321.169,173.476,323.756,167.859,328.4,168.923Z" transform="translate(-322.274 -168.793)" fill="#407bff"/>
          <path id="Path_257" data-name="Path 257" d="M328.4,168.923c4.54,1.041,8.283,12.631,8.283,12.631l-9.117,6.949a19.893,19.893,0,0,1-4.835-8.952C321.169,173.476,323.756,167.859,328.4,168.923Z" transform="translate(-322.274 -168.793)" opacity="0.4"/>
        </g>
        <path id="Path_258" data-name="Path 258" d="M290.227,179.739c-1.134,1.222-2.263,2.31-3.433,3.43q-.871.834-1.781,1.636l-.915.8-.231.2c-.112.1-.247.209-.393.321a5.781,5.781,0,0,1-1.331.785,4.379,4.379,0,0,1-1.675.346,4.064,4.064,0,0,1-1.446-.257,4.02,4.02,0,0,1-1.378-.876,4.159,4.159,0,0,1-1.08-1.783,4.982,4.982,0,0,1-.2-1.024,6.632,6.632,0,0,1,.014-1.231c.032-.331.077-.616.128-.886a17.33,17.33,0,0,1,.8-2.776,25.818,25.818,0,0,1,1.07-2.49c.437-.877.859-1.513,1.28-2.247a56.209,56.209,0,0,1,5.821-7.89,53.147,53.147,0,0,1,7.06-6.693l2.534,2.609c-1.78,2.381-3.531,4.935-5.149,7.452a81.045,81.045,0,0,0-4.406,7.745c-.3.649-.664,1.359-.87,1.9a19.062,19.062,0,0,0-.646,1.857,13.169,13.169,0,0,0-.391,1.74,2.509,2.509,0,0,0-.023.272c0,.054.012.083.005-.063a1.956,1.956,0,0,0-.089-.451,2.985,2.985,0,0,0-.795-1.28,3.3,3.3,0,0,0-2.294-.93,2.906,2.906,0,0,0-1.111.212,2.828,2.828,0,0,0-.341.17l.264-.241.826-.758L281.7,177.8c1.09-1.027,2.186-2.122,3.222-3.138Z" transform="translate(-276.347 -137.375)" fill="#ff8b7b"/>
        <path id="Path_259" data-name="Path 259" d="M324.6,181.358c2.466,2.44,3.271,6.884,3.461,10.748l-.4.31a19.909,19.909,0,0,1-4.839-8.954c-.092-.363-.171-.726-.238-1.082Z" transform="translate(-290.743 -144.303)" opacity="0.2"/>
        <g id="Group_2237" data-name="Group 2237" transform="translate(8.237 27.275)">
          <path id="Path_260" data-name="Path 260" d="M289.134,173.271c-.99,5.233-1.609,15.979,1.265,37.261h25.909c.178-3.977-2.32-23.379,1.516-42.118a67.58,67.58,0,0,0-8.673-1.1,95.174,95.174,0,0,0-11.014,0c-1.215.112-2.407.286-3.47.474A6.856,6.856,0,0,0,289.134,173.271Z" transform="translate(-288.307 -167.157)" fill="#407bff"/>
          <path id="Path_261" data-name="Path 261" d="M289.134,173.271c-.99,5.233-1.609,15.979,1.265,37.261h25.909c.178-3.977-2.32-23.379,1.516-42.118a67.58,67.58,0,0,0-8.673-1.1,95.174,95.174,0,0,0-11.014,0c-1.215.112-2.407.286-3.47.474A6.856,6.856,0,0,0,289.134,173.271Z" transform="translate(-288.307 -167.157)" opacity="0.4"/>
        </g>
        <path id="Path_262" data-name="Path 262" d="M293.1,186.759l-4.682-1.121c-.145,2.835-.158,6.35.053,10.7C290.628,193.88,293.377,190.056,293.1,186.759Z" transform="translate(-280.072 -145.635)" opacity="0.2"/>
        <g id="Group_2238" data-name="Group 2238" transform="translate(17.66 181.178)">
          <path id="Path_263" data-name="Path 263" d="M301.991,392.772l.248,5.782h4.846l-.248-5.782Z" transform="translate(-301.991 -391.298)" opacity="0.2"/>
          <path id="Path_264" data-name="Path 264" d="M352.31,390.632l-4.736,1.025,2.452,5.385,4.736-1.025Z" transform="translate(-316.182 -390.632)" opacity="0.2"/>
        </g>
        <path id="Path_265" data-name="Path 265" d="M313.4,140.389c-1.244,4.644-1.737,7.425-4.6,9.356-4.31,2.9-9.677-.429-9.845-5.351-.152-4.43,1.909-11.279,6.892-12.215A6.557,6.557,0,0,1,313.4,140.389Z" transform="translate(-283.382 -128.954)" fill="#ff8b7b"/>
        <path id="Path_266" data-name="Path 266" d="M303.822,141.137c-.229-.623-1.3-5.422-.3-6.667s12.473-.35,14.168,1.319c2.813,2.768.862,5.238-2.218,8.425-2.315,2.4-2.4,5.1-3.573,5.494-2.047.695-5.22.042-5.857-2.143S303.822,141.137,303.822,141.137Z" transform="translate(-284.677 -129.524)" fill="#263238"/>
        <path id="Path_267" data-name="Path 267" d="M315.148,128.358c-4.053-1.725-11.651.183-15.754-.806A6.321,6.321,0,0,0,304.632,134a54.03,54.03,0,0,0,10.33.952C319.468,134.769,318.589,129.823,315.148,128.358Z" transform="translate(-283.519 -127.552)" fill="#263238"/>
        <path id="Path_268" data-name="Path 268" d="M323.194,136.489a7.688,7.688,0,0,0,4.286-.822C328.24,137.5,324.074,138,323.194,136.489Z" transform="translate(-290.932 -130.078)" fill="#263238"/>
        <path id="Path_269" data-name="Path 269" d="M305.661,143.78a5.434,5.434,0,0,1-1.361,3.213c-1.056,1.164-2.158.439-2.345-.978-.169-1.275.178-3.417,1.469-4.059C304.7,141.323,305.746,142.343,305.661,143.78Z" transform="translate(-284.307 -131.977)" fill="#ff8b7b"/>
        <path id="Path_270" data-name="Path 270" d="M304.69,230.14s5.5,37.019,8.516,50.887c3.3,15.188,21.026,65.434,21.026,65.434l8.671-1.877s-12.391-40.948-15.165-62.18c-2.13-16.309-6.329-52.265-6.329-52.265Z" transform="translate(-285.171 -159.49)" fill="#407bff"/>
        <path id="Path_271" data-name="Path 271" d="M344.571,393.979c-.037.008,1.616,3.136,1.616,3.136L355.943,395l-.822-2.933Z" transform="translate(-297.586 -209.901)" fill="#263238"/>
        <path id="Path_272" data-name="Path 272" d="M309.088,249.27c6.357,1.247,5.684,24.951,4.919,37.143-1.833-8.618-4.517-25.2-6.35-36.972A2.173,2.173,0,0,1,309.088,249.27Z" transform="translate(-286.095 -165.43)" opacity="0.3"/>
        <path id="Path_273" data-name="Path 273" d="M291.19,230.14s-.667,36.218-.141,50.99c.548,15.364,5.915,65.674,5.915,65.674h8.206s.3-49.411.667-64.5c.4-16.451,2.384-52.162,2.384-52.162Z" transform="translate(-280.861 -159.49)" fill="#407bff"/>
        <path id="Path_274" data-name="Path 274" d="M297.436,394.8c-.038,0,.463,3.407.463,3.407h9.982l.27-3.041Z" transform="translate(-282.912 -210.75)" fill="#263238"/>
        <g id="Group_2239" data-name="Group 2239" transform="translate(1.987 27.947)">
          <path id="Path_275" data-name="Path 275" d="M296.463,175.164c2.322,6.259-11.323,13.632-11.323,13.632l-5.908-7.595s3.941-7.845,8.777-11.38C293.984,165.453,294.694,170.4,296.463,175.164Z" transform="translate(-279.232 -168.133)" fill="#407bff"/>
          <path id="Path_276" data-name="Path 276" d="M296.463,175.164c2.322,6.259-11.323,13.632-11.323,13.632l-5.908-7.595s3.941-7.845,8.777-11.38C293.984,165.453,294.694,170.4,296.463,175.164Z" transform="translate(-279.232 -168.133)" opacity="0.4"/>
        </g>
      </g>
    </g>
    <g id="Thinking" transform="translate(226.411 60.724)">
      <g id="Group_2241" data-name="Group 2241">
        <ellipse id="Ellipse_15" data-name="Ellipse 15" cx="24.852" cy="15.84" rx="24.852" ry="15.84" transform="translate(11.727)" fill="#407bff"/>
        <path id="Path_277" data-name="Path 277" d="M365.711,91.59a6.964,6.964,0,0,1-6.837-5.78,7.037,7.037,0,0,1,5.309-7.965h0a6.926,6.926,0,0,1,7.454,3.11l15.955-3.293a2.5,2.5,0,0,1,2.924,1.72,2.4,2.4,0,0,1-1.839,2.965l-.419.087a.418.418,0,0,0-.288.212.423.423,0,0,0-.024.357l.281.731a1.092,1.092,0,0,1-.424,1.324,1.342,1.342,0,0,0-.618.974,1.065,1.065,0,0,1-.829.956l-.328.067a1.07,1.07,0,0,1-1.14-.548,1.339,1.339,0,0,0-2.486.513,1.068,1.068,0,0,1-.83.955l-.322.066a1.07,1.07,0,0,1-1.139-.548,1.346,1.346,0,0,0-.959-.649,1.092,1.092,0,0,1-.915-1.048l-.032-.783a.415.415,0,0,0-.163-.318.42.42,0,0,0-.349-.082l-5.084,1.05a6.942,6.942,0,0,1-5.476,5.78A7.039,7.039,0,0,1,365.711,91.59Zm-1.376-13.073a6.34,6.34,0,0,0-4.782,7.176,6.268,6.268,0,0,0,12.405-.356l.028-.248,5.568-1.149a1.114,1.114,0,0,1,1.339,1.047l.032.783a.408.408,0,0,0,.328.395,2.017,2.017,0,0,1,1.453.984.392.392,0,0,0,.4.22l.322-.066a.393.393,0,0,0,.285-.362,2.028,2.028,0,0,1,3.766-.777.387.387,0,0,0,.4.219l.328-.067a.388.388,0,0,0,.283-.36,2.009,2.009,0,0,1,.939-1.479.407.407,0,0,0,.145-.492l-.281-.732a1.114,1.114,0,0,1,.816-1.492l.419-.087a1.713,1.713,0,0,0,1.312-2.116,1.8,1.8,0,0,0-2.12-1.218l-16.438,3.392-.123-.217a6.237,6.237,0,0,0-6.833-3Zm1.385,10.527a4.421,4.421,0,1,1,.9-.092h0A4.485,4.485,0,0,1,365.72,89.044Zm.021-8.135a3.8,3.8,0,0,0-.765.079,3.722,3.722,0,0,0,1.505,7.29h0a3.723,3.723,0,0,0-.74-7.369Z" transform="translate(-338.104 -67.778)" fill="#fff"/>
        <ellipse id="Ellipse_16" data-name="Ellipse 16" cx="8.168" cy="5.206" rx="8.168" ry="5.206" transform="translate(8.178 30.553)" fill="#407bff" opacity="0.6"/>
        <ellipse id="Ellipse_17" data-name="Ellipse 17" cx="3.353" cy="2.137" rx="3.353" ry="2.137" transform="translate(0 38.829)" fill="#407bff" opacity="0.3"/>
      </g>
    </g>
  </g>
</svg>
