<svg xmlns="http://www.w3.org/2000/svg" xmlns:xlink="http://www.w3.org/1999/xlink" width="27" height="27" viewBox="0 0 27 27">
  <defs>
    <clipPath id="clip-path">
      <rect id="Frame" width="27" height="27" fill="none" style="mix-blend-mode: normal;isolation: isolate"/>
    </clipPath>
  </defs>
  <g id="Frame-2" data-name="Frame" clip-path="url(#clip-path)" style="mix-blend-mode: normal;isolation: isolate">
    <rect id="Frame-3" data-name="Frame" width="27" height="27" fill="none" style="mix-blend-mode: normal;isolation: isolate"/>
    <g id="Group" transform="translate(-0.018 -0.001)" style="mix-blend-mode: normal;isolation: isolate">
      <path id="Vector" d="M2.76,3.764A13.655,13.655,0,0,1,8.1.64,14.5,14.5,0,0,1,14.017.09,12.923,12.923,0,0,1,20.155,2.4c.49.337.944.728,1.4,1.083-1.325,1.3-2.6,2.556-3.886,3.8-.309-.231-.6-.479-.926-.692a7.563,7.563,0,0,0-4.993-1.278A8.127,8.127,0,0,0,4.975,9.818a10.766,10.766,0,0,0-.454,1.047c-.381-.284-.763-.568-1.144-.87C2.669,9.462,1.961,8.912,1.253,8.38.908,8.113.545,7.847.182,7.6A1.693,1.693,0,0,1,0,7.421,13.4,13.4,0,0,1,2.76,3.764Z" transform="translate(1.434 0)" fill="#c34030" style="mix-blend-mode: normal;isolation: isolate"/>
      <path id="Vector-2" data-name="Vector" d="M5.3,1.615A8.041,8.041,0,0,0,11.276,5.5a8.484,8.484,0,0,0,5.7-1.172.549.549,0,0,1,.145-.071c.272.213.545.408.817.621.327.249.635.515.962.763.527.391,1.053.763,1.58,1.154.327.249.654.515,1,.763A9.7,9.7,0,0,1,19.519,9a14.026,14.026,0,0,1-7.844,1.811A13.66,13.66,0,0,1,4.3,8.325,13.327,13.327,0,0,1,0,3.408l.109-.16H.145c.036-.018.091-.035.127-.053.581-.426,1.162-.852,1.743-1.3C2.814,1.3,3.65.639,4.5,0,4.775.55,4.993,1.118,5.3,1.615Z" transform="translate(1.434 16.137)" fill="#62a053" style="mix-blend-mode: normal;isolation: isolate"/>
      <path id="Vector-3" data-name="Vector" d="M8.08,11.951c-.527-.391-1.053-.763-1.58-1.154-.327-.249-.636-.515-.962-.763-.272-.213-.545-.426-.817-.621a7,7,0,0,0,1.507-1.4A6.534,6.534,0,0,0,7.463,5.241H6.5a.685.685,0,0,0-.254-.071H.218C.109,5.117,0,5.134,0,4.957V0H12.674c.145-.018.218.018.218.178,0,.053.055.089.073.142a14.993,14.993,0,0,1,.2,3.124,15.5,15.5,0,0,1-.527,3.408,12.28,12.28,0,0,1-3.5,5.822c0,.018-.018.018-.054.035C8.752,12.466,8.425,12.2,8.08,11.951Z" transform="translate(13.818 11.021)" fill="#557ce6" style="mix-blend-mode: normal;isolation: isolate"/>
      <path id="Vector-4" data-name="Vector" d="M3.414,10.456c-.581.444-1.162.87-1.743,1.3-.036.035-.091.035-.127.053l-.018-.018v.036H1.507A1.8,1.8,0,0,1,1,10.97c-.145-.355-.236-.728-.363-1.083A3.238,3.238,0,0,1,.309,8.663V8.609C.254,8.29.2,7.988.145,7.669V7.544A6.038,6.038,0,0,1,0,6.568,14.991,14.991,0,0,1,.073,5.006a9.21,9.21,0,0,1,.182-1.42c.109-.426.145-.87.272-1.3.109-.426.291-.817.436-1.225A4.458,4.458,0,0,1,1.18.657c.073-.16.109-.337.182-.5C1.4.089,1.507.053,1.6,0c.363.266.708.515,1.071.781.708.533,1.416,1.083,2.124,1.615.381.284.763.568,1.144.87-.091.391-.2.8-.291,1.189a6.449,6.449,0,0,0-.091,2.361c.091.568.254,1.154.381,1.722C5.1,9.178,4.267,9.817,3.414,10.456Z" transform="translate(0 7.599)" fill="#deb22b" style="mix-blend-mode: normal;isolation: isolate"/>
      <path id="Vector-5" data-name="Vector" d="M.054,4.988c0,.178.109.16.218.16H6.3a1.361,1.361,0,0,1,.254.071c-.182,0-.381,0-.563.018H.218a.7.7,0,0,1-.2-.018V.675C.018.444.018.231,0,0,.018.018.036.018.054.036Z" transform="translate(13.781 10.989)" fill="#5775c0" style="mix-blend-mode: normal;isolation: isolate"/>
      <path id="Vector-6" data-name="Vector" d="M0,.036A1.085,1.085,0,0,1,.236,0h12.42c.363,0,.363,0,.381.373-.018-.053-.073-.089-.073-.142.018-.16-.073-.2-.218-.178H.054A.068.068,0,0,0,0,.036Z" transform="translate(13.781 10.971)" fill="#6e86bf" style="mix-blend-mode: normal;isolation: isolate"/>
      <path id="Vector-7" data-name="Vector" d="M.044.675V5.219a.509.509,0,0,1-.036-.16V.178A.286.286,0,0,1,.026,0C.026.231.044.444.044.675Z" transform="translate(13.756 11.007)" fill="#6e86bf" style="mix-blend-mode: normal;isolation: isolate"/>
    </g>
  </g>
</svg>
