<svg xmlns="http://www.w3.org/2000/svg" width="17.806" height="17.921" viewBox="0 0 17.806 17.921">
    <g id="Group_7152" data-name="Group 7152" transform="translate(-1269.097 -999)">
        <path id="Path_2718" data-name="Path 2718" d="M303.771,3.784H287.716a.875.875,0,0,0-.875.876v.808a.875.875,0,0,0,.875.876h16.055a.877.877,0,0,0,.876-.876V4.66a.877.877,0,0,0-.876-.876Z"
            transform="translate(982.256 995.215)" fill="#b6b7b7" />
        <path id="Path_2719" data-name="Path 2719" d="M303.771,18.726H287.716a.875.875,0,0,0-.875.876v.808a.875.875,0,0,0,.875.876h16.055a.877.877,0,0,0,.876-.876V19.6a.877.877,0,0,0-.876-.876Z"
            transform="translate(982.256 995.636)" fill="#b6b7b7" />
        <path id="Path_2720" data-name="Path 2720" d="M304.481,14.621a.877.877,0,0,0-.876-.876h-9.978a.877.877,0,0,0-.876.876v.808a.876.876,0,0,0,.876.875h9.978a.877.877,0,0,0,.876-.875Z"
            transform="translate(982.422 995.496)" fill="#b6b7b7" />
        <path id="Path_2721" data-name="Path 2721" d="M304.481,9.668a.877.877,0,0,0-.876-.876h-9.978a.876.876,0,0,0-.876.876v.808a.876.876,0,0,0,.876.875h9.978a.877.877,0,0,0,.876-.875Z"
            transform="translate(982.422 995.356)" fill="#b6b7b7" />
        <path id="Path_2722" data-name="Path 2722"
            d="M286.987,14.572a.15.15,0,0,0,.056-.012.147.147,0,0,0,.047-.033l3.194-1.844,0-.006a.145.145,0,0,0,.054-.052.16.16,0,0,0,.021-.072.156.156,0,0,0-.025-.08.145.145,0,0,0-.063-.054v0l-3.181-1.837a.148.148,0,0,0-.074-.039.143.143,0,0,0-.082.008.138.138,0,0,0-.065.052.146.146,0,0,0-.027.079h0v3.746a.129.129,0,0,0,.01.056.146.146,0,0,0,.136.09Z"
            transform="translate(982.256 995.405)" fill="#b6b7b7" />
    </g>
</svg>
