<svg xmlns="http://www.w3.org/2000/svg" width="500" height="416.707" viewBox="0 0 500 416.707">
  <g id="Group_7147" data-name="Group 7147" transform="translate(2399 -5486.397)">
    <path id="iPhone_13_Pro_Max_-_19" data-name="iPhone 13 Pro Max - 19" d="M0,50Z" transform="translate(-2372 5436.397)" fill="#fff"/>
    <g id="Group_2243" data-name="Group 2243" transform="translate(-2399 5475.542)">
      <rect id="Rectangle_526" data-name="Rectangle 526" width="500" height="0.25" transform="translate(0 382.398)" fill="#ebebeb"/>
      <rect id="Rectangle_527" data-name="Rectangle 527" width="33.122" height="0.25" transform="translate(416.779 398.494)" fill="#ebebeb"/>
      <rect id="Rectangle_528" data-name="Rectangle 528" width="8.693" height="0.25" transform="translate(322.527 401.208)" fill="#ebebeb"/>
      <rect id="Rectangle_529" data-name="Rectangle 529" width="19.192" height="0.25" transform="translate(396.586 389.208)" fill="#ebebeb"/>
      <rect id="Rectangle_530" data-name="Rectangle 530" width="43.193" height="0.25" transform="translate(52.459 390.888)" fill="#ebebeb"/>
      <rect id="Rectangle_531" data-name="Rectangle 531" width="6.333" height="0.25" transform="translate(104.556 390.888)" fill="#ebebeb"/>
      <rect id="Rectangle_532" data-name="Rectangle 532" width="93.676" height="0.25" transform="translate(131.471 395.111)" fill="#ebebeb"/>
      <path id="Path_278" data-name="Path 278" d="M237.014,337.8H43.915a5.715,5.715,0,0,1-5.708-5.708V60.66a5.714,5.714,0,0,1,5.708-5.707h193.1a5.714,5.714,0,0,1,5.707,5.707V332.092A5.715,5.715,0,0,1,237.014,337.8ZM43.915,55.2a5.463,5.463,0,0,0-5.458,5.457V332.092a5.464,5.464,0,0,0,5.458,5.458h193.1a5.463,5.463,0,0,0,5.457-5.458V60.66a5.463,5.463,0,0,0-5.457-5.457Z" fill="#ebebeb"/>
      <path id="Path_279" data-name="Path 279" d="M453.31,337.8h-193.1a5.714,5.714,0,0,1-5.707-5.708V60.66a5.713,5.713,0,0,1,5.707-5.707h193.1a5.714,5.714,0,0,1,5.709,5.707V332.092A5.715,5.715,0,0,1,453.31,337.8ZM260.212,55.2a5.463,5.463,0,0,0-5.457,5.457V332.092a5.463,5.463,0,0,0,5.457,5.458h193.1a5.464,5.464,0,0,0,5.459-5.458V60.66A5.464,5.464,0,0,0,453.31,55.2Z" fill="#ebebeb"/>
    </g>
    <g id="Group_2244" data-name="Group 2244" transform="translate(-2399 5475.542)">
      <path id="Path_280" data-name="Path 280" d="M253.209,157.815a60.557,60.557,0,0,0-8.708-20.947l7.5-9.059-16.035-16.036-9.06,7.5a60.61,60.61,0,0,0-20.947-8.707l-1.1-11.678H182.182l-1.1,11.678a60.6,60.6,0,0,0-20.946,8.707l-9.06-7.5-16.036,16.036,7.5,9.06a60.583,60.583,0,0,0-8.708,20.946l-11.677,1.1v22.676l11.677,1.1a60.6,60.6,0,0,0,8.708,20.946l-7.5,9.06,16.036,16.036,9.06-7.5a60.543,60.543,0,0,0,20.946,8.709l1.1,11.678h22.677l1.1-11.677a60.538,60.538,0,0,0,20.947-8.71l9.06,7.5L252,212.7l-7.5-9.059a60.573,60.573,0,0,0,8.708-20.947l11.676-1.1V158.916ZM224.22,170.254a30.7,30.7,0,1,1-30.7-30.7A30.7,30.7,0,0,1,224.22,170.254Z" fill="#e0e0e0"/>
      <path id="Path_281" data-name="Path 281" d="M318.25,266.651l.79,8.391h16.294l.789-8.389a43.524,43.524,0,0,0,15.051-6.258l6.51,5.39L369.2,254.263l-5.389-6.509a43.571,43.571,0,0,0,6.258-15.05l8.388-.79V215.62l-8.388-.791a43.506,43.506,0,0,0-6.258-15.049l5.389-6.51-11.521-11.522-6.51,5.389a43.543,43.543,0,0,0-15.051-6.258l-.789-8.387-16.294,0-.79,8.39a43.577,43.577,0,0,0-15.051,6.257l-6.508-5.389L285.169,193.27l5.389,6.51a43.52,43.52,0,0,0-6.257,15.049l-8.39.791v16.294l8.391.79a43.528,43.528,0,0,0,6.256,15.05l-5.389,6.509,11.522,11.522,6.508-5.39A43.5,43.5,0,0,0,318.25,266.651Zm8.936-20.827a22.058,22.058,0,1,1,22.058-22.058A22.058,22.058,0,0,1,327.186,245.824Z" fill="#e0e0e0"/>
      <path id="Path_282" data-name="Path 282" d="M110.511,346.924l.4,4.279h8.31l.4-4.278a22.211,22.211,0,0,0,7.676-3.191l3.32,2.749,5.876-5.877-2.749-3.319a22.229,22.229,0,0,0,3.192-7.676l4.277-.4V320.9l-4.277-.4a22.193,22.193,0,0,0-3.192-7.676L136.5,309.5l-5.876-5.877-3.32,2.748a22.231,22.231,0,0,0-7.676-3.191l-.4-4.277h-8.31l-.4,4.279a22.237,22.237,0,0,0-7.676,3.19l-3.319-2.748L93.64,309.5l2.748,3.319A22.211,22.211,0,0,0,93.2,320.5l-4.279.4v8.309l4.279.4a22.227,22.227,0,0,0,3.191,7.676l-2.748,3.319,5.876,5.877,3.319-2.749A22.2,22.2,0,0,0,110.511,346.924Zm4.557-10.622a11.249,11.249,0,1,1,11.25-11.249A11.249,11.249,0,0,1,115.068,336.3Z" fill="#f0f0f0"/>
      <path id="Path_283" data-name="Path 283" d="M409.249,326.16l.332,3.522h6.839l.331-3.521a18.292,18.292,0,0,0,6.317-2.627L425.8,325.8l4.836-4.837-2.262-2.732A18.274,18.274,0,0,0,431,311.912l3.521-.332v-6.839L431,304.409a18.238,18.238,0,0,0-2.626-6.316l2.262-2.732-4.836-4.837-2.732,2.262a18.271,18.271,0,0,0-6.317-2.626l-.331-3.521h-6.839l-.332,3.522a18.289,18.289,0,0,0-6.317,2.626l-2.732-2.262-4.836,4.837,2.262,2.732A18.266,18.266,0,0,0,395,304.409l-3.521.332v6.839l3.521.332a18.274,18.274,0,0,0,2.626,6.316l-2.262,2.732L400.2,325.8l2.732-2.263A18.271,18.271,0,0,0,409.249,326.16ZM413,317.418a9.257,9.257,0,1,1,9.258-9.258A9.258,9.258,0,0,1,413,317.418Z" fill="#f0f0f0"/>
      <path id="Path_284" data-name="Path 284" d="M231.726,380.752h19.4l.941-9.989a51.828,51.828,0,0,0,17.917-7.449l7.75,6.416,13.717-13.717-6.415-7.75a51.842,51.842,0,0,0,7.449-17.919l9.988-.94v-19.4l-9.988-.941a51.845,51.845,0,0,0-7.449-17.918l6.415-7.75L277.733,269.68l-7.75,6.415a51.831,51.831,0,0,0-17.917-7.45l-.941-9.988h-19.4l-.941,9.988a51.841,51.841,0,0,0-17.919,7.45l-7.749-6.415L191.4,283.4l6.417,7.75a51.809,51.809,0,0,0-7.45,17.918l-9.988.941v19.4l9.988.94a51.779,51.779,0,0,0,7.45,17.917l-6.417,7.752,13.718,13.717,7.749-6.416a51.838,51.838,0,0,0,17.919,7.449Zm9.7-34.788A26.26,26.26,0,1,1,267.686,319.7,26.26,26.26,0,0,1,241.425,345.964Z" fill="#e0e0e0"/>
      <path id="Path_285" data-name="Path 285" d="M340.16,345.256l-1.027-1.957a13.069,13.069,0,0,0-17.624-5.491l-4.674,2.454a13.068,13.068,0,0,0-5.493,17.625l1.027,1.957-3.259,1.711,11.753,22.388,34.31-18.011-11.752-22.388Zm-7.146,17.129,2.05,3.9-2.488,1.306-2.05-3.9a2.728,2.728,0,0,1-2.291-1.43,2.77,2.77,0,0,1,4.905-2.575A2.729,2.729,0,0,1,333.014,362.385Zm1.994-14.425-17.487,9.18-1.027-1.957a7.245,7.245,0,0,1,3.046-9.769l4.674-2.453A7.241,7.241,0,0,1,333.981,346Z" fill="#f0f0f0"/>
      <path id="Path_286" data-name="Path 286" d="M100.314,226.354l.725-2.088a13.068,13.068,0,0,0-8.05-16.612L88,205.922a13.069,13.069,0,0,0-16.615,8.048l-.725,2.088-3.477-1.207-8.294,23.886L95.5,251.448l8.294-23.886Zm-17.384,6.5-1.447,4.167-2.655-.922,1.447-4.166a2.729,2.729,0,0,1-.523-2.65,2.769,2.769,0,1,1,5.232,1.817A2.726,2.726,0,0,1,82.93,232.856Zm11.887-8.411L76.16,217.967l.725-2.088a7.243,7.243,0,0,1,9.209-4.46l4.987,1.732a7.242,7.242,0,0,1,4.461,9.206Z" fill="#f0f0f0"/>
      <path id="Path_287" data-name="Path 287" d="M427.928,214.667l-2.14-.68a13.316,13.316,0,1,0-11.783-3.744l-2.138-.68a12.368,12.368,0,0,0-15.533,8.041l-2.14,6.735,39.632,12.6,2.141-6.734A12.368,12.368,0,0,0,427.928,214.667Z" fill="#f0f0f0"/>
      <path id="Path_288" data-name="Path 288" d="M284.189,93.9l-1.332.56a8.574,8.574,0,1,0-7.34,3.084l-1.331.56a7.964,7.964,0,0,0-4.257,10.426l1.763,4.194,24.685-10.372-1.763-4.195A7.963,7.963,0,0,0,284.189,93.9Z" fill="#f0f0f0"/>
      <path id="Path_289" data-name="Path 289" d="M105.5,122.02l-1.415-.295a8.573,8.573,0,1,0-7.794-1.623l-1.413-.295a7.963,7.963,0,0,0-9.42,6.172l-.928,4.454,26.212,5.461.928-4.454A7.962,7.962,0,0,0,105.5,122.02Z" fill="#f0f0f0"/>
    </g>
    <ellipse id="_Path_" data-name="&lt;Path&gt;" cx="193.889" cy="11.323" rx="193.889" ry="11.323" transform="translate(-2333.889 5880.457)" fill="#f5f5f5"/>
    <g id="Group_2254" data-name="Group 2254" transform="translate(-2399 5475.542)">
      <rect id="Rectangle_533" data-name="Rectangle 533" width="193.551" height="234.309" rx="7.316" transform="translate(182.947 133.421)" fill="#407bff"/>
      <rect id="Rectangle_534" data-name="Rectangle 534" width="193.551" height="234.309" rx="7.316" transform="translate(182.947 133.421)" fill="#fff" opacity="0.6" style="mix-blend-mode: normal;isolation: isolate"/>
      <g id="Group_2246" data-name="Group 2246">
        <rect id="Rectangle_535" data-name="Rectangle 535" width="130.837" height="22.403" transform="translate(214.304 277.77)" fill="#fff"/>
        <g id="Group_2245" data-name="Group 2245" opacity="0.4">
          <path id="Path_290" data-name="Path 290" d="M220.9,288.528a3.222,3.222,0,0,1,3.365-3.265,3.109,3.109,0,0,1,2.348.935l-.431.432a2.545,2.545,0,0,0-1.9-.762,2.661,2.661,0,1,0,0,5.32,2.52,2.52,0,0,0,1.9-.771l.431.431a3.119,3.119,0,0,1-2.357.945A3.22,3.22,0,0,1,220.9,288.528Z" fill="#263238"/>
          <path id="Path_291" data-name="Path 291" d="M227.224,289.326a2.453,2.453,0,1,1,2.458,2.457A2.374,2.374,0,0,1,227.224,289.326Zm4.246,0a1.8,1.8,0,1,0-1.788,1.88A1.759,1.759,0,0,0,231.47,289.326Z" fill="#263238"/>
          <path id="Path_292" data-name="Path 292" d="M237.9,288.94v2.8h-.65v-2.732a1.347,1.347,0,0,0-1.449-1.541,1.581,1.581,0,0,0-1.688,1.742v2.531h-.651v-4.823h.624v.89a2.027,2.027,0,0,1,1.834-.927A1.846,1.846,0,0,1,237.9,288.94Z" fill="#263238"/>
          <path id="Path_293" data-name="Path 293" d="M241.237,284.887a1.526,1.526,0,0,1,.963.3l-.22.486a1.1,1.1,0,0,0-.715-.238c-.559,0-.853.311-.853.908v.568H241.9v.55H240.43v4.273h-.651v-4.273h-.862v-.55h.862v-.6A1.328,1.328,0,0,1,241.237,284.887Zm3.081.5a.477.477,0,1,1-.476-.45A.467.467,0,0,1,244.318,285.383Zm-.806,1.531h.651v4.823h-.651Z" fill="#263238"/>
          <path id="Path_294" data-name="Path 294" d="M248.409,286.877v.633c-.055,0-.11-.009-.156-.009a1.56,1.56,0,0,0-1.623,1.779v2.457h-.651v-4.823h.623v.944A1.822,1.822,0,0,1,248.409,286.877Z" fill="#263238"/>
          <path id="Path_295" data-name="Path 295" d="M257.543,288.94v2.8h-.651v-2.732c0-1.019-.514-1.541-1.385-1.541a1.55,1.55,0,0,0-1.613,1.742v2.531h-.652v-2.732c0-1.019-.513-1.541-1.394-1.541a1.555,1.555,0,0,0-1.614,1.742v2.531h-.651v-4.823h.624v.88a1.952,1.952,0,0,1,1.77-.917,1.732,1.732,0,0,1,1.714,1.019,2.1,2.1,0,0,1,1.908-1.019A1.821,1.821,0,0,1,257.543,288.94Z" fill="#263238"/>
          <path id="Path_296" data-name="Path 296" d="M267.219,285.318v6.419h-.56l-4.126-5.209v5.209h-.679v-6.419h.56l4.135,5.209v-5.209Z" fill="#263238"/>
          <path id="Path_297" data-name="Path 297" d="M273.373,289.527h-4.036a1.787,1.787,0,0,0,1.9,1.679,1.9,1.9,0,0,0,1.476-.633l.367.422a2.551,2.551,0,0,1-4.393-1.669,2.324,2.324,0,0,1,2.357-2.449,2.3,2.3,0,0,1,2.339,2.449C273.382,289.381,273.373,289.454,273.373,289.527Zm-4.036-.486h3.421a1.714,1.714,0,0,0-3.421,0Z" fill="#263238"/>
          <path id="Path_298" data-name="Path 298" d="M281.7,286.914l-1.825,4.823h-.614l-1.522-3.952-1.523,3.952H275.6l-1.816-4.823h.624l1.513,4.1,1.55-4.1h.559l1.541,4.1,1.532-4.1Z" fill="#263238"/>
          <path id="Path_299" data-name="Path 299" d="M290.247,287.52c0,1.366-.99,2.191-2.623,2.191H285.9v2.026h-.678v-6.419h2.4C289.257,285.318,290.247,286.144,290.247,287.52Zm-.679,0c0-1.028-.678-1.615-1.962-1.615H285.9v3.21h1.706C288.89,289.115,289.568,288.528,289.568,287.52Z" fill="#263238"/>
          <path id="Path_300" data-name="Path 300" d="M295.172,288.748v2.989h-.624v-.752a1.811,1.811,0,0,1-1.659.8c-1.092,0-1.761-.568-1.761-1.4,0-.742.477-1.366,1.862-1.366h1.531v-.293c0-.825-.468-1.276-1.366-1.276a2.454,2.454,0,0,0-1.605.57l-.294-.487a3.062,3.062,0,0,1,1.963-.651A1.713,1.713,0,0,1,295.172,288.748Zm-.651,1.541V289.5h-1.513c-.936,0-1.238.367-1.238.862,0,.559.449.908,1.22.908A1.544,1.544,0,0,0,294.521,290.289Z" fill="#263238"/>
          <path id="Path_301" data-name="Path 301" d="M296.273,291.188l.293-.514a2.915,2.915,0,0,0,1.715.541c.918,0,1.294-.312,1.294-.789,0-1.256-3.128-.266-3.128-2.173,0-.789.679-1.376,1.908-1.376a3.274,3.274,0,0,1,1.7.449l-.284.524a2.469,2.469,0,0,0-1.421-.414c-.872,0-1.256.339-1.256.8,0,1.3,3.127.322,3.127,2.174,0,.834-.734,1.375-1.991,1.375A3.23,3.23,0,0,1,296.273,291.188Z" fill="#263238"/>
          <path id="Path_302" data-name="Path 302" d="M300.757,291.188l.294-.514a2.91,2.91,0,0,0,1.715.541c.917,0,1.293-.312,1.293-.789,0-1.256-3.127-.266-3.127-2.173,0-.789.678-1.376,1.907-1.376a3.278,3.278,0,0,1,1.706.449l-.284.524a2.472,2.472,0,0,0-1.422-.414c-.871,0-1.256.339-1.256.8,0,1.3,3.127.322,3.127,2.174,0,.834-.733,1.375-1.99,1.375A3.234,3.234,0,0,1,300.757,291.188Z" fill="#263238"/>
          <path id="Path_303" data-name="Path 303" d="M312.9,286.914l-1.824,4.823h-.615l-1.522-3.952-1.522,3.952H306.8l-1.816-4.823h.624l1.513,4.1,1.55-4.1h.559l1.541,4.1,1.532-4.1Z" fill="#263238"/>
          <path id="Path_304" data-name="Path 304" d="M313.258,289.326a2.453,2.453,0,1,1,2.457,2.457A2.373,2.373,0,0,1,313.258,289.326Zm4.246,0a1.8,1.8,0,1,0-1.789,1.88A1.759,1.759,0,0,0,317.5,289.326Z" fill="#263238"/>
          <path id="Path_305" data-name="Path 305" d="M321.924,286.877v.633c-.054,0-.109-.009-.155-.009a1.56,1.56,0,0,0-1.623,1.779v2.457h-.652v-4.823h.624v.944A1.819,1.819,0,0,1,321.924,286.877Z" fill="#263238"/>
          <path id="Path_306" data-name="Path 306" d="M327.455,284.933v6.8h-.624v-.953a2.088,2.088,0,0,1-1.861,1,2.454,2.454,0,0,1,0-4.906,2.107,2.107,0,0,1,1.834.954v-2.9Zm-.642,4.393a1.8,1.8,0,1,0-1.789,1.88A1.765,1.765,0,0,0,326.813,289.326Z" fill="#263238"/>
        </g>
      </g>
      <rect id="Rectangle_536" data-name="Rectangle 536" width="130.837" height="22.403" transform="translate(214.304 321.605)" opacity="0.2"/>
      <g id="Group_2247" data-name="Group 2247" opacity="0.5">
        <path id="Path_307" data-name="Path 307" d="M215.106,224.8V226.3h1.983v.35h-1.983v1.627h-.4v-3.835h2.629v.351Z"/>
        <path id="Path_308" data-name="Path 308" d="M217.7,226.841a1.466,1.466,0,1,1,1.468,1.468A1.418,1.418,0,0,1,217.7,226.841Zm2.536,0a1.072,1.072,0,1,0-1.068,1.123A1.05,1.05,0,0,0,220.235,226.841Z"/>
        <path id="Path_309" data-name="Path 309" d="M222.878,225.378v.378c-.033,0-.065-.006-.093-.006a.933.933,0,0,0-.97,1.064v1.467h-.388V225.4h.372v.565A1.088,1.088,0,0,1,222.878,225.378Z"/>
        <path id="Path_310" data-name="Path 310" d="M226.221,225.4v2.532a1.263,1.263,0,0,1-1.44,1.44,2.007,2.007,0,0,1-1.342-.443l.2-.3a1.717,1.717,0,0,0,1.134.394c.728,0,1.063-.334,1.063-1.046v-.367a1.3,1.3,0,0,1-1.124.559,1.4,1.4,0,1,1,0-2.794,1.3,1.3,0,0,1,1.14.575V225.4Zm-.378,1.371a1.093,1.093,0,1,0-1.1,1.056A1.03,1.03,0,0,0,225.843,226.77Z"/>
        <path id="Path_311" data-name="Path 311" d="M227.023,226.841a1.466,1.466,0,1,1,1.469,1.468A1.418,1.418,0,0,1,227.023,226.841Zm2.537,0a1.072,1.072,0,1,0-1.068,1.123A1.051,1.051,0,0,0,229.56,226.841Z"/>
        <path id="Path_312" data-name="Path 312" d="M232.268,228.1a.92.92,0,0,1-.608.2.764.764,0,0,1-.844-.838v-1.742H230.3v-.33h.514v-.629h.39v.629h.876v.33h-.876v1.719a.462.462,0,0,0,.5.527.642.642,0,0,0,.427-.149Z"/>
        <path id="Path_313" data-name="Path 313" d="M237.5,225.762c0,.815-.592,1.308-1.567,1.308H234.9v1.211h-.4v-3.835h1.435C236.9,224.446,237.5,224.94,237.5,225.762Zm-.406,0c0-.614-.406-.965-1.172-.965H234.9v1.918h1.019C236.685,226.715,237.091,226.364,237.091,225.762Z"/>
        <path id="Path_314" data-name="Path 314" d="M240.44,226.495v1.786h-.372v-.449a1.081,1.081,0,0,1-.991.477c-.652,0-1.052-.34-1.052-.838,0-.445.285-.817,1.112-.817h.915v-.174c0-.494-.279-.762-.817-.762a1.464,1.464,0,0,0-.958.34l-.175-.291a1.825,1.825,0,0,1,1.172-.389A1.023,1.023,0,0,1,240.44,226.495Zm-.388.921v-.472h-.9c-.559,0-.74.22-.74.516,0,.334.269.542.729.542A.923.923,0,0,0,240.052,227.416Z"/>
        <path id="Path_315" data-name="Path 315" d="M241.1,227.952l.175-.307a1.739,1.739,0,0,0,1.024.324c.548,0,.772-.186.772-.471,0-.751-1.867-.159-1.867-1.3,0-.47.4-.821,1.139-.821a1.957,1.957,0,0,1,1.019.268l-.17.313a1.471,1.471,0,0,0-.849-.247c-.52,0-.751.2-.751.477,0,.778,1.868.192,1.868,1.3,0,.5-.438.822-1.188.822A1.92,1.92,0,0,1,241.1,227.952Z"/>
        <path id="Path_316" data-name="Path 316" d="M243.781,227.952l.176-.307a1.734,1.734,0,0,0,1.024.324c.547,0,.772-.186.772-.471,0-.751-1.868-.159-1.868-1.3,0-.47.406-.821,1.139-.821a1.955,1.955,0,0,1,1.019.268l-.17.313a1.469,1.469,0,0,0-.849-.247c-.52,0-.75.2-.75.477,0,.778,1.868.192,1.868,1.3,0,.5-.438.822-1.189.822A1.924,1.924,0,0,1,243.781,227.952Z"/>
        <path id="Path_317" data-name="Path 317" d="M251.036,225.4l-1.091,2.882h-.367l-.909-2.361-.909,2.361h-.367l-1.085-2.882h.373l.9,2.45.926-2.45h.334l.921,2.45.914-2.45Z"/>
        <path id="Path_318" data-name="Path 318" d="M251.252,226.841a1.466,1.466,0,1,1,1.469,1.468A1.418,1.418,0,0,1,251.252,226.841Zm2.537,0a1.072,1.072,0,1,0-1.068,1.123A1.051,1.051,0,0,0,253.789,226.841Z"/>
        <path id="Path_319" data-name="Path 319" d="M256.432,225.378v.378c-.034,0-.066-.006-.094-.006a.933.933,0,0,0-.969,1.064v1.467h-.389V225.4h.372v.565A1.088,1.088,0,0,1,256.432,225.378Z"/>
        <path id="Path_320" data-name="Path 320" d="M259.736,224.217v4.064h-.372v-.569a1.249,1.249,0,0,1-1.112.6,1.466,1.466,0,0,1,0-2.931,1.258,1.258,0,0,1,1.095.569v-1.73Zm-.384,2.624a1.072,1.072,0,1,0-1.067,1.123A1.053,1.053,0,0,0,259.352,226.841Z"/>
        <path id="Path_321" data-name="Path 321" d="M262.57,225.428c0-.395-.322-.669-.881-.669a1.274,1.274,0,0,0-1.047.444l-.29-.22a1.675,1.675,0,0,1,1.364-.569c.767,0,1.26.367,1.26.953,0,.937-1,.981-1,1.764h-.406C261.568,226.227,262.57,226.145,262.57,225.428Zm-1.084,2.6a.288.288,0,0,1,.575,0,.288.288,0,0,1-.575,0Z"/>
      </g>
      <rect id="Rectangle_537" data-name="Rectangle 537" width="130.837" height="22.403" transform="translate(214.304 320.234)" fill="#407bff"/>
      <g id="Group_2248" data-name="Group 2248">
        <path id="Path_322" data-name="Path 322" d="M242.831,334.039l.4-.854a3.948,3.948,0,0,0,2.531.887c1.326,0,1.9-.514,1.9-1.182,0-1.874-4.646-.691-4.646-3.539,0-1.184.921-2.192,2.937-2.192a4.5,4.5,0,0,1,2.464.68l-.361.876a3.961,3.961,0,0,0-2.1-.624c-1.3,0-1.863.548-1.863,1.216,0,1.873,4.645.7,4.645,3.516,0,1.173-.942,2.181-2.969,2.181A4.55,4.55,0,0,1,242.831,334.039Z" fill="#fff"/>
        <path id="Path_323" data-name="Path 323" d="M255.413,332.363H250.7a1.967,1.967,0,0,0,2.1,1.7,2.168,2.168,0,0,0,1.676-.7l.582.679a3.166,3.166,0,0,1-5.413-2.026,2.844,2.844,0,0,1,2.915-2.958,2.8,2.8,0,0,1,2.87,2.991C255.435,332.133,255.424,332.265,255.413,332.363Zm-4.711-.756h3.725a1.874,1.874,0,0,0-3.725,0Z" fill="#fff"/>
        <path id="Path_324" data-name="Path 324" d="M260.161,334.576a1.977,1.977,0,0,1-1.271.4,1.656,1.656,0,0,1-1.84-1.818v-3.188h-.986v-.866h.986v-1.27H258.1v1.27h1.665v.866H258.1v3.144a.856.856,0,0,0,.909.976,1.326,1.326,0,0,0,.822-.275Z" fill="#fff"/>
        <path id="Path_325" data-name="Path 325" d="M270.727,329.92c0,1.666-1.2,2.674-3.2,2.674h-1.9v2.322h-1.1v-7.669h2.99C269.523,327.247,270.727,328.255,270.727,329.92Zm-1.1,0c0-1.1-.734-1.72-2.136-1.72h-1.863v3.441H267.5C268.9,331.641,269.632,331.016,269.632,329.92Z" fill="#fff"/>
        <path id="Path_326" data-name="Path 326" d="M276.737,331.41v3.506h-1v-.767a2.155,2.155,0,0,1-1.906.832c-1.315,0-2.148-.7-2.148-1.709,0-.93.6-1.7,2.334-1.7h1.665v-.208c0-.888-.515-1.4-1.556-1.4a2.932,2.932,0,0,0-1.84.625l-.439-.789a3.861,3.861,0,0,1,2.4-.745C275.838,329.055,276.737,329.821,276.737,331.41Zm-1.052,1.732v-.812h-1.621c-1.041,0-1.337.4-1.337.9,0,.582.482.943,1.282.943A1.684,1.684,0,0,0,275.685,333.142Z" fill="#fff"/>
        <path id="Path_327" data-name="Path 327" d="M277.957,334.3l.439-.833a3.733,3.733,0,0,0,2.037.6c.975,0,1.381-.3,1.381-.789,0-1.3-3.67-.175-3.67-2.486,0-1.041.931-1.742,2.421-1.742a4.23,4.23,0,0,1,2.114.525l-.449.833a3.03,3.03,0,0,0-1.676-.46c-.921,0-1.369.34-1.369.8,0,1.369,3.68.252,3.68,2.509,0,1.052-.964,1.719-2.509,1.719A4.206,4.206,0,0,1,277.957,334.3Z" fill="#fff"/>
        <path id="Path_328" data-name="Path 328" d="M283.45,334.3l.438-.833a3.737,3.737,0,0,0,2.038.6c.975,0,1.381-.3,1.381-.789,0-1.3-3.671-.175-3.671-2.486,0-1.041.931-1.742,2.422-1.742a4.23,4.23,0,0,1,2.114.525l-.449.833a3.031,3.031,0,0,0-1.677-.46c-.92,0-1.369.34-1.369.8,0,1.369,3.681.252,3.681,2.509,0,1.052-.964,1.719-2.509,1.719A4.2,4.2,0,0,1,283.45,334.3Z" fill="#fff"/>
        <path id="Path_329" data-name="Path 329" d="M298.354,329.109l-2.17,5.807h-1.008l-1.676-4.4-1.7,4.4h-1.008l-2.158-5.807h1l1.688,4.623,1.753-4.623h.887l1.72,4.646,1.731-4.646Z" fill="#fff"/>
        <path id="Path_330" data-name="Path 330" d="M298.721,332.013a3.019,3.019,0,1,1,3.024,2.968A2.889,2.889,0,0,1,298.721,332.013Zm4.974,0a1.958,1.958,0,1,0-1.95,2.048A1.9,1.9,0,0,0,303.7,332.013Z" fill="#fff"/>
        <path id="Path_331" data-name="Path 331" d="M309.343,329.055v1.018a2.039,2.039,0,0,0-.241-.01,1.732,1.732,0,0,0-1.83,1.96v2.893H306.22v-5.807h1.008v.976A2.216,2.216,0,0,1,309.343,329.055Z" fill="#fff"/>
        <path id="Path_332" data-name="Path 332" d="M316.061,326.787v8.129h-1.008V334a2.453,2.453,0,0,1-2.07.985,2.963,2.963,0,0,1,0-5.926,2.472,2.472,0,0,1,2.027.931v-3.2Zm-1.04,5.226a1.958,1.958,0,1,0-1.951,2.048A1.911,1.911,0,0,0,315.021,332.013Z" fill="#fff"/>
      </g>
      <g id="Group_2249" data-name="Group 2249" opacity="0.6">
        <path id="Path_333" data-name="Path 333" d="M238.409,168.17l-1.811-2.578c-.168.012-.347.024-.527.024H234v2.554h-1.2v-8.4h3.275c2.182,0,3.5,1.1,3.5,2.926a2.65,2.65,0,0,1-1.847,2.651l1.991,2.818Zm-.036-5.469c0-1.2-.8-1.883-2.338-1.883H234V164.6h2.039C237.57,164.6,238.373,163.9,238.373,162.7Z" fill="#263238"/>
        <path id="Path_334" data-name="Path 334" d="M247.074,165.376h-5.158a2.154,2.154,0,0,0,2.3,1.859,2.374,2.374,0,0,0,1.835-.768l.636.744a3.465,3.465,0,0,1-5.925-2.219,3.113,3.113,0,0,1,3.19-3.238,3.065,3.065,0,0,1,3.143,3.274C247.1,165.124,247.085,165.268,247.074,165.376Zm-5.158-.828h4.078a2.052,2.052,0,0,0-4.078,0Z" fill="#263238"/>
        <path id="Path_335" data-name="Path 335" d="M247.893,167.5l.48-.912a4.081,4.081,0,0,0,2.231.66c1.067,0,1.511-.324,1.511-.864,0-1.427-4.018-.192-4.018-2.722,0-1.14,1.019-1.907,2.65-1.907a4.624,4.624,0,0,1,2.315.576l-.492.911a3.316,3.316,0,0,0-1.835-.5c-1.007,0-1.5.372-1.5.876,0,1.5,4.03.276,4.03,2.746,0,1.152-1.056,1.883-2.746,1.883A4.592,4.592,0,0,1,247.893,167.5Z" fill="#263238"/>
        <path id="Path_336" data-name="Path 336" d="M260.429,165.376h-5.157a2.153,2.153,0,0,0,2.3,1.859,2.374,2.374,0,0,0,1.835-.768l.635.744a3.464,3.464,0,0,1-5.924-2.219,3.112,3.112,0,0,1,3.189-3.238,3.065,3.065,0,0,1,3.143,3.274C260.453,165.124,260.441,165.268,260.429,165.376Zm-5.157-.828h4.078a2.052,2.052,0,0,0-4.078,0Z" fill="#263238"/>
        <path id="Path_337" data-name="Path 337" d="M265.627,167.8a2.173,2.173,0,0,1-1.392.443,1.814,1.814,0,0,1-2.015-1.99v-3.491h-1.079v-.947h1.079v-1.391h1.152v1.391H265.2v.947h-1.823V166.2a.936.936,0,0,0,.995,1.067,1.451,1.451,0,0,0,.9-.3Z" fill="#263238"/>
        <path id="Path_338" data-name="Path 338" d="M277.192,162.7c0,1.823-1.319,2.927-3.5,2.927h-2.075v2.542h-1.2v-8.4h3.274C275.873,159.775,277.192,160.878,277.192,162.7Zm-1.2,0c0-1.2-.8-1.883-2.339-1.883h-2.039v3.766h2.039C275.19,164.584,275.993,163.9,275.993,162.7Z" fill="#263238"/>
        <path id="Path_339" data-name="Path 339" d="M283.769,164.333v3.837h-1.091v-.839a2.36,2.36,0,0,1-2.087.911c-1.439,0-2.351-.767-2.351-1.87,0-1.02.66-1.86,2.555-1.86h1.823v-.227c0-.972-.564-1.536-1.7-1.536a3.213,3.213,0,0,0-2.015.684l-.48-.864a4.238,4.238,0,0,1,2.627-.815C282.786,161.754,283.769,162.593,283.769,164.333Zm-1.151,1.894v-.887h-1.775c-1.139,0-1.463.444-1.463.983,0,.636.527,1.032,1.4,1.032A1.844,1.844,0,0,0,282.618,166.227Z" fill="#263238"/>
        <path id="Path_340" data-name="Path 340" d="M285.1,167.5l.48-.912a4.081,4.081,0,0,0,2.231.66c1.067,0,1.511-.324,1.511-.864,0-1.427-4.018-.192-4.018-2.722,0-1.14,1.02-1.907,2.651-1.907a4.62,4.62,0,0,1,2.314.576l-.491.911a3.32,3.32,0,0,0-1.835-.5c-1.007,0-1.5.372-1.5.876,0,1.5,4.029.276,4.029,2.746,0,1.152-1.055,1.883-2.746,1.883A4.594,4.594,0,0,1,285.1,167.5Z" fill="#263238"/>
        <path id="Path_341" data-name="Path 341" d="M291.116,167.5l.48-.912a4.081,4.081,0,0,0,2.231.66c1.067,0,1.51-.324,1.51-.864,0-1.427-4.017-.192-4.017-2.722,0-1.14,1.019-1.907,2.65-1.907a4.624,4.624,0,0,1,2.315.576l-.492.911a3.315,3.315,0,0,0-1.834-.5c-1.008,0-1.5.372-1.5.876,0,1.5,4.03.276,4.03,2.746,0,1.152-1.055,1.883-2.746,1.883A4.6,4.6,0,0,1,291.116,167.5Z" fill="#263238"/>
        <path id="Path_342" data-name="Path 342" d="M307.43,161.814l-2.374,6.356h-1.1l-1.835-4.821-1.859,4.821h-1.1l-2.363-6.356h1.092l1.846,5.061,1.919-5.061h.972L304.5,166.9l1.895-5.085Z" fill="#263238"/>
        <path id="Path_343" data-name="Path 343" d="M307.832,164.992a3.3,3.3,0,1,1,3.31,3.25A3.163,3.163,0,0,1,307.832,164.992Zm5.445,0a2.143,2.143,0,1,0-2.135,2.243A2.086,2.086,0,0,0,313.277,164.992Z" fill="#263238"/>
        <path id="Path_344" data-name="Path 344" d="M319.458,161.754v1.115a2.033,2.033,0,0,0-.264-.012,1.9,1.9,0,0,0-2,2.147v3.166H316.04v-6.356h1.1v1.067A2.427,2.427,0,0,1,319.458,161.754Z" fill="#263238"/>
        <path id="Path_345" data-name="Path 345" d="M326.812,159.271v8.9h-1.1v-1.007a2.686,2.686,0,0,1-2.267,1.079,3.244,3.244,0,0,1,0-6.488,2.706,2.706,0,0,1,2.219,1.019v-3.5Zm-1.139,5.721a2.143,2.143,0,1,0-2.135,2.243A2.093,2.093,0,0,0,325.673,164.992Z" fill="#263238"/>
      </g>
      <g id="Group_2251" data-name="Group 2251">
        <rect id="Rectangle_538" data-name="Rectangle 538" width="130.837" height="22.403" transform="translate(214.304 244.165)" fill="#fff"/>
        <g id="Group_2250" data-name="Group 2250" opacity="0.4">
          <path id="Path_346" data-name="Path 346" d="M226.829,251.713v6.42h-.559l-4.127-5.209v5.209h-.679v-6.42h.56l4.136,5.209v-5.209Z" fill="#263238"/>
          <path id="Path_347" data-name="Path 347" d="M232.983,255.923h-4.035a1.784,1.784,0,0,0,1.9,1.678,1.9,1.9,0,0,0,1.477-.633l.367.422a2.55,2.55,0,0,1-4.393-1.669,2.323,2.323,0,0,1,2.357-2.449,2.3,2.3,0,0,1,2.338,2.449C232.992,255.775,232.983,255.849,232.983,255.923Zm-4.035-.487h3.421a1.714,1.714,0,0,0-3.421,0Z" fill="#263238"/>
          <path id="Path_348" data-name="Path 348" d="M241.31,253.309l-1.825,4.824h-.614l-1.522-3.953-1.523,3.953h-.614l-1.816-4.824h.624l1.513,4.1,1.55-4.1h.559l1.541,4.1,1.531-4.1Z" fill="#263238"/>
          <path id="Path_349" data-name="Path 349" d="M249.858,253.914c0,1.366-.99,2.191-2.623,2.191h-1.724v2.028h-.678v-6.42h2.4C248.868,251.713,249.858,252.538,249.858,253.914Zm-.679,0c0-1.027-.678-1.614-1.962-1.614h-1.706v3.21h1.706C248.5,255.51,249.179,254.923,249.179,253.914Z" fill="#263238"/>
          <path id="Path_350" data-name="Path 350" d="M254.783,255.143v2.99h-.624v-.752a1.811,1.811,0,0,1-1.66.8c-1.091,0-1.76-.57-1.76-1.4,0-.743.477-1.366,1.862-1.366h1.531v-.294c0-.825-.468-1.274-1.366-1.274a2.453,2.453,0,0,0-1.605.568l-.294-.486a3.066,3.066,0,0,1,1.963-.651A1.713,1.713,0,0,1,254.783,255.143Zm-.651,1.541V255.9h-1.513c-.936,0-1.238.367-1.238.862,0,.559.449.908,1.22.908A1.544,1.544,0,0,0,254.132,256.684Z" fill="#263238"/>
          <path id="Path_351" data-name="Path 351" d="M255.883,257.582l.294-.514a2.91,2.91,0,0,0,1.715.541c.917,0,1.293-.311,1.293-.788,0-1.256-3.127-.265-3.127-2.174,0-.788.678-1.375,1.907-1.375a3.259,3.259,0,0,1,1.706.45l-.284.522a2.478,2.478,0,0,0-1.422-.412c-.871,0-1.256.339-1.256.8,0,1.3,3.127.32,3.127,2.173,0,.835-.734,1.376-1.99,1.376A3.221,3.221,0,0,1,255.883,257.582Z" fill="#263238"/>
          <path id="Path_352" data-name="Path 352" d="M260.368,257.582l.294-.514a2.91,2.91,0,0,0,1.715.541c.917,0,1.293-.311,1.293-.788,0-1.256-3.128-.265-3.128-2.174,0-.788.679-1.375,1.908-1.375a3.262,3.262,0,0,1,1.706.45l-.284.522a2.478,2.478,0,0,0-1.422-.412c-.871,0-1.256.339-1.256.8,0,1.3,3.127.32,3.127,2.173,0,.835-.734,1.376-1.99,1.376A3.221,3.221,0,0,1,260.368,257.582Z" fill="#263238"/>
          <path id="Path_353" data-name="Path 353" d="M272.51,253.309l-1.825,4.824h-.614l-1.522-3.953-1.523,3.953h-.614l-1.816-4.824h.624l1.513,4.1,1.55-4.1h.559l1.541,4.1,1.532-4.1Z" fill="#263238"/>
          <path id="Path_354" data-name="Path 354" d="M272.869,255.721a2.453,2.453,0,1,1,2.457,2.458A2.372,2.372,0,0,1,272.869,255.721Zm4.246,0a1.8,1.8,0,1,0-1.789,1.88A1.759,1.759,0,0,0,277.115,255.721Z" fill="#263238"/>
          <path id="Path_355" data-name="Path 355" d="M281.535,253.272v.633c-.055,0-.11-.009-.156-.009a1.561,1.561,0,0,0-1.623,1.779v2.458h-.651v-4.824h.624v.945A1.817,1.817,0,0,1,281.535,253.272Z" fill="#263238"/>
          <path id="Path_356" data-name="Path 356" d="M287.065,251.328v6.8h-.624v-.954a2.089,2.089,0,0,1-1.861,1,2.454,2.454,0,0,1,0-4.907,2.108,2.108,0,0,1,1.834.954v-2.9Zm-.642,4.393a1.8,1.8,0,1,0-1.788,1.88A1.764,1.764,0,0,0,286.423,255.721Z" fill="#263238"/>
        </g>
      </g>
      <g id="Group_2253" data-name="Group 2253">
        <rect id="Rectangle_539" data-name="Rectangle 539" width="130.837" height="22.403" transform="translate(214.304 193.549)" fill="#fff"/>
        <g id="Group_2252" data-name="Group 2252" opacity="0.4">
          <path id="Path_357" data-name="Path 357" d="M220.9,204.307a3.372,3.372,0,1,1,3.375,3.265A3.231,3.231,0,0,1,220.9,204.307Zm6.062,0a2.7,2.7,0,1,0-2.687,2.659A2.6,2.6,0,0,0,226.958,204.307Z" fill="#263238"/>
          <path id="Path_358" data-name="Path 358" d="M229.021,200.712h.651v6.8h-.651Z" fill="#263238"/>
          <path id="Path_359" data-name="Path 359" d="M235.89,200.712v6.8h-.623v-.954a2.09,2.09,0,0,1-1.862,1,2.454,2.454,0,0,1,0-4.907,2.106,2.106,0,0,1,1.834.954v-2.9Zm-.642,4.393a1.795,1.795,0,1,0-1.788,1.88A1.764,1.764,0,0,0,235.248,205.1Z" fill="#263238"/>
          <path id="Path_360" data-name="Path 360" d="M245.272,203.3c0,1.367-.99,2.192-2.623,2.192h-1.724v2.027h-.678V201.1h2.4C244.282,201.1,245.272,201.922,245.272,203.3Zm-.679,0c0-1.027-.678-1.614-1.962-1.614h-1.706v3.21h1.706C243.915,204.894,244.593,204.307,244.593,203.3Z" fill="#263238"/>
          <path id="Path_361" data-name="Path 361" d="M250.2,204.527v2.99h-.624v-.752a1.811,1.811,0,0,1-1.659.8c-1.092,0-1.761-.569-1.761-1.4,0-.742.477-1.366,1.862-1.366h1.531V204.5c0-.825-.468-1.274-1.366-1.274a2.458,2.458,0,0,0-1.6.568l-.294-.486a3.066,3.066,0,0,1,1.963-.651A1.713,1.713,0,0,1,250.2,204.527Zm-.651,1.541v-.789h-1.513c-.936,0-1.238.367-1.238.862,0,.559.449.908,1.22.908A1.544,1.544,0,0,0,249.546,206.068Z" fill="#263238"/>
          <path id="Path_362" data-name="Path 362" d="M251.3,206.966l.293-.513a2.922,2.922,0,0,0,1.715.541c.918,0,1.294-.312,1.294-.789,0-1.256-3.128-.265-3.128-2.173,0-.789.679-1.376,1.908-1.376a3.277,3.277,0,0,1,1.705.449l-.284.523a2.475,2.475,0,0,0-1.421-.412c-.872,0-1.257.339-1.257.8,0,1.3,3.128.32,3.128,2.173,0,.834-.734,1.376-1.99,1.376A3.219,3.219,0,0,1,251.3,206.966Z" fill="#263238"/>
          <path id="Path_363" data-name="Path 363" d="M255.783,206.966l.293-.513a2.919,2.919,0,0,0,1.715.541c.918,0,1.293-.312,1.293-.789,0-1.256-3.127-.265-3.127-2.173,0-.789.679-1.376,1.908-1.376a3.277,3.277,0,0,1,1.705.449l-.284.523a2.475,2.475,0,0,0-1.421-.412c-.872,0-1.257.339-1.257.8,0,1.3,3.127.32,3.127,2.173,0,.834-.733,1.376-1.99,1.376A3.218,3.218,0,0,1,255.783,206.966Z" fill="#263238"/>
          <path id="Path_364" data-name="Path 364" d="M267.924,202.693l-1.824,4.824h-.615l-1.522-3.953-1.523,3.953h-.614l-1.816-4.824h.624l1.513,4.1,1.55-4.1h.559l1.541,4.1,1.532-4.1Z" fill="#263238"/>
          <path id="Path_365" data-name="Path 365" d="M268.283,205.1a2.454,2.454,0,1,1,2.458,2.458A2.373,2.373,0,0,1,268.283,205.1Zm4.246,0a1.8,1.8,0,1,0-1.788,1.88A1.759,1.759,0,0,0,272.529,205.1Z" fill="#263238"/>
          <path id="Path_366" data-name="Path 366" d="M276.949,202.656v.633c-.054,0-.11-.009-.156-.009a1.561,1.561,0,0,0-1.623,1.779v2.458h-.651v-4.824h.624v.945A1.819,1.819,0,0,1,276.949,202.656Z" fill="#263238"/>
          <path id="Path_367" data-name="Path 367" d="M282.479,200.712v6.8h-.623v-.954a2.09,2.09,0,0,1-1.861,1,2.454,2.454,0,0,1,0-4.907,2.107,2.107,0,0,1,1.834.954v-2.9Zm-.641,4.393a1.8,1.8,0,1,0-1.789,1.88A1.765,1.765,0,0,0,281.838,205.1Z" fill="#263238"/>
        </g>
      </g>
    </g>
    <g id="Group_2260" data-name="Group 2260" transform="translate(-2399 5475.542)">
      <g id="Group_2255" data-name="Group 2255">
        <path id="Path_368" data-name="Path 368" d="M360.968,139.568a23.653,23.653,0,0,1,32.247-8.758l-.966,1.686,6.7-1.82-1.82-6.7-.965,1.686a29.564,29.564,0,0,0-36.926,45.14l4.46-3.909A23.638,23.638,0,0,1,360.968,139.568Z" fill="#263238"/>
        <path id="Path_369" data-name="Path 369" d="M404.025,132.194l-4.524,3.835a23.633,23.633,0,0,1-29.775,35.786l.966-1.686-6.7,1.82,1.82,6.7.965-1.686a29.565,29.565,0,0,0,37.248-44.768Z" fill="#263238"/>
      </g>
      <g id="Group_2256" data-name="Group 2256" opacity="0.6" style="mix-blend-mode: normal;isolation: isolate">
        <path id="Path_370" data-name="Path 370" d="M360.968,139.568a23.653,23.653,0,0,1,32.247-8.758l-.966,1.686,6.7-1.82-1.82-6.7-.965,1.686a29.564,29.564,0,0,0-36.926,45.14l4.46-3.909A23.638,23.638,0,0,1,360.968,139.568Z" fill="#fff"/>
        <path id="Path_371" data-name="Path 371" d="M404.025,132.194l-4.524,3.835a23.633,23.633,0,0,1-29.775,35.786l.966-1.686-6.7,1.82,1.82,6.7.965-1.686a29.565,29.565,0,0,0,37.248-44.768Z" fill="#fff"/>
      </g>
      <g id="Group_2259" data-name="Group 2259">
        <g id="Group_2257" data-name="Group 2257">
          <path id="Path_372" data-name="Path 372" d="M377.216,123.29H370.7V103.281a13.869,13.869,0,1,0-27.739,0V123.29h-6.52V103.281a20.389,20.389,0,1,1,40.778,0Z" fill="#263238"/>
        </g>
        <g id="Group_2258" data-name="Group 2258" opacity="0.3">
          <path id="Path_373" data-name="Path 373" d="M377.216,123.29H370.7V103.281a13.869,13.869,0,1,0-27.739,0V123.29h-6.52V103.281a20.389,20.389,0,1,1,40.778,0Z" fill="#fff"/>
        </g>
        <path id="Path_374" data-name="Path 374" d="M384.687,118.2v32.73a3.8,3.8,0,0,1-3.8,3.8H332.747a3.793,3.793,0,0,1-3.779-3.8V118.2a3.793,3.793,0,0,1,3.779-3.8h48.141a3.644,3.644,0,0,1,1.8.46A3.772,3.772,0,0,1,384.687,118.2Z" fill="#407bff"/>
        <path id="Path_375" data-name="Path 375" d="M382.687,114.859v32.07a3.789,3.789,0,0,1-3.8,3.79H330.747a3.7,3.7,0,0,1-1.779-.45V118.2a3.793,3.793,0,0,1,3.779-3.8h48.141A3.644,3.644,0,0,1,382.687,114.859Z" fill="#fff" opacity="0.2" style="mix-blend-mode: normal;isolation: isolate"/>
        <path id="Path_376" data-name="Path 376" d="M364,130.455a7.17,7.17,0,1,0-9.664,6.825l-.374,8.7H359.7l-.856-8.545A7.263,7.263,0,0,0,364,130.455Z" opacity="0.5"/>
      </g>
    </g>
    <g id="Group_2262" data-name="Group 2262" transform="translate(-2399 5475.542)">
      <path id="Path_377" data-name="Path 377" d="M127.369,139.575l3.318,10.66L134,139.575Z" fill="#407bff"/>
      <rect id="Rectangle_540" data-name="Rectangle 540" width="71.473" height="28.747" rx="8.592" transform="translate(94.95 114.076)" fill="#407bff"/>
      <g id="Group_2261" data-name="Group 2261">
        <path id="Path_378" data-name="Path 378" d="M111.752,128.435l1.881,1.06-.49.869-1.913-1.122.016,2.15H110.3l.016-2.15-1.913,1.122-.49-.869,1.9-1.06-1.9-1.042.49-.886,1.913,1.122L110.3,125.5h.949l-.016,2.133,1.913-1.122.49.886Z" fill="#fff"/>
        <path id="Path_379" data-name="Path 379" d="M118.39,128.435l1.881,1.06-.49.869-1.912-1.122.015,2.15h-.948l.016-2.15-1.913,1.122-.49-.869,1.9-1.06-1.9-1.042.49-.886,1.913,1.122-.016-2.133h.948l-.015,2.133,1.912-1.122.49.886Z" fill="#fff"/>
        <path id="Path_380" data-name="Path 380" d="M125.029,128.435l1.881,1.06-.49.869-1.913-1.122.016,2.15h-.948l.015-2.15-1.912,1.122-.49-.869,1.9-1.06-1.9-1.042.49-.886,1.912,1.122-.015-2.133h.948l-.016,2.133,1.913-1.122.49.886Z" fill="#fff"/>
        <path id="Path_381" data-name="Path 381" d="M131.667,128.435l1.882,1.06-.49.869-1.913-1.122.016,2.15h-.949l.016-2.15-1.913,1.122-.49-.869,1.9-1.06-1.9-1.042.49-.886,1.913,1.122-.016-2.133h.949l-.016,2.133,1.913-1.122.49.886Z" fill="#fff"/>
        <path id="Path_382" data-name="Path 382" d="M138.306,128.435l1.882,1.06-.491.869-1.912-1.122.015,2.15h-.948l.016-2.15-1.913,1.122-.49-.869,1.9-1.06-1.9-1.042.49-.886,1.913,1.122-.016-2.133h.948l-.015,2.133,1.912-1.122.491.886Z" fill="#fff"/>
        <path id="Path_383" data-name="Path 383" d="M144.944,128.435l1.882,1.06-.491.869-1.912-1.122.016,2.15h-.949l.016-2.15-1.913,1.122-.49-.869,1.9-1.06-1.9-1.042.49-.886,1.913,1.122-.016-2.133h.949l-.016,2.133,1.912-1.122.491.886Z" fill="#fff"/>
        <path id="Path_384" data-name="Path 384" d="M151.583,128.435l1.881,1.06-.49.869-1.913-1.122.016,2.15h-.948l.016-2.15-1.913,1.122-.49-.869,1.9-1.06-1.9-1.042.49-.886,1.913,1.122-.016-2.133h.948l-.016,2.133,1.913-1.122.49.886Z" fill="#fff"/>
      </g>
    </g>
    <g id="Group_2282" data-name="Group 2282" transform="translate(-2399 5475.542)">
      <g id="Group_2263" data-name="Group 2263">
        <path id="Path_385" data-name="Path 385" d="M174.072,214.065l6.1-3.947L173.3,205.9s-5.23,3.85-3.133,6.462Z" fill="#b55b52"/>
        <path id="Path_386" data-name="Path 386" d="M183.3,203.635l-7.137-1.62L173.3,205.9l6.869,4.216Z" fill="#b55b52"/>
      </g>
      <path id="Path_387" data-name="Path 387" d="M144.776,203.7s11.222,19.1,16.57,19.426c6.935.422,13.314-18.677,10.958-13.158" fill="none" stroke="#b55b52" stroke-width="9.678"/>
      <path id="Path_388" data-name="Path 388" d="M145.917,196.859c3.967,1.326,12.118,19.75,12.118,19.75l-13.784,6.545s-2.805-14.48-2.289-19.12A11.014,11.014,0,0,1,145.917,196.859Z" fill="#407bff"/>
      <path id="Path_389" data-name="Path 389" d="M145.917,196.859c3.967,1.326,12.118,19.75,12.118,19.75l-13.784,6.545s-2.805-14.48-2.289-19.12A11.014,11.014,0,0,1,145.917,196.859Z" fill="#fff" opacity="0.7"/>
      <path id="Path_390" data-name="Path 390" d="M162.12,410.53l-7.02,1.987-1.671-10.926-.9-5.844,7.02-1.987,1.2,7.831Z" fill="#b55b52"/>
      <path id="Path_391" data-name="Path 391" d="M121.757,411.1l-7.238.959-.069-10.471-.049-6.506,7.248-.949.049,7.455Z" fill="#b55b52"/>
      <path id="Path_392" data-name="Path 392" d="M121.649,394.136l.049,7.455h-7.248l-.049-6.506Z" opacity="0.2"/>
      <path id="Path_393" data-name="Path 393" d="M160.745,401.591h-7.317l-.9-5.844,7.02-1.987Z" opacity="0.2"/>
      <g id="Group_2264" data-name="Group 2264">
        <path id="Path_394" data-name="Path 394" d="M162.034,409.435l-7.973-.215a.643.643,0,0,0-.639.479l-1.675,6.421a1.049,1.049,0,0,0,1,1.321c2.877.029,7.039-.027,10.654.07,4.227.114,6.914-.093,11.871.04,3,.081,3.937-2.913,2.692-3.22-5.666-1.4-9.37-1.121-14.2-4.283A3.371,3.371,0,0,0,162.034,409.435Z" fill="#263238"/>
        <path id="Path_395" data-name="Path 395" d="M162.606,410.316a.175.175,0,0,1,.1-.174c.338-.161,3.323-1.572,4.194-1.048a.541.541,0,0,1,.269.466.971.971,0,0,1-.354.829c-.826.684-2.908.341-4.075.076l-.023-.007A.172.172,0,0,1,162.606,410.316Zm.719-.08c1.6.31,2.806.273,3.269-.111a.635.635,0,0,0,.229-.548.2.2,0,0,0-.1-.187.4.4,0,0,0-.062-.029C166.115,409.157,164.5,409.717,163.325,410.236Z" fill="#407bff"/>
        <path id="Path_396" data-name="Path 396" d="M162.673,410.434a.17.17,0,0,1-.066-.158,4.949,4.949,0,0,1,1.234-2.769,1.277,1.277,0,0,1,.969-.269c.474.062.6.3.627.5.1.825-1.7,2.35-2.593,2.72a.177.177,0,0,1-.128,0A.152.152,0,0,1,162.673,410.434Zm2.091-2.854a.926.926,0,0,0-.713.2,4.075,4.075,0,0,0-1.044,2.215c.918-.514,2.149-1.717,2.087-2.212,0-.03-.014-.109-.155-.162A.759.759,0,0,0,164.764,407.58Z" fill="#407bff"/>
      </g>
      <g id="Group_2265" data-name="Group 2265">
        <path id="Path_397" data-name="Path 397" d="M121.468,409.435l-7.972-.215a.643.643,0,0,0-.64.479l-1.674,6.421a1.048,1.048,0,0,0,1,1.321c2.878.029,7.04-.027,10.655.07,4.226.114,6.914-.093,11.87.04,3,.081,3.938-2.913,2.693-3.22-5.666-1.4-9.37-1.121-14.2-4.283A3.374,3.374,0,0,0,121.468,409.435Z" fill="#263238"/>
        <path id="Path_398" data-name="Path 398" d="M122.041,410.316a.174.174,0,0,1,.1-.174c.338-.161,3.323-1.572,4.195-1.048a.541.541,0,0,1,.269.466.974.974,0,0,1-.354.829c-.826.684-2.908.341-4.076.076l-.022-.007A.172.172,0,0,1,122.041,410.316Zm.718-.08c1.6.31,2.806.273,3.27-.111a.634.634,0,0,0,.228-.548.2.2,0,0,0-.1-.187.5.5,0,0,0-.062-.029C125.549,409.157,123.937,409.717,122.759,410.236Z" fill="#407bff"/>
        <path id="Path_399" data-name="Path 399" d="M122.107,410.434a.174.174,0,0,1-.066-.158,4.949,4.949,0,0,1,1.234-2.769,1.278,1.278,0,0,1,.97-.269c.473.062.6.3.627.5.1.825-1.7,2.35-2.593,2.72a.177.177,0,0,1-.128,0A.173.173,0,0,1,122.107,410.434Zm2.091-2.854a.923.923,0,0,0-.712.2,4.077,4.077,0,0,0-1.045,2.215c.919-.514,2.15-1.717,2.087-2.212,0-.03-.013-.109-.155-.162A.735.735,0,0,0,124.2,407.58Z" fill="#407bff"/>
      </g>
      <path id="Path_400" data-name="Path 400" d="M106.826,251.966c-3.834,16.626,2.746,147.392,2.746,147.392h12.717l5.437-108.979,20.028,108.979,13.592-.989c-8.885-84.42-16.74-134.82-16.74-134.82l.019-6.369Z" fill="#263238"/>
      <path id="Path_401" data-name="Path 401" d="M161.348,398.368l-13.6.989L131.992,313.57l-4.262-23.186-5.439,108.973H109.576s-6.586-130.766-2.749-147.388l37.8,5.211-.02,6.368S152.459,313.946,161.348,398.368Z" fill="#fff" opacity="0.2"/>
      <g id="Group_2266" data-name="Group 2266">
        <path id="Path_402" data-name="Path 402" d="M105.967,195.792a159.392,159.392,0,0,1,2.232,23.733c.134,5.557.025,10.839-.19,15.619-.5,11.2-1.575,19.685-1.525,22.594,5.591.1,26.662.481,38.151.683,9.1-39.9,1.282-61.562,1.282-61.562a74.263,74.263,0,0,0-8.961-1.915c-.638-.1-1.288-.177-1.95-.248a140.925,140.925,0,0,0-16.221-.292c-1.025.032-2.065.09-3.078.164C110.553,194.948,105.967,195.792,105.967,195.792Z" fill="#407bff"/>
      </g>
      <g id="Group_2267" data-name="Group 2267">
        <path id="Path_403" data-name="Path 403" d="M136.194,195.966s-2.274,3.293-4.1,3.524c-2.578.345-12.016-5.421-12.016-5.421,2.182-1.613,3.249-5.116,3.718-8.827a49.786,49.786,0,0,0,.193-9.076l8.811,9.582c-1.165,2.99-1.852,6.2.427,8.452a.041.041,0,0,0,.026.01A7.887,7.887,0,0,0,136.194,195.966Z" fill="#b55b52"/>
        <path id="Path_404" data-name="Path 404" d="M133.229,194.2a25.2,25.2,0,0,1-9.431-8.958,49.786,49.786,0,0,0,.193-9.076l8.811,9.582C131.637,188.738,130.95,191.951,133.229,194.2Z" opacity="0.2"/>
      </g>
      <g id="Group_2268" data-name="Group 2268">
        <path id="Path_405" data-name="Path 405" d="M143.034,167.556c.744,2.778.027,8.39-3.724,6.394S141.754,162.78,143.034,167.556Z" fill="#263238"/>
        <path id="Path_406" data-name="Path 406" d="M123.119,170.407c-.726,7.028-1.509,11.108,1.425,15.23,4.413,6.2,13.562,4.355,16.381-2.335,2.537-6.021,3.3-16.5-3.078-20.337A9.748,9.748,0,0,0,123.119,170.407Z" fill="#b55b52"/>
        <path id="Path_407" data-name="Path 407" d="M128.225,166.789l.34-7.873s-8.352-.984-8.165,3.32c-4.74,2.1-2.859,9.416,3.222,13.226,3.534-2.586,3.428-9.188,3.428-9.188C127.412,166.453,127.811,166.623,128.225,166.789Z" fill="#263238"/>
        <path id="Path_408" data-name="Path 408" d="M119.472,175.761a6.633,6.633,0,0,0,2.636,4.379c1.9,1.375,3.688-.137,3.855-2.362.15-2-.661-5.13-2.908-5.625A3.049,3.049,0,0,0,119.472,175.761Z" fill="#b55b52"/>
        <path id="Path_409" data-name="Path 409" d="M133.388,174c-.094.566.131,1.073.5,1.131s.749-.355.843-.922-.131-1.073-.5-1.131S133.482,173.435,133.388,174Z" fill="#263238"/>
        <path id="Path_410" data-name="Path 410" d="M139.815,175c-.094.567.131,1.074.5,1.131s.749-.354.843-.921-.131-1.073-.5-1.131S139.909,174.435,139.815,175Z" fill="#263238"/>
        <path id="Path_411" data-name="Path 411" d="M137.725,174.966a19.8,19.8,0,0,0,1.986,5.107,3.407,3.407,0,0,1-2.778.035Z" fill="#a02724"/>
        <path id="Path_412" data-name="Path 412" d="M133.526,181.8a5.837,5.837,0,0,0,.732.164.171.171,0,0,0,.2-.141.167.167,0,0,0-.139-.192,4.511,4.511,0,0,1-3.382-2.327.169.169,0,0,0-.309.138A4.683,4.683,0,0,0,133.526,181.8Z" fill="#263238"/>
        <path id="Path_413" data-name="Path 413" d="M131.749,171.624a.34.34,0,0,0,.333-.081,2.72,2.72,0,0,1,2.324-.778.342.342,0,0,0,.407-.253.335.335,0,0,0-.25-.4,3.389,3.389,0,0,0-2.947.951.335.335,0,0,0-.012.476A.329.329,0,0,0,131.749,171.624Z" fill="#263238"/>
        <path id="Path_414" data-name="Path 414" d="M142.95,173.23a.341.341,0,0,0,.423-.422,3.329,3.329,0,0,0-2.088-2.248.342.342,0,0,0-.421.231.333.333,0,0,0,.225.416,2.6,2.6,0,0,1,1.635,1.8A.334.334,0,0,0,142.95,173.23Z" fill="#263238"/>
        <path id="Path_415" data-name="Path 415" d="M120.4,162.236s-4.322-4.287,10.344-3.895,17.1,8.606,10.38,10.515l-.308-1.337a9.1,9.1,0,0,1-7.521.38l1.063-.659S124.354,168.265,120.4,162.236Z" fill="#263238"/>
      </g>
      <g id="Group_2274" data-name="Group 2274">
        <g id="Group_2269" data-name="Group 2269">
          <path id="Path_416" data-name="Path 416" d="M132.1,199.493s-1.868,2.158-4.048,4.291c-3.112-1.575-10.4-5.785-10.035-9.673.43-1.133,3.39-1.848,3.39-1.848S124.633,196.452,132.1,199.493Z" fill="#407bff"/>
        </g>
        <g id="Group_2270" data-name="Group 2270">
          <path id="Path_417" data-name="Path 417" d="M132.1,199.493a20.625,20.625,0,0,1,4.01,4.289c2.292-1.482,1.136-8.718.3-9.518a8.144,8.144,0,0,0-3.943-1.033A6.686,6.686,0,0,1,132.1,199.493Z" fill="#407bff"/>
        </g>
        <g id="Group_2273" data-name="Group 2273" opacity="0.5">
          <g id="Group_2271" data-name="Group 2271">
            <path id="Path_418" data-name="Path 418" d="M132.1,199.493s-1.868,2.158-4.048,4.291c-3.112-1.575-10.4-5.785-10.035-9.673.43-1.133,3.39-1.848,3.39-1.848S124.633,196.452,132.1,199.493Z" fill="#fff"/>
          </g>
          <g id="Group_2272" data-name="Group 2272">
            <path id="Path_419" data-name="Path 419" d="M132.1,199.493a20.625,20.625,0,0,1,4.01,4.289c2.292-1.482,1.136-8.718.3-9.518a8.144,8.144,0,0,0-3.943-1.033A6.686,6.686,0,0,1,132.1,199.493Z" fill="#fff"/>
          </g>
        </g>
      </g>
      <path id="Path_420" data-name="Path 420" d="M131.992,313.57l-4.262-23.186.82-12.271S134.394,299.391,131.992,313.57Z" opacity="0.2"/>
      <path id="Path_421" data-name="Path 421" d="M105.889,203.774s-11.066,17.27-13.26,23.866C90.776,233.211,89.2,251,89.2,251" fill="none" stroke="#b55b52" stroke-width="9.678"/>
      <path id="Path_422" data-name="Path 422" d="M105.967,195.792c-5.366,1.385-14.944,20.688-14.944,20.688l11.406,7.39,10.293-9.988a24.784,24.784,0,0,0-.656-10.848C110.376,196.971,105.967,195.792,105.967,195.792Z" fill="#407bff"/>
      <path id="Path_423" data-name="Path 423" d="M105.967,195.792c-5.366,1.385-14.944,20.688-14.944,20.688l11.406,7.39,10.293-9.988a24.784,24.784,0,0,0-.656-10.848C110.376,196.971,105.967,195.792,105.967,195.792Z" fill="#fff" opacity="0.7"/>
      <g id="Group_2280" data-name="Group 2280">
        <path id="Rectangle_541" data-name="Rectangle 541" d="M0,0H115.541a4.735,4.735,0,0,1,4.735,4.735V7.377a4.736,4.736,0,0,1-4.736,4.736H0a0,0,0,0,1,0,0V0A0,0,0,0,1,0,0Z" transform="translate(110.05 255.286) rotate(-46.681)" fill="#263238"/>
        <path id="Rectangle_542" data-name="Rectangle 542" d="M0,0H115.541a4.735,4.735,0,0,1,4.735,4.735V7.377a4.736,4.736,0,0,1-4.736,4.736H0a0,0,0,0,1,0,0V0A0,0,0,0,1,0,0Z" transform="translate(110.05 255.286) rotate(-46.681)" fill="#fff" opacity="0.6" style="mix-blend-mode: normal;isolation: isolate"/>
        <path id="Path_424" data-name="Path 424" d="M196.6,171.591l1.326,1.251a4.733,4.733,0,0,1,.2,6.693L118.863,263.6l-1.326-1.25,79.269-84.064A4.734,4.734,0,0,0,196.6,171.591Z" opacity="0.2"/>
        <path id="Path_425" data-name="Path 425" d="M171.309,204.144,186,218l1.913-2.029-1.9-1.793,3.023-3.206-1.115-1.051,4.537-4.812,1.115,1.051,2.834-3.005,1.9,1.793,1.979-2.1-1.115-1.051,2.845-3.017-2.23-2.1,1.855-1.967,3.345,3.154,3.4-3.607L193.7,180.4Z" fill="#263238"/>
        <path id="Path_426" data-name="Path 426" d="M171.309,204.144,186,218l1.913-2.029-1.9-1.793,3.023-3.206-1.115-1.051,4.537-4.812,1.115,1.051,2.834-3.005,1.9,1.793,1.979-2.1-1.115-1.051,2.845-3.017-2.23-2.1,1.855-1.967,3.345,3.154,3.4-3.607L193.7,180.4Z" fill="#fff" opacity="0.6" style="mix-blend-mode: normal;isolation: isolate"/>
        <g id="Group_2275" data-name="Group 2275" opacity="0.2">
          <rect id="Rectangle_543" data-name="Rectangle 543" width="2.78" height="1.823" transform="matrix(0.686, -0.728, 0.728, 0.686, 184.679, 216.746)" opacity="0.6" style="mix-blend-mode: normal;isolation: isolate"/>
          <path id="Path_427" data-name="Path 427" d="M193.575,206.156l-1.114-1.051-4.54,4.814,1.114,1.05-3.026,3.209-1.326-1.251,3.026-3.209-1.114-1.051,4.54-4.814,1.114,1.051,2.833-3,1.326,1.251Z" opacity="0.6" style="mix-blend-mode: normal;isolation: isolate"/>
          <path id="Path_428" data-name="Path 428" d="M197.84,200.544l2.845-3.017,1.333,1.257-2.845,3.017,1.114,1.051-1.976,2.1-1.326-1.251,1.976-2.1Z" opacity="0.6" style="mix-blend-mode: normal;isolation: isolate"/>
          <rect id="Rectangle_544" data-name="Rectangle 544" width="2.707" height="1.823" transform="translate(198.457 195.425) rotate(-46.681)" opacity="0.6" style="mix-blend-mode: normal;isolation: isolate"/>
          <rect id="Rectangle_545" data-name="Rectangle 545" width="4.958" height="1.823" transform="translate(203.663 196.614) rotate(-46.683)" opacity="0.6" style="mix-blend-mode: normal;isolation: isolate"/>
        </g>
        <rect id="Rectangle_546" data-name="Rectangle 546" width="37.539" height="14.243" rx="1.06" transform="translate(162.181 198.449) rotate(-46.681)" fill="#263238"/>
        <g id="Group_2276" data-name="Group 2276">
          <path id="Path_429" data-name="Path 429" d="M119.322,290.773h0a20.473,20.473,0,0,1-28.942.849l-6.638-6.259a20.475,20.475,0,0,1-.85-28.943h0a20.474,20.474,0,0,1,28.943-.849l6.638,6.259A20.474,20.474,0,0,1,119.322,290.773Z" fill="#263238"/>
          <path id="Path_430" data-name="Path 430" d="M111.688,283.574h0A10.191,10.191,0,0,1,97.282,284l-6.333-5.972a10.191,10.191,0,0,1-.422-14.406h0a10.191,10.191,0,0,1,14.406-.423l6.332,5.972A10.19,10.19,0,0,1,111.688,283.574Z" fill="#fff"/>
        </g>
        <rect id="Rectangle_547" data-name="Rectangle 547" width="37.539" height="14.243" rx="1.06" transform="translate(162.181 198.449) rotate(-46.681)" fill="#fff" opacity="0.5" style="mix-blend-mode: normal;isolation: isolate"/>
        <g id="Group_2277" data-name="Group 2277" opacity="0.5" style="mix-blend-mode: normal;isolation: isolate">
          <path id="Path_431" data-name="Path 431" d="M119.322,290.773h0a20.473,20.473,0,0,1-28.942.849l-6.638-6.259a20.475,20.475,0,0,1-.85-28.943h0a20.474,20.474,0,0,1,28.943-.849l6.638,6.259A20.474,20.474,0,0,1,119.322,290.773Z" fill="#fff"/>
          <path id="Path_432" data-name="Path 432" d="M111.688,283.574h0A10.191,10.191,0,0,1,97.282,284l-6.333-5.972a10.191,10.191,0,0,1-.422-14.406h0a10.191,10.191,0,0,1,14.406-.423l6.332,5.972A10.19,10.19,0,0,1,111.688,283.574Z" fill="#fff"/>
        </g>
        <path id="Path_433" data-name="Path 433" d="M194.873,177.677l2.653,2.5a1.063,1.063,0,0,1,.044,1.508l-24.3,25.768a1.059,1.059,0,0,1-1.5.038l-2.653-2.5a1.059,1.059,0,0,0,1.495-.044l24.3-25.769A1.06,1.06,0,0,0,194.873,177.677Z" opacity="0.2"/>
        <g id="Group_2278" data-name="Group 2278" opacity="0.2">
          <path id="Path_434" data-name="Path 434" d="M102.948,261.319l1.989,1.876a10.194,10.194,0,0,0-13.988,14.834l-1.989-1.876a10.195,10.195,0,0,1,13.988-14.834Z"/>
          <path id="Path_435" data-name="Path 435" d="M116.486,259.954l1.99,1.876a20.476,20.476,0,0,1-28.1,29.794l-1.99-1.876a20.476,20.476,0,0,0,28.1-29.794Z"/>
        </g>
        <g id="Group_2279" data-name="Group 2279" opacity="0.2">
          <path id="Path_436" data-name="Path 436" d="M102.948,261.319l1.989,1.876a10.194,10.194,0,0,0-13.988,14.834l-1.989-1.876a10.195,10.195,0,0,1,13.988-14.834Z"/>
          <path id="Path_437" data-name="Path 437" d="M102.948,261.319l1.989,1.876a10.194,10.194,0,0,0-13.988,14.834l-1.989-1.876a10.195,10.195,0,0,1,13.988-14.834Z"/>
        </g>
      </g>
      <g id="Group_2281" data-name="Group 2281">
        <path id="Path_438" data-name="Path 438" d="M87.785,262.21l7.343-1.837L94.314,255l-8.967,1.806Z" fill="#b55b52"/>
        <path id="Path_439" data-name="Path 439" d="M87.056,249.785l-1.708,7.023L94.314,255s.121-6.29-3.226-6.7Z" fill="#b55b52"/>
      </g>
    </g>
  </g>
</svg>
