<svg xmlns="http://www.w3.org/2000/svg" width="179" height="167.431" viewBox="0 0 179 167.431">
  <g id="Group_7168" data-name="Group 7168" transform="translate(2417.202 1494.855)">
    <path id="Path_4376" data-name="Path 4376" d="M-2265.47-1322.285c-.115-.081-.172-.117-.225-.16a3.763,3.763,0,0,0-2.445-.835c-.742,0-1.484-.017-2.225.006a8.072,8.072,0,0,0-4.3,1.289,6.547,6.547,0,0,0-1.692,1.582,2.862,2.862,0,0,0-.6,1.938,3.018,3.018,0,0,0,1.851,2.661,8.03,8.03,0,0,0,1.827.554c.456.09.917.148,1.376.224.028,0,.051.037.094.071a1.536,1.536,0,0,1-.387.4q-1.771,1.591-3.546,3.177a7.62,7.62,0,0,0-2.3,3.675,7.83,7.83,0,0,0-.286,2.145q.007,6.081,0,12.162c0,.155,0,.311,0,.466-.013.231-.08.3-.319.315-.207.013-.414.009-.621.009h-73.751c-.345,0-.69,0-1.035-.011a8,8,0,0,1-4.811-1.788,8.294,8.294,0,0,1-2.981-4.719,7.332,7.332,0,0,1-.178-1.59c0-.241,0-.483,0-.725q0-64.668,0-129.337c0-.311,0-.621.007-.931a8.014,8.014,0,0,1,2.088-5.166,8.178,8.178,0,0,1,4.471-2.63,5.809,5.809,0,0,1,1.278-.171c.328,0,.655-.01.983-.01h129.44a10.16,10.16,0,0,1,2.362.208,8.408,8.408,0,0,1,6.3,6.517,5.78,5.78,0,0,1,.143,1.334c-.008.276,0,.552,0,.828q0,46.916,0,93.832c0,.224,0,.449-.01.672-.01.178-.084.252-.257.261-.189.011-.379.007-.569.007h-37.367c-.259,0-.518,0-.776,0a7.392,7.392,0,0,0-6.375,3.6,8.286,8.286,0,0,0-.423.77q-2.223,4.413-4.441,8.827C-2265.265-1322.66-2265.356-1322.5-2265.47-1322.285Zm-63.4-102.116a2.444,2.444,0,0,0-.066.9q0,57.346,0,114.691c0,.172,0,.345,0,.518a1.741,1.741,0,0,0,.02.257.236.236,0,0,0,.2.207,4.1,4.1,0,0,0,.516.027q10.558,0,21.116,0c.138,0,.277,0,.414-.011.218-.02.3-.1.323-.328s.016-.448.016-.672q0-17.7,0-35.4,0-2.95,0-5.9c0-.172,0-.345.018-.516a.225.225,0,0,1,.237-.226c.189-.014.379-.015.569-.015h16.873c2.276,0,4.553.037,6.824-.18.84-.08,1.684-.131,2.52-.243q1.92-.257,3.814-.678a36.391,36.391,0,0,0,10.826-4.265,32.872,32.872,0,0,0,12.556-13.359,34.013,34.013,0,0,0,3-8.345c.253-1.142.449-2.3.624-3.456.123-.816.156-1.646.248-2.467.118-1.047.135-2.1.156-3.15.019-.93-.051-1.861-.058-2.792a31.993,31.993,0,0,0-.248-3.35c-.136-1.2-.332-2.387-.576-3.569a34.848,34.848,0,0,0-3.693-10.055,32.642,32.642,0,0,0-8.233-9.739,35.574,35.574,0,0,0-14.059-6.754,36.66,36.66,0,0,0-4.884-.849c-.943-.094-1.884-.216-2.829-.271q-1.678-.1-3.361-.1-21.013-.01-42.026,0c-.173,0-.346-.007-.517.009A1.952,1.952,0,0,0-2328.874-1424.4Z" transform="translate(-49.994 -49.992)" fill="#b6b7b7"/>
    <path id="Path_4377" data-name="Path 4377" d="M-1370.714-297.2c0-.811,0-1.5,0-2.189a2.484,2.484,0,0,1,.066-.613,1.611,1.611,0,0,1,1.543-1.232c.965-.017,1.934-.035,2.9.023a5.388,5.388,0,0,1,3.343,1.351,4.2,4.2,0,0,1,.629.683,1.051,1.051,0,0,1-.419,1.611,6.4,6.4,0,0,1-1.126.374,16.322,16.322,0,0,1-3.279.415c-.258.011-.518.006-.776.02a.807.807,0,0,0-.778.576c-.079.225-.143.456-.218.7.15.14.285.27.425.4q2.909,2.609,5.819,5.216a5.692,5.692,0,0,1,1.748,2.815,5.42,5.42,0,0,1,.179,1.433c0,1.415,0,2.829,0,4.244,0,4.486-.007,8.971.006,13.456a4.4,4.4,0,0,1-.592,2.425,1.064,1.064,0,0,0-.105.6q0,2.07,0,4.14c0,.207-.007.414-.02.62a3,3,0,0,1-2.219,2.639,3.383,3.383,0,0,1-.869.114q-4.166.013-8.333,0a3.2,3.2,0,0,1-1.166-.2,3.017,3.017,0,0,1-1.957-2.792c.013-.862,0-1.725,0-2.588v-.538a2.629,2.629,0,0,0-.314-.063c-.137-.01-.276,0-.414,0H-1433.5c-.017.165-.042.3-.042.428,0,.932.01,1.863-.006,2.795a3.017,3.017,0,0,1-2.081,2.805,3.681,3.681,0,0,1-1.173.162h-3.726c-1.432,0-2.864.008-4.3-.006a4.709,4.709,0,0,1-1.074-.126,3,3,0,0,1-2.217-2.966c-.006-1.018,0-2.036,0-3.054,0-.328-.011-.656,0-.983a2.316,2.316,0,0,0-.3-1.382,2.862,2.862,0,0,1-.373-1.386c-.01-.224-.017-.448-.017-.672q0-8.669,0-17.338a6.612,6.612,0,0,1,.192-1.794,5.694,5.694,0,0,1,1.724-2.772q1.485-1.328,2.968-2.66,1.464-1.313,2.929-2.626c.115-.1.224-.211.34-.321a2.562,2.562,0,0,0-.229-.8.757.757,0,0,0-.673-.492c-.2-.023-.414-.013-.62-.019a16.813,16.813,0,0,1-3.486-.417,9.034,9.034,0,0,1-1.035-.324,1.106,1.106,0,0,1-.454-1.783,5.273,5.273,0,0,1,2.315-1.594,5.692,5.692,0,0,1,1.823-.344c.862-.012,1.725,0,2.588-.014a1.688,1.688,0,0,1,1.682,1.683c.016.621,0,1.242,0,1.863,0,.133.015.265.023.409a2.315,2.315,0,0,0,1-.949q.84-1.662,1.675-3.326,2.327-4.62,4.651-9.241a5.645,5.645,0,0,1,3.174-2.882,5.926,5.926,0,0,1,1.875-.341c.121,0,.242,0,.362,0q21.246,0,42.492,0a6.5,6.5,0,0,1,1.893.229,5.521,5.521,0,0,1,3.448,2.853c.624,1.211,1.228,2.432,1.841,3.648q2.269,4.5,4.534,9.01A3.448,3.448,0,0,0-1370.714-297.2Zm-4.1-.771c-.114-.244-.189-.417-.273-.584q-2.524-5.013-5.05-10.024c-.194-.385-.381-.774-.588-1.152a2.664,2.664,0,0,0-1.846-1.378,3.683,3.683,0,0,0-.771-.058q-8.177,0-16.355,0c-.086,0-.173,0-.259,0a.634.634,0,0,0-.7.49c-.092.278-.2.552-.3.825a.979.979,0,0,1-.992.68q-2.769-.005-5.538,0h-.1a.948.948,0,0,1-.887-.6c-.051-.109-.086-.226-.127-.339-.071-.194-.144-.388-.212-.583a.619.619,0,0,0-.66-.468c-.12,0-.241,0-.362,0h-16.148c-.121,0-.242,0-.362,0a2.7,2.7,0,0,0-2.375,1.411c-.1.163-.177.335-.263.5l-4,7.947q-.756,1.5-1.509,3c-.052.1-.143.2-.026.366h59.384C-1375.056-297.936-1374.975-297.952-1374.816-297.969Zm-29.938,30.816h18.414c.172,0,.345.006.517,0a.856.856,0,0,0,.885-.832c.029-.637.027-1.276,0-1.913a.879.879,0,0,0-.865-.863c-.12-.011-.241-.006-.362-.006h-37.14c-.121,0-.242-.006-.362.006a.884.884,0,0,0-.863.867c-.025.62-.023,1.242,0,1.862a.872.872,0,0,0,.895.88c.172.009.345,0,.517,0Zm-30.583-20.277q-3.933,0-7.865,0a4.036,4.036,0,0,0-.771.059,1.83,1.83,0,0,0-1.5,1.742c-.024.672-.023,1.346,0,2.018a1.836,1.836,0,0,0,1.526,1.773,3.469,3.469,0,0,0,.668.053q5.77,0,11.539,0a6.356,6.356,0,0,0,.928-.06,5.542,5.542,0,0,0,4.659-3.82,3.434,3.434,0,0,0,.131-.446,1,1,0,0,0-.983-1.317c-.155-.01-.31,0-.466,0Zm61.2,0q-3.984,0-7.969,0a2.762,2.762,0,0,0-.665.061.907.907,0,0,0-.7.912,1.932,1.932,0,0,0,.08.508,5.559,5.559,0,0,0,2.977,3.59,5.926,5.926,0,0,0,2.706.577q5.77,0,11.539,0a3.774,3.774,0,0,0,.567-.033,1.89,1.89,0,0,0,1.624-1.859c-.012-.638.012-1.277-.007-1.914a1.845,1.845,0,0,0-1.518-1.782,3.822,3.822,0,0,0-.719-.057Q-1370.179-287.433-1374.137-287.43Zm-8.812,9.855a.474.474,0,0,0-.141-.046q-21.607-.006-43.214-.006a1.07,1.07,0,0,0-.194.035,1.6,1.6,0,0,0,1.3,1.732,4.725,4.725,0,0,0,.824.048q19.64,0,39.281,0c.138,0,.276.006.414,0a3.134,3.134,0,0,0,.462-.05A1.634,1.634,0,0,0-1382.949-277.574Zm-1.392-2.426h-40.747a6.436,6.436,0,0,0-1.227,1.756,2.2,2.2,0,0,0,.61.032h41.919c.138,0,.276,0,.414,0,.08,0,.176.019.227-.1a.4.4,0,0,0-.04-.13C-1383.564-278.957-1383.946-279.468-1384.341-280Zm-1.843-2.388a1.566,1.566,0,0,0-.178-.023l-36.576,0c-.086,0-.172.006-.258.011a.177.177,0,0,0-.05.012.457.457,0,0,0-.046.022,8.7,8.7,0,0,0-1.225,1.694c.026.018.052.05.078.05q19.684.007,39.368.008a.5.5,0,0,0,.136-.041A8.71,8.71,0,0,0-1386.184-282.388Zm-51.1,15.235h4.7c.138,0,.276,0,.413,0a.748.748,0,0,0,.737-1.029c-.292-.973-.583-1.947-.924-2.9a1.966,1.966,0,0,0-1.823-1.378c-.464-.035-.929-.051-1.394-.07q-2.427-.1-4.855-.187c-.637-.024-1.275-.039-1.912-.055a2.057,2.057,0,0,0-2.07,2.168,16.436,16.436,0,0,0,.182,1.747,1.983,1.983,0,0,0,1.322,1.589,2.258,2.258,0,0,0,.864.122Q-1439.658-267.154-1437.28-267.152Zm65.063,0h3.98c.362,0,.724.01,1.085-.006a2.035,2.035,0,0,0,1.927-1.769c.072-.546.13-1.1.169-1.645a2.064,2.064,0,0,0-1.983-2.2c-.137-.005-.276,0-.413.005q-3.486.125-6.973.253c-.293.011-.586.025-.877.053a2.309,2.309,0,0,0-.5.1,2,2,0,0,0-1.329,1.341c-.3.917-.585,1.837-.874,2.757a1.34,1.34,0,0,0-.065.3.735.735,0,0,0,.689.809c.137.013.275.007.413.008ZM-1422.807-283h35.452c.138,0,.276,0,.414,0,.08,0,.176.02.218-.111a5.513,5.513,0,0,0-.713-.928,2.454,2.454,0,0,0-1.5-.743,7.443,7.443,0,0,0-.826-.042q-14.957,0-29.914,0c-.173,0-.345,0-.517,0a2.766,2.766,0,0,0-1.372.41A4.31,4.31,0,0,0-1422.807-283Z" transform="translate(-877.549 -1070.055)" fill="#b6b7b7"/>
    <path id="Path_4378" data-name="Path 4378" d="M-2259.8-1386.089a1.2,1.2,0,0,1-.214.068c-.494.028-.547-.032-.535-.5,0-.155,0-.311,0-.466v-93.574c0-.259,0-.518,0-.776a12.027,12.027,0,0,0-.947-4.786,12.672,12.672,0,0,0-7.4-7.167,12.3,12.3,0,0,0-4.452-.794q-65.16.006-130.32,0a12.84,12.84,0,0,0-11.55,7.326,12.474,12.474,0,0,0-1.108,3.752,11.8,11.8,0,0,0-.094,1.339c-.005.328,0,.656,0,.983v129.078c0,.328,0,.656,0,.983a11.055,11.055,0,0,0,.8,4.139,12.667,12.667,0,0,0,8.373,7.777,10.658,10.658,0,0,0,3.309.5c.311,0,.621,0,.932,0h73.855c.207,0,.414,0,.62.013a.209.209,0,0,1,.2.2,1.656,1.656,0,0,1,.007.258c-.01.206-.077.282-.278.3-.155.013-.31.011-.465.011h-73.855c-.483,0-.966,0-1.449-.02a12.644,12.644,0,0,1-5.861-1.669,13.428,13.428,0,0,1-6.436-8.028,11.925,11.925,0,0,1-.528-3.41c0-.259,0-.517,0-.776q0-64.772,0-129.544,0-.414,0-.828a12.066,12.066,0,0,1,.851-4.391,13.433,13.433,0,0,1,8.651-8.161,11.659,11.659,0,0,1,3.607-.6c.293,0,.586-.006.88-.006h129.389c.293,0,.586,0,.88.005a12.368,12.368,0,0,1,5.155,1.168,13.418,13.418,0,0,1,7.521,8.726,11.429,11.429,0,0,1,.482,3.21c0,.259,0,.518,0,.776q0,47.02,0,94.04C-2259.781-1386.657-2259.792-1386.384-2259.8-1386.089Z" fill="#b6b7b7"/>
    <path id="Path_4379" data-name="Path 4379" d="M-1768.266-1066.8q0,9.083,0,18.166c0,.817-.007.752.772.752q6.262,0,12.524,0c1.155,0,2.31,0,3.465-.064,1.085-.065,2.164-.158,3.237-.326a22.075,22.075,0,0,0,4.684-1.247,16.757,16.757,0,0,0,5.556-3.525,15.68,15.68,0,0,0,4.185-7.031,21.276,21.276,0,0,0,.848-5.552,32.442,32.442,0,0,0-.138-4.495,21.437,21.437,0,0,0-.711-3.543,15.335,15.335,0,0,0-5.7-8.283,18.355,18.355,0,0,0-6.642-3.017,21.688,21.688,0,0,0-3-.538c-.566-.056-1.129-.14-1.7-.174-.637-.038-1.276-.047-1.914-.047q-7.4-.009-14.8-.008a3.467,3.467,0,0,0-.362.012c-.2.021-.281.094-.3.291s-.012.379-.012.569Q-1768.266-1075.835-1768.266-1066.8Z" transform="translate(-588.06 -370.739)" fill="#b6b7b7"/>
    <path id="Path_4380" data-name="Path 4380" d="M-1768.266-1066.8q0-9.031,0-18.062c0-.19,0-.38.012-.569s.094-.27.3-.291a3.467,3.467,0,0,1,.362-.012q7.4,0,14.8.008c.638,0,1.277.009,1.914.047.567.034,1.13.118,1.7.174a21.688,21.688,0,0,1,3,.538,18.355,18.355,0,0,1,6.642,3.017,15.335,15.335,0,0,1,5.7,8.283,21.437,21.437,0,0,1,.711,3.543,32.442,32.442,0,0,1,.138,4.495,21.276,21.276,0,0,1-.848,5.552,15.68,15.68,0,0,1-4.185,7.031,16.757,16.757,0,0,1-5.556,3.525,22.075,22.075,0,0,1-4.684,1.247c-1.074.168-2.153.261-3.237.326-1.155.069-2.31.064-3.465.064q-6.262,0-12.524,0c-.779,0-.772.065-.772-.752Q-1768.264-1057.721-1768.266-1066.8Z" transform="translate(-588.06 -370.739)" fill="#b6b7b7"/>
  </g>
</svg>
