<svg xmlns="http://www.w3.org/2000/svg" width="159.387" height="159.387" viewBox="0 0 159.387 159.387">
  <g id="Group_7092" data-name="Group 7092" transform="translate(-134.841 -273.736)">
    <path id="Oval_Copy_2" data-name="Oval Copy 2" d="M79.694,0A79.694,79.694,0,1,1,0,79.694,79.694,79.694,0,0,1,79.694,0Z" transform="translate(134.841 273.736)" fill="rgba(29,128,230,0.4)"/>
    <path id="Oval_Copy" data-name="Oval Copy" d="M68.309,0A68.309,68.309,0,1,1,0,68.309,68.309,68.309,0,0,1,68.309,0Z" transform="translate(146.226 285.121)" fill="rgba(29,128,230,0.6)"/>
    <path id="Oval" d="M56.924,0A56.924,56.924,0,1,1,0,56.924,56.924,56.924,0,0,1,56.924,0Z" transform="translate(157.611 296.505)" fill="#1d80e6"/>
    <path id="Path" d="M19.34.588A2.009,2.009,0,0,1,22.181,3.43L10.127,15.484a2.009,2.009,0,0,1-2.841,0l-6.7-6.7A2.009,2.009,0,0,1,3.43,5.946l5.276,5.276Z" transform="translate(203.15 345.46)" fill="#fff"/>
  </g>
</svg>
