<svg xmlns="http://www.w3.org/2000/svg" width="35.8" height="29.834" viewBox="0 0 35.8 29.834">
  <g id="Group_2286" data-name="Group 2286" transform="translate(-36.778 -65.767)">
    <path id="Path_441" data-name="Path 441" d="M348.232,44.712c-.027.035-.058.067-.082.1a.752.752,0,0,1-.861.378.733.733,0,0,1-.54-.763c-.007-.955.008-1.911-.006-2.866a2.239,2.239,0,0,0-2.326-2.307c-.524,0-1.048,0-1.573,0-.419,0-.839.005-1.258,0a.758.758,0,0,1-.813-.734.743.743,0,0,1,.794-.746c1.013-.007,2.027-.02,3.04.006a3.683,3.683,0,0,1,3.562,3.067.868.868,0,0,0,.062.157Z" transform="translate(-275.654 28)" fill="#1d80e6"/>
    <path id="Path_442" data-name="Path 442" d="M36.778,41.036a4.251,4.251,0,0,1,.947-1.986,3.587,3.587,0,0,1,2.642-1.237c1.025-.02,2.05-.014,3.075-.007a.743.743,0,0,1,.794.747.754.754,0,0,1-.814.733c-.944.006-1.887,0-2.831,0A2.239,2.239,0,0,0,38.266,41.6c-.012.885,0,1.771,0,2.656,0,.571-.149.851-.509.964s-.65-.017-.976-.473Z" transform="translate(0 27.97)" fill="#1d80e6"/>
    <path id="Path_443" data-name="Path 443" d="M36.778,278.311c.028-.035.058-.068.082-.1a.749.749,0,0,1,.86-.378.73.73,0,0,1,.54.763c.007.955-.007,1.91.006,2.865a2.243,2.243,0,0,0,2.326,2.308c.478,0,.955,0,1.433,0s.932-.005,1.4,0a.756.756,0,0,1,.814.733.744.744,0,0,1-.794.748c-1.013.007-2.027.02-3.04-.006a3.687,3.687,0,0,1-3.563-3.067.881.881,0,0,0-.062-.157Z" transform="translate(0 -189.657)" fill="#1d80e6"/>
    <path id="Path_444" data-name="Path 444" d="M348.232,281.976a4.285,4.285,0,0,1-.948,1.985,3.582,3.582,0,0,1-2.642,1.237c-1.025.021-2.05.014-3.075.007a.744.744,0,0,1-.794-.747.754.754,0,0,1,.814-.733c.932-.006,1.864,0,2.8,0a2.247,2.247,0,0,0,2.362-2.343c.009-.874,0-1.747,0-2.621,0-.568.152-.853.51-.964.375-.116.651.018.976.474Z" transform="translate(-275.654 -189.616)" fill="#1d80e6"/>
    <path id="Path_445" data-name="Path 445" d="M112.467,119.27a12.139,12.139,0,0,1-9.359-4.765,10.1,10.1,0,0,1-1.859-3.8,1.57,1.57,0,0,1,0-.78,11.072,11.072,0,0,1,7.1-7.661,12.683,12.683,0,0,1,12.294,1.507,10.681,10.681,0,0,1,4.3,6.176,1.464,1.464,0,0,1,0,.747,11.4,11.4,0,0,1-7.576,7.868A13.871,13.871,0,0,1,112.467,119.27Zm.971-16.415a12.148,12.148,0,0,0-4.28.683,9.95,9.95,0,0,0-6.37,6.431,1.237,1.237,0,0,0,0,.7A8.879,8.879,0,0,0,105.6,115a11.215,11.215,0,0,0,11.91,1.895,9.565,9.565,0,0,0,5.887-6.228,1.264,1.264,0,0,0,0-.7,8.484,8.484,0,0,0-1.4-2.793A10.768,10.768,0,0,0,113.437,102.855Z" transform="translate(-58.416 -29.637)" fill="#1d80e6"/>
    <path id="Path_447" data-name="Path 447" d="M189.73,154.239a4.475,4.475,0,1,1-4.472-4.468A4.487,4.487,0,0,1,189.73,154.239Zm-1.489.005a2.986,2.986,0,1,0-2.977,2.987A3,3,0,0,0,188.241,154.245Z" transform="translate(-130.578 -73.562)" fill="#1d80e6"/>
  </g>
</svg>
