<svg xmlns="http://www.w3.org/2000/svg" width="46" height="37.749" viewBox="0 0 46 37.749">
  <g id="Group_7150" data-name="Group 7150" transform="translate(-1087 -993)">
    <path id="Path_4300" data-name="Path 4300" d="M-405.441,249.243a4.468,4.468,0,0,0-1.189-.061,3.764,3.764,0,0,1-3.913-1.393,1.426,1.426,0,0,1,.474-2.1,3.4,3.4,0,0,1,4.674,1.852c.077.264.382.462.648.767.738-1.666,1.4-3.192,2.091-4.705a11.756,11.756,0,0,1,.823-1.5,2.266,2.266,0,0,1,2-1.082q7.114-.007,14.228,0a2.251,2.251,0,0,1,.3.045l.187,1.854h-4.356c-3.162,0-6.325.021-9.487-.019a1.617,1.617,0,0,0-1.726,1.1c-.646,1.562-1.335,3.105-2,4.658-.068.157-.115.323-.2.562h21.644l2.028,7.517h-1.151q-9.289,0-18.578,0c-1.2,0-1.468.274-1.482,1.472-.008.681,0,1.362,0,2.042.01.827.385,1.215,1.207,1.217q5.073.011,10.146.006,5.336,0,10.673,0a.944.944,0,0,1,.179.023c-.589.867-1.164,1.752-1.791,2.6-.1.14-.431.158-.655.158q-5.8.014-11.595.007H-399.1c0,.615.01,1.2,0,1.78a1.639,1.639,0,0,1-1.72,1.756q-3.327.032-6.654,0a1.686,1.686,0,0,1-1.739-1.694c-.036-.635,0-1.273-.014-1.909-.067-2.935.007-5.882-.252-8.8-.25-2.825,1.112-4.461,3.393-5.654.136-.071.272-.142.4-.219A2.391,2.391,0,0,0-405.441,249.243Zm1.359,8.741a1.744,1.744,0,0,0,1.7-.8,1.613,1.613,0,0,0-.16-1.8,3.747,3.747,0,0,0-3.218-1.85,1.615,1.615,0,0,0-1.477,2.618A3.735,3.735,0,0,0-404.082,257.984Z" transform="translate(1497.815 757.467)" fill="#b6b7b7"/>
    <path id="Path_4301" data-name="Path 4301" d="M-204.587,200.729c.2,1.431.34,2.805.591,4.159a2.55,2.55,0,0,0,2.679,2.14,2.7,2.7,0,0,0,2.655-2.212,3.267,3.267,0,0,0-.133-1.41,16.322,16.322,0,0,0-.747-1.892c-.261-.6-.553-1.191-.857-1.839a1.723,1.723,0,0,1,1.986.042,6.934,6.934,0,0,1,3.275,5.014,5.7,5.7,0,0,1-1.775,5.142.77.77,0,0,0-.234.865c1.166,4.316,2.313,8.637,3.489,12.95a.794.794,0,0,0,.5.469c5.185,1.166,6.118,6.425,4.759,9.851a2.382,2.382,0,0,1-2.144,1.69c-.077-.775-.135-1.509-.225-2.239-.095-.762-.177-1.529-.342-2.277a2.894,2.894,0,0,0-3.545-2.213,2.9,2.9,0,0,0-2.093,3.831c.383,1.049.86,2.064,1.295,3.095l.42.993a2.008,2.008,0,0,1-2-.051,7.42,7.42,0,0,1-3.609-5.179,6.014,6.014,0,0,1,1.994-5.886.917.917,0,0,0,.3-1.073q-1.717-6.276-3.38-12.568a1.027,1.027,0,0,0-.828-.848,5.777,5.777,0,0,1-4.409-5.435,12.176,12.176,0,0,1,.384-3.365A2.15,2.15,0,0,1-204.587,200.729Z" transform="translate(1320.841 793.621)" fill="#b6b7b7"/>
  </g>
</svg>
