<svg xmlns="http://www.w3.org/2000/svg" width="44" height="44" viewBox="0 0 44 44">
  <g id="Group_2156" data-name="Group 2156" transform="translate(-0.102 0.136)">
    <path id="Vector" d="M0,29.762C.3,23.983,3.115,19.9,8.35,17.346A9.391,9.391,0,0,1,4.226,8.509a9.1,9.1,0,0,1,3.436-6.32,9.662,9.662,0,0,1,13.492,1.23,9.4,9.4,0,0,1-1.947,13.916c5.223,2.539,8.052,6.637,8.35,12.426H24.808a11.026,11.026,0,0,0-22.048,0ZM20.651,9.5A6.867,6.867,0,0,0,6.918,9.48,6.775,6.775,0,0,0,13.79,16.24,6.782,6.782,0,0,0,20.651,9.5Z" transform="translate(8.328 6.814)" fill="#fff" style="mix-blend-mode: normal;isolation: isolate"/>
    <g id="Ellipse_8" data-name="Ellipse 8" transform="translate(0.102 -0.136)" fill="none" stroke="#fff" stroke-width="3">
      <circle cx="22" cy="22" r="22" stroke="none"/>
      <circle cx="22" cy="22" r="20.5" fill="none"/>
    </g>
  </g>
</svg>
