<svg xmlns="http://www.w3.org/2000/svg" xmlns:xlink="http://www.w3.org/1999/xlink" width="179" height="155" viewBox="0 0 179 155">
  <defs>
    <linearGradient id="linear-gradient" x1="-1.805" y1="-2.719" x2="1.086" y2="1.289" gradientUnits="objectBoundingBox">
      <stop offset="0" stop-color="#bc0063" stop-opacity="0"/>
      <stop offset="0.242" stop-color="#bc0063" stop-opacity="0"/>
      <stop offset="0.859" stop-color="#1d80e6"/>
      <stop offset="1" stop-color="#1d80e6"/>
    </linearGradient>
  </defs>
  <g id="Group_19" data-name="Group 19" style="mix-blend-mode: normal;isolation: isolate">
    <path id="Ellipse_4" data-name="Ellipse 4" d="M0,64a64,64,0,1,1,64,64A64,64,0,0,1,0,64Z" transform="translate(23 27)" fill="url(#linear-gradient)" style="mix-blend-mode: normal;isolation: isolate"/>
    <path id="Ellipse_5" data-name="Ellipse 5" d="M0,10A10,10,0,1,1,10,20,10,10,0,0,1,0,10Z" transform="translate(2 10)" fill="#1d80e6" style="mix-blend-mode: normal;isolation: isolate"/>
    <path id="Ellipse_7" data-name="Ellipse 7" d="M0,7.5A7.5,7.5,0,1,1,7.5,15,7.5,7.5,0,0,1,0,7.5Z" transform="translate(164 9)" fill="#1d80e6" style="mix-blend-mode: normal;isolation: isolate"/>
    <path id="Ellipse_6" data-name="Ellipse 6" d="M0,5a5,5,0,1,1,5,5A5,5,0,0,1,0,5Z" transform="translate(88)" fill="#1d80e6" style="mix-blend-mode: normal;isolation: isolate"/>
    <path id="Ellipse_9" data-name="Ellipse 9" d="M0,3A3,3,0,1,1,3,6,3,3,0,0,1,0,3Z" transform="translate(141 140)" fill="#1d80e6" style="mix-blend-mode: normal;isolation: isolate"/>
    <path id="Ellipse_10" data-name="Ellipse 10" d="M0,4A4,4,0,1,1,4,8,4,4,0,0,1,0,4Z" transform="translate(0 87)" fill="#1d80e6" style="mix-blend-mode: normal;isolation: isolate"/>
    <path id="Ellipse_8" data-name="Ellipse 8" d="M0,3.5A3.5,3.5,0,1,1,3.5,7,3.5,3.5,0,0,1,0,3.5Z" transform="translate(154 101)" fill="#1d80e6" style="mix-blend-mode: normal;isolation: isolate"/>
    <path id="Ellipse_11" data-name="Ellipse 11" d="M0,2.5A2.5,2.5,0,1,1,2.5,5,2.5,2.5,0,0,1,0,2.5Z" transform="translate(35 143)" fill="#1d80e6" style="mix-blend-mode: normal;isolation: isolate"/>
    <g id="Group_6" data-name="Group 6" transform="translate(70 75)" style="mix-blend-mode: normal;isolation: isolate">
      <path id="Vector" d="M0,12.833l5.5,5.5L23.833,0" transform="translate(11 1.833)" fill="none" stroke="#fff" stroke-linecap="round" stroke-linejoin="round" stroke-width="2" style="mix-blend-mode: normal;isolation: isolate"/>
      <path id="Vector-2" data-name="Vector" d="M33,16.5V29.333A3.667,3.667,0,0,1,29.333,33H3.667A3.667,3.667,0,0,1,0,29.333V3.667A3.667,3.667,0,0,1,3.667,0H23.833" fill="none" stroke="#fff" stroke-linecap="round" stroke-linejoin="round" stroke-width="2" style="mix-blend-mode: normal;isolation: isolate"/>
    </g>
  </g>
</svg>
