<svg xmlns="http://www.w3.org/2000/svg" width="38.647" height="30.693" viewBox="0 0 38.647 30.693">
    <g id="Group_7159" data-name="Group 7159" transform="translate(-969 -815)">
        <g id="Group_7158" data-name="Group 7158" transform="translate(862 -38)">
            <path id="Path_4260" data-name="Path 4260"
                d="M-312.6,296.694a5.275,5.275,0,0,0-.1.7c-.012.979-.02,1.958,0,2.936a1.06,1.06,0,0,1-.828,1.145c-1.238.4-2.472.807-3.845,1.257.515.8.235,2,1.55,2.247.128.024.292.313.295.48.023,1.573.013,3.146.013,4.78h-26.811c0-1.361.019-2.734-.008-4.106-.013-.658-.038-1.234.836-1.373.195-.031.385-.417.483-.675.955-2.512,1.905-5.025,2.819-7.552a1.054,1.054,0,0,1,.986-.779c2.236-.288,4.462-.8,6.7-.863a62.9,62.9,0,0,1,7.053.453c.945.079,1.878.3,2.821.409a1.033,1.033,0,0,1,.974.8c.506,1.456,1.074,2.891,1.642,4.4,1.08-.347,2.116-.654,3.128-1.028.166-.061.309-.41.318-.632.035-.923.012-1.848.016-2.773a2.575,2.575,0,0,1,2.907-2.9c.321,0,.643,0,.941,0,.176.668.322,1.269.494,1.862.074.256.2.5.38.938l.249-1.314.894-.041.246,1.165.142.037.775-2.583a10.526,10.526,0,0,1,1.9.021,2.387,2.387,0,0,1,1.916,2.421c.031,2.5.013,5,.014,7.5,0,.625-.241,1.1-.922,1.1-.721-.005-.945-.5-.942-1.163q.014-3.1,0-6.2a2.937,2.937,0,0,0-.171-.684l-.316.056v.924q0,8.972,0,17.945a1.383,1.383,0,0,1-2.176,1.339,1.611,1.611,0,0,1-.549-1.213c-.043-3.4-.024-6.8-.025-10.2,0-.378.077-.835-.66-.591v.851q0,4.976,0,9.951c0,1.067-.287,1.341-1.361,1.342s-1.379-.281-1.379-1.337q-.007-9.054,0-18.108c0-.306-.035-.611-.053-.917Zm-26.2,7.39a47.888,47.888,0,0,1,19.725,0c-.635-1.7-1.285-3.146-1.7-4.653a2.568,2.568,0,0,0-2.446-2.026,33.491,33.491,0,0,0-12.626.263c-.239.048-.588.168-.657.344C-337.267,299.945-337.984,301.9-338.8,304.084Zm.387,5.061a1.689,1.689,0,0,0,1.736-1.658,1.686,1.686,0,0,0-1.691-1.78,1.74,1.74,0,0,0-1.759,1.735A1.746,1.746,0,0,0-338.413,309.145Zm20.643-1.681a1.685,1.685,0,0,0-1.633-1.756,1.728,1.728,0,0,0-1.81,1.677,1.733,1.733,0,0,0,1.73,1.761A1.693,1.693,0,0,0-317.77,307.464Zm10.41-10.728-.848.528a2.369,2.369,0,0,0,.817.34,2.421,2.421,0,0,0,.831-.323Z"
                transform="translate(449.342 566.504)" fill="#b6b7b7" />
            <path id="Path_4261" data-name="Path 4261"
                d="M-341.875,402.542h26.707v2.432l-.995.088c0,.644.015,1.261,0,1.877-.028.934-.358,1.26-1.3,1.29-.543.017-1.088.023-1.631,0-.829-.04-1.172-.4-1.211-1.22-.015-.326,0-.652,0-.979,0-.3,0-.593,0-.949H-336.8c0,.657-.007,1.3,0,1.946a1.056,1.056,0,0,1-1.131,1.2c-.6.028-1.2.031-1.794,0-.833-.039-1.168-.395-1.186-1.228-.013-.621,0-1.243,0-1.919l-.963-.11Z"
                transform="translate(448.951 475.353)" fill="#b6b7b7" />
            <path id="Path_4262" data-name="Path 4262"
                d="M-151.065,268.312c.5.077.966.11,1.408.224,1,.258,1.223.721.847,1.683a2.361,2.361,0,0,1-2.384,1.486,2.371,2.371,0,0,1-2.148-1.8.945.945,0,0,1,.718-1.308C-152.1,268.453-151.563,268.4-151.065,268.312Z"
                transform="translate(291.232 587.677)" fill="#b6b7b7" />
            <path id="Path_4263" data-name="Path 4263" d="M-153.994,253.028c.225-.912-.41-1.881.54-2.477a3.668,3.668,0,0,1,3.658-.124c1.168.543.507,1.615.743,2.581A5.868,5.868,0,0,0-153.994,253.028Z"
                transform="translate(291.735 603)" fill="#b6b7b7" />
            <path id="Path_4264" data-name="Path 4264"
                d="M-140.976,294.052c-.454.261-.678.494-.888.482-.233-.014-.639-.246-.642-.391-.007-.325.021-.846.585-.717C-141.654,293.486-141.432,293.739-140.976,294.052Z"
                transform="translate(282.12 566.678)" fill="#b6b7b7" />
            <path id="Path_4265" data-name="Path 4265" d="M-240.132,322.674a2,2,0,0,1,2.045,1.989,2.044,2.044,0,0,1-2,2.059,2.023,2.023,0,0,1-2.034-2.009A1.981,1.981,0,0,1-240.132,322.674Z"
                transform="translate(365.474 542.187)" fill="#b6b7b7" />
        </g>
    </g>
</svg>
